<svg id="图层_1" data-name="图层 1" xmlns="http://www.w3.org/2000/svg" xmlns:xlink="http://www.w3.org/1999/xlink" viewBox="0 0 1125 2436"><defs><style>.cls-1{opacity:0.4;fill:url(#未命名的渐变_10);}.cls-2{fill:#1a1a1a;}.cls-3{fill:#7c5e45;stroke:#172c1d;}.cls-3,.cls-4{stroke-miterlimit:10;stroke-width:2.3px;}.cls-4{fill:#d3e98b;stroke:#37583d;}.cls-5{fill:#97b76c;}.cls-6{fill:#172c1d;}.cls-7{fill:#def0fd;}.cls-8{fill:#d2e2f2;}.cls-9{fill:#eb696a;}.cls-10{fill:#fff;}.cls-11,.cls-12{fill:#f93;}.cls-11{stroke:#f93;stroke-linecap:round;stroke-linejoin:round;stroke-width:1.23px;}.cls-12{opacity:0.1;}</style><linearGradient id="未命名的渐变_10" x1="562.5" y1="-65.19" x2="562.5" y2="2440.8" gradientUnits="userSpaceOnUse"><stop offset="0" stop-color="#f93"/><stop offset="0.98" stop-color="#fc9" stop-opacity="0"/></linearGradient></defs><rect class="cls-1" x="-17.4" y="-20.02" width="1159.81" height="2474.18"/><path class="cls-2" d="M115.36,486.8v7.3a32,32,0,0,1-1.57,10.46,25.79,25.79,0,0,1-4.35,8,42.1,42.1,0,0,1-6.77,6.49.88.88,0,0,1-1.44-.17l-.38-.6a.92.92,0,0,1,.25-1.44,39.9,39.9,0,0,0,6.28-6,22.59,22.59,0,0,0,3.93-7.2,29.64,29.64,0,0,0,1.38-9.48v-6.49H102.42a1,1,0,0,1-1.1-1.1V486c0-.77.36-1.15,1.1-1.15h11A1.76,1.76,0,0,1,115.36,486.8ZM105.05,494a28.73,28.73,0,0,0,1.51,9,25.38,25.38,0,0,0,3.73,7.09,30.43,30.43,0,0,0,5.45,5.49,1,1,0,0,1,.13,1.49l-.34.59a.9.9,0,0,1-1.44.09,33.38,33.38,0,0,1-8.47-10.23A29.32,29.32,0,0,1,102.38,494a.9.9,0,0,1,1-1.06H104A.94.94,0,0,1,105.05,494Zm24,1.14v4a24.69,24.69,0,0,1-10.77,21.13,1,1,0,0,1-1.49-.21l-.34-.56a1,1,0,0,1,.26-1.48,21.73,21.73,0,0,0,9.63-18.88v-4a.93.93,0,0,1,1.06-1.06H128A.93.93,0,0,1,129.06,495.12Zm-7-11.84v3.86h14.12a1.77,1.77,0,0,1,2,2v4.71c0,.71-.37,1.06-1.11,1.06h-.59a.93.93,0,0,1-1.06-1.06v-4H121.3a1.72,1.72,0,0,1-2-1.95v-4.63a.94.94,0,0,1,1.06-1.06H121A1,1,0,0,1,122.11,483.28Zm7,16.89a21.92,21.92,0,0,0,2.5,9.84,24,24,0,0,0,7.26,8,.94.94,0,0,1,.21,1.48l-.34.56a.91.91,0,0,1-1.45.21A27.89,27.89,0,0,1,129,511a23.5,23.5,0,0,1-2.65-10.74c0-.73.31-1.1,1-1.1H128A1,1,0,0,1,129.11,500.17Z"/><path class="cls-2" d="M149.22,514.59,145,519.43a.9.9,0,0,1-1.4.09l-.5-.43a.87.87,0,0,1,0-1.4l4.2-4.83a1,1,0,0,1,1.45-.09l.51.42A.88.88,0,0,1,149.22,514.59Zm.25-18.49a1.86,1.86,0,0,1,.51,1.44V511a7.44,7.44,0,0,0,.66,3.22,5.07,5.07,0,0,0,1.89,2.19,5.17,5.17,0,0,0,2.84.78H181a.9.9,0,0,1,1,1v.64a.9.9,0,0,1-1,1H155.37a7.41,7.41,0,0,1-4.09-1.19,8.07,8.07,0,0,1-2.89-3.23,9.66,9.66,0,0,1-1-4.45V498.26h-3.52a.9.9,0,0,1-1-1v-.59a.9.9,0,0,1,1-1h4.24A2,2,0,0,1,149.47,496.1ZM148,483.33l2.67,6.49a.9.9,0,0,1-.59,1.31l-.55.26a.86.86,0,0,1-1.28-.6l-2.67-6.49a.9.9,0,0,1,.6-1.31l.55-.26A.85.85,0,0,1,148,483.33Zm16.8-.47.09.51a1,1,0,0,1-.73,1.36l-6.53,1.65v21.55h5.77a.9.9,0,0,1,1,1v.6a.9.9,0,0,1-1,1h-6.49a2,2,0,0,1-1.4-.46,1.87,1.87,0,0,1-.51-1.45V485.83a1.84,1.84,0,0,1,.38-1.19,2.22,2.22,0,0,1,1-.68l7.09-1.86A.92.92,0,0,1,164.83,482.86Zm14.81,1.19a1.86,1.86,0,0,1,.51,1.44v23.16a1.7,1.7,0,0,1-1.91,1.91h-4a.9.9,0,0,1-1-1V509a.9.9,0,0,1,1-1h3.23V486.21h-7.47v27.28a.9.9,0,0,1-1,1h-.59a.9.9,0,0,1-1-1v-28a1.93,1.93,0,0,1,.47-1.42,1.89,1.89,0,0,1,1.44-.49h8.91A2,2,0,0,1,179.64,484.05Z"/><path class="cls-2" d="M199.58,502.76a1.08,1.08,0,0,1,0,.8,25.36,25.36,0,0,1-4.41,8.81,30.3,30.3,0,0,1-7.38,6.81.92.92,0,0,1-1.45-.26l-.34-.51a1,1,0,0,1,.3-1.48,31.27,31.27,0,0,0,6.85-6.41A20.86,20.86,0,0,0,197,503a1,1,0,0,1,1.32-.76l.59.08A1,1,0,0,1,199.58,502.76Zm24.14-.94v.6a.9.9,0,0,1-1,1H187a.9.9,0,0,1-1-1v-.6a.92.92,0,0,1,1-1.06H222.7A.92.92,0,0,1,223.72,501.82Zm-1.4-14.51v.6a.9.9,0,0,1-1,1H188.38a.9.9,0,0,1-1-1v-.6a.9.9,0,0,1,1-1H221.3A.9.9,0,0,1,222.32,487.31ZM194,491.9l1.57,5.26a.89.89,0,0,1-.72,1.23l-.6.12a.85.85,0,0,1-1.23-.67l-1.57-5.27a.93.93,0,0,1,.72-1.27l.56-.08A.89.89,0,0,1,194,491.9Zm12.22-8.79v36.41a1,1,0,0,1-1.06,1.1h-.6a1,1,0,0,1-1.06-1.1V483.11a.94.94,0,0,1,1.06-1.06h.6A.94.94,0,0,1,206.2,483.11ZM212.69,503a21.81,21.81,0,0,0,4,7.81,29.57,29.57,0,0,0,6.68,6.15,1,1,0,0,1,.3,1.48l-.34.51a.92.92,0,0,1-1.45.26,34.84,34.84,0,0,1-7.53-7.11,23.44,23.44,0,0,1-4.26-8.51,1.08,1.08,0,0,1,0-.8,1,1,0,0,1,.68-.47l.59-.08C212,502,212.46,502.26,212.69,503Zm5.52-10.4-1.58,5.27a.85.85,0,0,1-1.23.67l-.59-.12a.89.89,0,0,1-.72-1.23l1.57-5.26a.88.88,0,0,1,1.27-.68l.55.08A.94.94,0,0,1,218.21,492.57Z"/><path class="cls-2" d="M250.83,518.12v.55a.94.94,0,0,1-1.06,1.06H229.36a.94.94,0,0,1-1.06-1.06v-.55a.94.94,0,0,1,1.06-1.06h20.41A.93.93,0,0,1,250.83,518.12Zm-.55-33.69V485c0,.68-.35,1-1.06,1H229.87a.9.9,0,0,1-1-1v-.59a.9.9,0,0,1,1-1h19.35C249.93,483.41,250.28,483.75,250.28,484.43ZM250,507.3v.55c0,.71-.36,1.06-1.1,1.06H230.21c-.73,0-1.1-.35-1.1-1.06v-.55c0-.71.37-1.06,1.1-1.06h18.67C249.62,506.24,250,506.59,250,507.3Zm-10.6-21-6.41,10H246.8v-3a.9.9,0,0,1,1-1h.64a.9.9,0,0,1,1,1V497a1.87,1.87,0,0,1-.48,1.4,1.93,1.93,0,0,1-1.38.46h-16q-1.7,0-2.1-.72c-.27-.48-.1-1.2.49-2.16l7.13-11.07a.88.88,0,0,1,1.4-.34l.51.34A.89.89,0,0,1,239.38,486.3Zm1.52,15.82v15.19a.93.93,0,0,1-1.06,1.06h-.63a.93.93,0,0,1-1.06-1.06V502.12a.93.93,0,0,1,1.06-1.06h.63A.93.93,0,0,1,240.9,502.12Zm16-15.91v24.65a.9.9,0,0,1-1,1h-.6a.92.92,0,0,1-1.06-1V486.21a.92.92,0,0,1,1.06-1h.6A.9.9,0,0,1,256.86,486.21Zm8.31-2.84v34.92a1.8,1.8,0,0,1-2,2h-4a1,1,0,0,1-1.11-1.14v-.6a1,1,0,0,1,1.11-1.1h3.35V483.37c0-.74.35-1.1,1.06-1.1h.55A1,1,0,0,1,265.17,483.37Z"/><path class="cls-2" d="M290.71,483.28v5.22q0,20-18,31.57a.91.91,0,0,1-1.48-.3l-.38-.51a1,1,0,0,1,.42-1.48A38.19,38.19,0,0,0,283.78,505a32.66,32.66,0,0,0,4.13-16.53v-5.22c0-.7.37-1.06,1.11-1.06h.59C290.35,482.22,290.71,482.58,290.71,483.28Zm17.7,9.63v.6a.94.94,0,0,1-1.06,1.06h-35.3a.93.93,0,0,1-1.06-1.06v-.6a.94.94,0,0,1,1.06-1.06h35.3A.94.94,0,0,1,308.41,492.91ZM291.9,494A30.25,30.25,0,0,0,297,507.23a39.2,39.2,0,0,0,11.18,10.5,1.05,1.05,0,0,1,.43,1.53l-.39.51a.93.93,0,0,1-1.48.34,42.61,42.61,0,0,1-12.24-11.62,31.41,31.41,0,0,1-5.37-14.18c-.11-.67.2-1.07.94-1.18l.59-.05A1,1,0,0,1,291.9,494Z"/><path class="cls-2" d="M351.17,508.15v.55c0,.7-.34,1.06-1,1.06H314.09a.92.92,0,0,1-1-1.06v-.55a.9.9,0,0,1,1-1h36.07A.9.9,0,0,1,351.17,508.15Zm-1.38-18.23a1.86,1.86,0,0,1,.49,1.38v5.56c0,.68-.35,1-1.06,1h-.51a.92.92,0,0,1-1.06-1V492h-31v4.88c0,.68-.36,1-1.07,1H315c-.71,0-1.07-.34-1.07-1V491.3a1.9,1.9,0,0,1,.49-1.38,2,2,0,0,1,1.42-.48h32.5A1.92,1.92,0,0,1,349.79,489.92ZM320.88,483l1.36,3.9a.92.92,0,0,1-.64,1.32l-.55.16a1,1,0,0,1-1.36-.63l-1.36-3.91a.91.91,0,0,1,.64-1.31l.59-.17A.92.92,0,0,1,320.88,483ZM344,497a.72.72,0,0,1,.36,1,4.58,4.58,0,0,1-1.34,1.57l-9.12,6.36v12.73a1.69,1.69,0,0,1-1.91,1.91H327.2a.9.9,0,0,1-1-1V519a.9.9,0,0,1,1-1h3.95V506a2,2,0,0,1,.63-1.48l7.68-5.22H321.05c-.68,0-1-.35-1-1.06v-.51c0-.71.34-1.06,1-1.06h20.87A4.49,4.49,0,0,1,344,497Zm-10.48-13.88v3.95a.93.93,0,0,1-1.06,1.06h-.59a.93.93,0,0,1-1.06-1.06v-3.95a.94.94,0,0,1,1.06-1.06h.59A.94.94,0,0,1,333.48,483.11Zm12.43.72-1.36,3.91a1,1,0,0,1-1.35.63l-.55-.16a.91.91,0,0,1-.64-1.32l1.36-3.9a.91.91,0,0,1,1.31-.64l.6.17A.91.91,0,0,1,345.91,483.83Z"/><path class="cls-2" d="M393.43,517.61v.59a.93.93,0,0,1-1.06,1.06H356.73a.93.93,0,0,1-1.06-1.06v-.59a.93.93,0,0,1,1.06-1.06h35.64A.93.93,0,0,1,393.43,517.61Zm-32.67-32.08v3.74h30.17a.94.94,0,0,1,1.06,1.06v.59a.94.94,0,0,1-1.06,1.06H360a2,2,0,0,1-1.48-.49,1.92,1.92,0,0,1-.51-1.46v-4.5c0-.7.36-1.06,1.1-1.06h.55A.94.94,0,0,1,360.76,485.53Zm29.79,18v.55a.94.94,0,0,1-1.06,1.06H359.62a.93.93,0,0,1-1.06-1.06v-.55c0-.73.35-1.1,1.06-1.1h29.87A1,1,0,0,1,390.55,503.52ZM376,483.2V517a.93.93,0,0,1-1.06,1.06h-.59a.93.93,0,0,1-1.06-1.06V483.2a.93.93,0,0,1,1.06-1.06h.59A.93.93,0,0,1,376,483.2Z"/><path class="cls-2" d="M402.94,490.88v8.87a45.83,45.83,0,0,1-2,13.74.83.83,0,0,1-1.23.68l-.6-.08a1,1,0,0,1-.72-1.36,43.08,43.08,0,0,0,1.91-13v-8.87a.9.9,0,0,1,1-1h.64A.9.9,0,0,1,402.94,490.88Zm8.23-3.69v29.4H425v-3.78a.94.94,0,0,1,1.06-1.06h.6a.94.94,0,0,1,1.06,1.06v4.59a1.78,1.78,0,0,1-2,2H410.45a2,2,0,0,1-1.49-.51,2,2,0,0,1-.51-1.44V487.19c0-.71.37-1.06,1.1-1.06h.56A.94.94,0,0,1,411.17,487.19Zm8.78-4.08,1.95,15.24a.91.91,0,0,1-.85,1.18h-.63a.91.91,0,0,1-1.19-.85l-1.91-15.23a.91.91,0,0,1,.85-1.18l.63,0A.91.91,0,0,1,420,483.11Zm13.75,7.77v8.87a42.2,42.2,0,0,0,1.9,12.94,1,1,0,0,1-.72,1.35l-.59.17a.94.94,0,0,1-.81,0,1,1,0,0,1-.42-.72,45,45,0,0,1-2-13.74v-8.87a.9.9,0,0,1,1-1h.64A.9.9,0,0,1,433.7,490.88Z"/><path class="cls-2" d="M459.11,502.72h.59a.93.93,0,0,1,1.06,1.06v2.71a10,10,0,0,1-2.33,6.3,17.74,17.74,0,0,1-6.66,5,31.35,31.35,0,0,1-9.89,2.61.92.92,0,0,1-1.14-.94V519a1,1,0,0,1,.93-1.18,28.14,28.14,0,0,0,8.79-2.12,14.86,14.86,0,0,0,5.66-4.08,8,8,0,0,0,1.93-5.09v-2.71A.93.93,0,0,1,459.11,502.72Zm15.55-18.67a1.87,1.87,0,0,1,.49,1.4v13.87a1.87,1.87,0,0,1-.49,1.38,1.85,1.85,0,0,1-1.38.49H444.05a.87.87,0,0,1-1-1v-.55a.87.87,0,0,1,1-1h28.38v-12.6H444.05a.88.88,0,0,1-1-1v-.51a.87.87,0,0,1,1-1h29.23A1.92,1.92,0,0,1,474.66,484.05Zm-28.13,20.19a1,1,0,0,1,.45.68l1.95,6.07a1,1,0,0,1-.72,1.31l-.6.09a1.24,1.24,0,0,1-.82,0,.89.89,0,0,1-.45-.66l-1.95-6.07a1,1,0,0,1,.72-1.31l.59-.09A1.07,1.07,0,0,1,446.53,504.24Zm27.26-12.13v.55a.82.82,0,0,1-.93.93H446.21a.82.82,0,0,1-.93-.93v-.55a.83.83,0,0,1,.93-.94h26.65A.83.83,0,0,1,473.79,492.11Zm-13.28,14.61a1.33,1.33,0,0,1,.42.79,9,9,0,0,0,2.46,4.65,16.27,16.27,0,0,0,5.65,3.73,26.67,26.67,0,0,0,8.1,1.89,1,1,0,0,1,.93,1.18v.51a.92.92,0,0,1-1.14.94,30.27,30.27,0,0,1-9.67-2.53,19.42,19.42,0,0,1-6.69-4.73,8.51,8.51,0,0,1-2.39-5.6.94.94,0,0,1,.14-.8,1,1,0,0,1,.79-.26h.59A1.32,1.32,0,0,1,460.51,506.72Zm13.92-1.08-2,6.07a.9.9,0,0,1-.44.66,1.27,1.27,0,0,1-.83,0l-.59-.09a1,1,0,0,1-.72-1.31l1.95-6.07a1,1,0,0,1,.44-.68,1.07,1.07,0,0,1,.83,0l.6.09A1,1,0,0,1,474.43,505.64Z"/><path class="cls-2" d="M494.83,489.77v.6a.93.93,0,0,1-1.06,1.06H483.55c-.74,0-1.1-.35-1.1-1.06v-.6c0-.7.36-1.06,1.1-1.06h10.22A.94.94,0,0,1,494.83,489.77Zm-8.82,6v5.56q0,4.27-.19,7.53a42,42,0,0,1-.83,6.26.78.78,0,0,1-1,.72l-.5-.13a.74.74,0,0,1-.68-1,39.49,39.49,0,0,0,.82-6.06c.13-2.1.2-4.54.2-7.34V495.8a.75.75,0,0,1,.84-.85h.47A.75.75,0,0,1,486,495.8Zm5.39-12.64v36.27c0,.68-.33,1-1,1h-.55c-.65,0-1-.34-1-1V483.16a.87.87,0,0,1,1-1h.55A.87.87,0,0,1,491.4,483.16ZM495,502l-.34.56a.91.91,0,0,1-1.4.33l-3-1.78a.89.89,0,0,1-.33-1.4l.33-.55a.88.88,0,0,1,1.4-.34l3,1.78A.88.88,0,0,1,495,502Zm11-16a1.91,1.91,0,0,1,.46,1.4v10.82a29.48,29.48,0,0,1-2.31,12.2,27.6,27.6,0,0,1-7,9.27.88.88,0,0,1-1.4-.13l-.34-.51c-.43-.48-.37-1,.17-1.44a27,27,0,0,0,4.79-5.33,19.83,19.83,0,0,0,2.76-6.21,31.58,31.58,0,0,0,.89-7.85v-10h-6.79a.94.94,0,0,1-1.06-1.07v-.55a.94.94,0,0,1,1.06-1.06h7.38A1.93,1.93,0,0,1,506,486Zm-6.62,6.11v6.11a32.11,32.11,0,0,0,.87,7.85,20.84,20.84,0,0,0,2.65,6.21,26.32,26.32,0,0,0,4.58,5.33,1,1,0,0,1,.13,1.44l-.38.51a.85.85,0,0,1-1.4,0,27.35,27.35,0,0,1-6.71-9.25,30.38,30.38,0,0,1-2.2-12.13v-6.11c0-.65.31-1,.93-1h.59A.85.85,0,0,1,499.42,492.11Zm22.36-2.76v.59c0,.71-.37,1.06-1.11,1.06H509.22a.93.93,0,0,1-1.06-1.06v-.59a.93.93,0,0,1,1.06-1.06h11.45C521.41,488.29,521.78,488.64,521.78,489.35Zm-9.93,7.26,1.82,12.21a.79.79,0,0,1-.76,1h-.51a.79.79,0,0,1-1-.76l-1.82-12.22a.84.84,0,0,1,.8-1h.51A.76.76,0,0,1,511.85,496.61Zm7.25-13.41v34.92a1.76,1.76,0,0,1-2,2h-3.65a1,1,0,0,1-1.1-1.1v-.64c0-.76.36-1.14,1.1-1.14h3v-34a.9.9,0,0,1,1-1h.59A.9.9,0,0,1,519.1,483.2Z"/><path class="cls-2" d="M531.49,504.92a108.5,108.5,0,0,1-4.07,13.92.93.93,0,0,1-1.36.63l-.55-.17a1,1,0,0,1-.64-1.4q1.27-3.3,2.27-6.81t1.72-6.68a.94.94,0,0,1,1.27-.8l.56.08A.89.89,0,0,1,531.49,504.92Zm-3.31-22,2.85,5.94a.91.91,0,0,1-.51,1.36l-.6.25a.86.86,0,0,1-1.31-.55l-2.85-5.9a.9.9,0,0,1,.51-1.35l.6-.26A.86.86,0,0,1,528.18,482.9Zm0,10.78,2.85,5.94a.91.91,0,0,1-.51,1.36l-.6.25a.86.86,0,0,1-1.31-.55l-2.85-5.9a.91.91,0,0,1,.51-1.36l.6-.25A.86.86,0,0,1,528.18,493.68Zm33.48-10a1.86,1.86,0,0,1,.51,1.44V518.5a2,2,0,0,1-.49,1.44,1.88,1.88,0,0,1-1.42.51h-3.82c-.68,0-1-.35-1-1.06v-.59a.9.9,0,0,1,1-1h3.1V485.83H537.86v33.69a.89.89,0,0,1-1,1h-.6a.89.89,0,0,1-1-1V485.11a1.94,1.94,0,0,1,.49-1.42,1.91,1.91,0,0,1,1.42-.49h23.13A2,2,0,0,1,561.66,483.67Zm-5.39,7.93v.51c0,.71-.34,1.06-1,1.06H542.14c-.68,0-1-.35-1-1.06v-.51c0-.71.34-1.06,1-1.06h13.11C555.93,490.54,556.27,490.89,556.27,491.6Zm-12.69,6.19h10.19a1.64,1.64,0,0,1,1.82,1.87V511a1.61,1.61,0,0,1-1.82,1.82H543.58a1.61,1.61,0,0,1-1.82-1.82V499.66A1.64,1.64,0,0,1,543.58,497.79Zm9.51,2.59H544.3v9.89h8.79Z"/><path class="cls-3" d="M122.13,367.72s-5.53,61.41-10.33,66.21S97,444.08,99,446.5s14.26-.56,16.77,0c0,0,92.21-1.25,100.65,0,0,0,6,.75,3.09-3.76s-11.08-6.49-12.78-9.58-8.11-15.34-9.73-41.83a5.56,5.56,0,0,1,2.85-5.2c4.68-2.62,12.93-8.5,10.83-16.6l-6-3.64s-5.22,10.33-7.75,9.83-1.34-17.12-1.34-17.12l-.45-26.8H126Z"/><path class="cls-4" d="M230.11,326.51a63.41,63.41,0,0,0-4.87-4.72,1.39,1.39,0,0,1-.34-1.68c2.32-4.55,2.84-9.13,1-13-3.89-8.33-17.2-10.53-31-5.67A1.41,1.41,0,0,1,193,300c.67-7.89-1.85-15.45-7.6-20.53-10.67-9.42-28.46-6.72-39.72,6a35.08,35.08,0,0,0-8,15.46,1.41,1.41,0,0,1-2.16.87,49.41,49.41,0,0,0-9.75-5c-15.89-6.09-31.75-3.27-35.41,6.29-2.68,7,1.91,15.67,10.8,22.2a1.41,1.41,0,0,1-.48,2.5,58.58,58.58,0,0,0-10.85,3.87c-15.42,7.2-25,19.21-21.48,26.82,3.13,6.7,15.43,7.74,28.85,3a1.42,1.42,0,0,1,1.9,1.32c0,5.37,1.57,9.55,4.86,11.45,6.35,3.67,16.89-2.38,25.13-13.77a1.42,1.42,0,0,1,2.46.3c1.48,3.55,3.71,5.93,6.55,6.57,4.88,1.1,10.35-3.25,14.47-10.66a1.42,1.42,0,0,1,2.32-.23,8.4,8.4,0,0,0,5.29,3.06c3.5.44,7-1.75,9.81-5.64a1.41,1.41,0,0,1,2.28,0c3.24,4.38,7.37,6.84,11.49,6.26a10.38,10.38,0,0,0,6.93-4.59,1.4,1.4,0,0,1,2.21-.07c.87,1.06,1.79,2.1,2.74,3.13,14.93,16,34.74,21.83,44.25,13S245,342.53,230.11,326.51Z"/><path class="cls-3" d="M121.64,435s-8.76,13.8-3.78,14.28,56.61-6.08,74.9-1.23,8-9.44,4.45-13.5a20.81,20.81,0,0,1-4.45-7.26"/><path class="cls-5" d="M150.74,309.76a30.25,30.25,0,0,1,13.51-22.17c1-.67.07-2.34-1-1.66a32.31,32.31,0,0,0-14.46,23.83c-.13,1.23,1.8,1.22,1.92,0Z"/><path class="cls-5" d="M179.52,288.41a46.65,46.65,0,0,1-10.33,40.19c-.81.93.55,2.29,1.36,1.36a48.69,48.69,0,0,0,10.82-42.06c-.26-1.2-2.12-.69-1.85.51Z"/><path class="cls-5" d="M107.18,369.12a12.25,12.25,0,0,1-.76-9.86c.41-1.17-1.45-1.67-1.85-.51a14.13,14.13,0,0,0,1,11.34c.59,1.08,2.24.11,1.65-1Z"/><path class="cls-5" d="M74.5,354.25a36.15,36.15,0,0,1,26.09-19.71c1.21-.21.7-2.06-.51-1.85a37.94,37.94,0,0,0-27.24,20.59c-.53,1.11,1.12,2.08,1.66,1Z"/><path class="cls-5" d="M200.07,351.45A41.34,41.34,0,0,0,224,367c1.2.27,1.72-1.58.51-1.85a39.34,39.34,0,0,1-22.79-14.68c-.73-1-2.4,0-1.66,1Z"/><path class="cls-5" d="M110.37,345.75a17.2,17.2,0,0,1,11.16-10.15,1,1,0,0,0-.51-1.85,19.21,19.21,0,0,0-12.5,11.49,1,1,0,0,0,.67,1.18,1,1,0,0,0,1.18-.67Z"/><path class="cls-5" d="M116.15,344.81a13.07,13.07,0,0,1,2.68-3.18,11.46,11.46,0,0,1,1.59-1.17,14.78,14.78,0,0,1,1.93-1,1,1,0,0,0,.35-1.31,1,1,0,0,0-1.31-.35,15.06,15.06,0,0,0-6.89,6,1,1,0,0,0,1.65,1Z"/><path class="cls-5" d="M101.37,306.69A43.52,43.52,0,0,1,129.83,314c1,.69,2-1,1-1.66a45.19,45.19,0,0,0-29.42-7.57c-1.22.12-1.23,2,0,1.92Z"/><path class="cls-5" d="M190,330.28a30.21,30.21,0,0,1,20.91-23.57,1,1,0,0,0-.51-1.85,32.12,32.12,0,0,0-22.26,24.91c-.2,1.2,1.65,1.72,1.86.51Z"/><path class="cls-5" d="M206.34,318.44a11.26,11.26,0,0,1,6.83-5.17,1,1,0,0,0-.51-1.85,13.18,13.18,0,0,0-8,6.05,1,1,0,0,0,1.66,1Z"/><path class="cls-5" d="M225.15,335.43c7.77,3.88,10.48,12.69,12.74,20.43a1,1,0,0,0,1.85-.51c-2.4-8.21-5.39-17.47-13.62-21.58-1.1-.55-2.08,1.1-1,1.66Z"/><path class="cls-6" d="M130.66,392.79c0,9-.53,18.5-4,26.91-.48,1.14,1.38,1.64,1.85.51,3.56-8.55,4.1-18.26,4.11-27.42a1,1,0,0,0-1.92,0Z"/><path class="cls-6" d="M183.67,365.23a34.13,34.13,0,0,0,.8,11.83,1,1,0,0,0,1.85-.51,32.44,32.44,0,0,1-.73-11.32,1,1,0,1,0-1.92,0Z"/><path class="cls-6" d="M143.1,372.21a114.56,114.56,0,0,1,.19,15.39c0,1.24,1.88,1.24,1.92,0a114.56,114.56,0,0,0-.19-15.39c-.12-1.21-2-1.23-1.92,0Z"/><polygon class="cls-7" points="175.3 417.34 143.52 414.01 144.85 396.04 176.97 398.78 175.3 417.34"/><path class="cls-8" d="M144.85,396c4.47,4.53,9,10.14,15.47,11.61-6.38-.38-12-6.72-15.47-11.61Z"/><path class="cls-8" d="M176.57,399.15c-4.2,4.25-9.94,8.9-16.25,8.53,6.28-.59,11.36-4.9,16.25-8.53Z"/><path class="cls-9" d="M166.1,408.68l-1.41,1.17h0a6.75,6.75,0,0,1-9.49-.89h0L154,407.54a3.08,3.08,0,0,1,.41-4.34h0a3.65,3.65,0,0,1,5.15.49h0a1.25,1.25,0,0,0,1.77.16h0a3.66,3.66,0,0,1,5.15.49h0A3.08,3.08,0,0,1,166.1,408.68Z"/><path d="M273,446.92a2,2,0,0,1-1.55.66h-1.31a2.25,2.25,0,0,1-2.27-2.27V361.13a2.15,2.15,0,0,1,.66-1.67,2.28,2.28,0,0,1,1.61-.6h1.31a2.09,2.09,0,0,1,1.55.6,2.26,2.26,0,0,1,.6,1.67v84.18A2.28,2.28,0,0,1,273,446.92Zm55.29-43.28H270.88v-5.49h57.43Zm2,43.28a2.15,2.15,0,0,1-1.67.66h-1.2a2.25,2.25,0,0,1-2.27-2.27V361.13a2.15,2.15,0,0,1,.66-1.67,2.3,2.3,0,0,1,1.61-.6h1.2a2.07,2.07,0,0,1,2.26,2.27v84.18A2.27,2.27,0,0,1,330.34,446.92Z"/><path d="M409.74,416.24a3.29,3.29,0,0,1-2.51.89h-1.91a33.15,33.15,0,0,0-3.58-15.88,24.54,24.54,0,0,0-9.61-10.09,26.38,26.38,0,0,0-13.2-3.4,29.48,29.48,0,0,0-14.5,3.46,24.25,24.25,0,0,0-9.74,9.85,32.91,32.91,0,0,0,0,29.38,24.48,24.48,0,0,0,9.8,9.91,29.64,29.64,0,0,0,14.68,3.52,28.81,28.81,0,0,0,15.11-4.12,27.32,27.32,0,0,0,10.44-11.05,2.61,2.61,0,0,1,1.26-.89,2.25,2.25,0,0,1,1.49.18l1.07.71a1.48,1.48,0,0,1,1.08,1.14,2,2,0,0,1-.36,1.49,33.16,33.16,0,0,1-12.54,12.78,34,34,0,0,1-17.55,4.77,34.39,34.39,0,0,1-17.25-4.29,30.54,30.54,0,0,1-11.82-11.88,36.16,36.16,0,0,1,0-34A30.35,30.35,0,0,1,361.86,387a34.2,34.2,0,0,1,17.07-4.24,31.23,31.23,0,0,1,14.87,3.65A30.15,30.15,0,0,1,405.14,397a35.15,35.15,0,0,1,5.2,16.66A3,3,0,0,1,409.74,416.24Zm-3.34.89h-57v-4.77h57Z"/><path d="M428.6,447a2.07,2.07,0,0,1-1.55.6h-1.31a2.06,2.06,0,0,1-2.15-2.15V359a2.1,2.1,0,0,1,.6-1.55,2.07,2.07,0,0,1,1.55-.6h1.31a2.07,2.07,0,0,1,1.55.6,2.1,2.1,0,0,1,.6,1.55v86.45A2.07,2.07,0,0,1,428.6,447Z"/><path d="M450,447a2.11,2.11,0,0,1-1.56.6h-1.31a2.06,2.06,0,0,1-2.15-2.15V359a2.06,2.06,0,0,1,2.15-2.15h1.31a2.11,2.11,0,0,1,1.56.6,2.14,2.14,0,0,1,.59,1.55v86.45A2.1,2.1,0,0,1,450,447Z"/><path d="M480.12,444.42a33.83,33.83,0,0,1-12.06-12.06,33.06,33.06,0,0,1,0-33.2,33.35,33.35,0,0,1,12.06-12,33.27,33.27,0,0,1,33.14,0,32.78,32.78,0,0,1,16.48,28.66,32,32,0,0,1-4.48,16.54,33.83,33.83,0,0,1-12.06,12.06,32.84,32.84,0,0,1-33.08,0Zm30.45-4.36A27.11,27.11,0,0,0,520.48,430a28,28,0,0,0,3.64-14.15,28.66,28.66,0,0,0-3.58-14.27,26.22,26.22,0,0,0-9.85-10,28.63,28.63,0,0,0-27.94,0,26.66,26.66,0,0,0-9.91,10,29.56,29.56,0,0,0,0,28.42,27.11,27.11,0,0,0,9.91,10.09,28,28,0,0,0,27.82,0Z"/><path d="M551,438.33a4.16,4.16,0,0,1,3-1h2.15a3.59,3.59,0,0,1,4.06,4.06v2.15a4.21,4.21,0,0,1-1,3,4,4,0,0,1-3,1.07H554a3.73,3.73,0,0,1-4.06-4.06v-2.15A4,4,0,0,1,551,438.33ZM557.2,428a2.1,2.1,0,0,1-1.55.6h-1.2a2.06,2.06,0,0,1-2.15-2.15l-.95-64.6a3.15,3.15,0,0,1,.71-2.27,3.11,3.11,0,0,1,2.27-.72h1.44a3.07,3.07,0,0,1,2.26.72,3.11,3.11,0,0,1,.72,2.27l-1,64.6A2.1,2.1,0,0,1,557.2,428Z"/><path class="cls-10" d="M108.47,649.12h908.06a50,50,0,0,1,50,50v1755a0,0,0,0,1,0,0H58.47a0,0,0,0,1,0,0v-1755A50,50,0,0,1,108.47,649.12Z"/><path d="M344.38,822.67v29.12h3.23a1.93,1.93,0,0,1,2.18,2.18v1.26a1.93,1.93,0,0,1-2.18,2.18h-4.68q-3.9,0-3.9-4V824.32h-3.3c-1.46,0-2.18-.7-2.18-2.11v-1.32c0-1.41.72-2.11,2.18-2.11h4.69C343.06,818.78,344.38,820.07,344.38,822.67Zm-1.45-22.58,4.75,9.57a1.84,1.84,0,0,1-.92,2.84l-1.13.53c-1.32.66-2.26.35-2.84-.92L338,802.53c-.66-1.32-.35-2.27.92-2.84l1.13-.59A1.88,1.88,0,0,1,342.93,800.09Zm51.24,21.06v.93c0,1.23-.59,1.85-1.78,1.85H352.1a1.63,1.63,0,0,1-1.84-1.85v-.93a1.63,1.63,0,0,1,1.84-1.85h40.29C393.58,819.3,394.17,819.92,394.17,821.15ZM393.25,804v1a1.61,1.61,0,0,1-1.85,1.79H353.1a1.61,1.61,0,0,1-1.85-1.79v-1a1.63,1.63,0,0,1,1.85-1.85h38.3A1.64,1.64,0,0,1,393.25,804Zm-1,8.59v1a1.53,1.53,0,0,1-1.72,1.72H354.09a1.52,1.52,0,0,1-1.72-1.72v-1a1.52,1.52,0,0,1,1.72-1.72h36.45A1.52,1.52,0,0,1,392.26,812.57Zm-1.59,18.29v24c0,2.38-1.19,3.56-3.57,3.56h-6.34a1.57,1.57,0,0,1-1.78-1.78v-.92a1.58,1.58,0,0,1,1.78-1.79h4.56V831.85H359.17v24.77a1.87,1.87,0,0,1-2.11,2.11h-1.13a1.87,1.87,0,0,1-2.11-2.11V830.86q0-3.5,3.57-3.5H387.1Q390.67,827.36,390.67,830.86ZM388,838.19v.93a1.58,1.58,0,0,1-1.78,1.78H358.31a1.57,1.57,0,0,1-1.78-1.78v-.93a1.57,1.57,0,0,1,1.78-1.78h27.94A1.57,1.57,0,0,1,388,838.19Zm0,8.85V848a1.58,1.58,0,0,1-1.78,1.79H358.31a1.58,1.58,0,0,1-1.78-1.79V847a1.57,1.57,0,0,1,1.78-1.78h27.94A1.57,1.57,0,0,1,388,847Zm-13-46.82V819.5a1.87,1.87,0,0,1-2.11,2.12h-1.26a1.87,1.87,0,0,1-2.11-2.12V800.22a1.86,1.86,0,0,1,2.11-2.11h1.26A1.87,1.87,0,0,1,375,800.22Z"/><path d="M421.58,843.21v1.19a1.82,1.82,0,0,1-2.05,2.05H401.76a1.87,1.87,0,0,1-2.11-2.12v-1.05a1.87,1.87,0,0,1,2.11-2.12h17.77A1.82,1.82,0,0,1,421.58,843.21Zm-8.79-42-7.59,25h13.87a1.81,1.81,0,0,1,2,2v1.05a1.81,1.81,0,0,1-2,2H403.55c-1.59,0-2.67-.39-3.24-1.16a4,4,0,0,1-.26-3.46l8.19-26.88a1.56,1.56,0,0,1,2.24-1.19l1.06.26A1.65,1.65,0,0,1,412.79,801.21Zm8.65,6.54v1.19a1.78,1.78,0,0,1-2,2h-17a1.84,1.84,0,0,1-2.12-2v-1.06a1.87,1.87,0,0,1,2.12-2.11h16.9A1.84,1.84,0,0,1,421.44,807.75ZM414.91,831v25.49a1.78,1.78,0,0,1-2.05,2H411.8a1.78,1.78,0,0,1-2-2V831a1.8,1.8,0,0,1,2-2h1.06A1.81,1.81,0,0,1,414.91,831Zm-.14-12.48v8.39a1.57,1.57,0,0,1-1.78,1.78h-1a1.55,1.55,0,0,1-1.72-1.78v-8.39a1.53,1.53,0,0,1,1.72-1.72h1A1.55,1.55,0,0,1,414.77,818.51Zm32.69-18.22a36,36,0,0,0,5.29,6.83,53.56,53.56,0,0,0,6.93,6,1.72,1.72,0,0,1,.46,2.71l-.66,1a1.66,1.66,0,0,1-2.64.4,59.3,59.3,0,0,1-7.2-6.28,47.1,47.1,0,0,1-5.81-7.13h-5.48a51.44,51.44,0,0,1-6.34,7.66,50.42,50.42,0,0,1-6.67,5.75,1.66,1.66,0,0,1-2.64-.4l-.66-1a1.72,1.72,0,0,1,.46-2.71,48.9,48.9,0,0,0,7-6.2,40.56,40.56,0,0,0,5.19-6.74,3.85,3.85,0,0,1,1.09-1,2.8,2.8,0,0,1,1.48-.43H445A2.82,2.82,0,0,1,447.46,800.29Zm-6.73,21a3.5,3.5,0,0,1,.86,2.57v31a3,3,0,0,1-3.44,3.43h-3c-1.14,0-1.71-.64-1.71-1.91v-1q0-1.92,1.71-1.92H437V825.25h-9v31.56a1.63,1.63,0,0,1-1.85,1.85h-1a1.63,1.63,0,0,1-1.85-1.85V823.86a3.39,3.39,0,0,1,.89-2.57,3.47,3.47,0,0,1,2.54-.86h11.49A3.48,3.48,0,0,1,440.73,821.29Zm-1.52,12v1a1.5,1.5,0,0,1-1.72,1.66h-10a1.49,1.49,0,0,1-1.71-1.66v-1q0-1.65,1.71-1.65h10C438.63,831.59,439.21,832.14,439.21,833.24Zm0,10.76v1.06c0,1.1-.58,1.65-1.72,1.65h-10q-1.71,0-1.71-1.65V844q0-1.65,1.71-1.65h10C438.63,842.35,439.21,842.9,439.21,844Zm9.9-30.64v1a1.63,1.63,0,0,1-1.85,1.85H434.92a1.63,1.63,0,0,1-1.85-1.85v-1a1.63,1.63,0,0,1,1.85-1.85h12.34A1.63,1.63,0,0,1,449.11,813.36Zm.8,10.9V847a1.46,1.46,0,0,1-1.65,1.65h-1a1.46,1.46,0,0,1-1.65-1.65V824.26a1.46,1.46,0,0,1,1.65-1.65h1A1.46,1.46,0,0,1,449.91,824.26Zm8.78-2.71v33.22a3.22,3.22,0,0,1-3.5,3.5h-4.1a1.75,1.75,0,0,1-2-2v-1.13a1.75,1.75,0,0,1,2-2h2.84V821.55a1.64,1.64,0,0,1,1.85-1.85h1.06A1.64,1.64,0,0,1,458.69,821.55Z"/><path d="M496.13,804.58A95.47,95.47,0,0,1,487.58,833a91.16,91.16,0,0,1-16.41,23.58,1.91,1.91,0,0,1-3.1,0l-.8-.79a2,2,0,0,1-.06-3.17A86.1,86.1,0,0,0,482.92,830a82.84,82.84,0,0,0,7.6-26.15A2.06,2.06,0,0,1,493,802l1.32.13A1.85,1.85,0,0,1,496.13,804.58Zm5.95-2.45a93.26,93.26,0,0,0,8.12,28.3,79.43,79.43,0,0,0,15.52,22.16,2,2,0,0,1-.07,3.17l-.79.79a1.92,1.92,0,0,1-3.11,0,92.23,92.23,0,0,1-16.31-23.48,97.91,97.91,0,0,1-8.65-28.23h-14.2a1.89,1.89,0,0,1-2.17-2.11v-1.32a1.9,1.9,0,0,1,2.17-2.12h16.18A3,3,0,0,1,502.08,802.13Z"/><path d="M548.73,800.25a2.12,2.12,0,0,1,0,1.55,209.41,209.41,0,0,1-13.27,31.44,1.58,1.58,0,0,1-1.25,1,1.48,1.48,0,0,1-1.46-.59l-.86-1.19a3.77,3.77,0,0,1-.79-1.68,3.63,3.63,0,0,1,.27-1.88q3.69-6.94,6.8-14.37t5.35-14.29a2.22,2.22,0,0,1,1-1.49,1.63,1.63,0,0,1,1.65,0l1.19.33A3.1,3.1,0,0,1,548.73,800.25ZM544.27,822v34.61a1.87,1.87,0,0,1-2.11,2.11h-1.25a1.87,1.87,0,0,1-2.12-2.11V822a1.87,1.87,0,0,1,2.12-2.11h1.25A1.86,1.86,0,0,1,544.27,822Zm15.26,3.7q-.4,7-1.22,13.27t-1.82,10.5a1.85,1.85,0,0,1-2.51,1.59l-1.12-.2a1.91,1.91,0,0,1-1.65-2.51,145.41,145.41,0,0,0,3-22.85c.08-1.41.79-2.09,2.11-2l1.12.07C558.93,823.57,559.62,824.3,559.53,825.71Zm1.39-25.16v4.36h26.94a4,4,0,0,1,2.81,1,3.64,3.64,0,0,1,1,2.8v7.4a1.87,1.87,0,0,1-2.11,2.11h-1.26a1.86,1.86,0,0,1-2.11-2.11v-6H559.33a3.92,3.92,0,0,1-2.84-1,3.73,3.73,0,0,1-1-2.81v-5.74a1.84,1.84,0,0,1,2.11-2h1.26A1.82,1.82,0,0,1,560.92,800.55Zm13.86,18.09v35.53a3.88,3.88,0,0,1-1,2.91,4.05,4.05,0,0,1-2.94,1h-5.94a1.84,1.84,0,0,1-2.12-2.05v-1.25a1.88,1.88,0,0,1,2.12-2.12h4.42v-34a1.87,1.87,0,0,1,2.12-2.11h1.25A1.87,1.87,0,0,1,574.78,818.64Zm14.73,6.94q.39,6.79,1.16,12.78a84,84,0,0,0,1.75,9.93,1.9,1.9,0,0,1-1.52,2.58l-1.19.2a1.82,1.82,0,0,1-2.45-1.59,148.9,148.9,0,0,1-3-23.84q-.13-2,2-2l1.12-.14A2,2,0,0,1,589.51,825.58Z"/><path d="M601.92,807a4,4,0,0,1,3-1h17a3.59,3.59,0,0,1,4,4v43.32a4,4,0,0,1-1,3,4.05,4.05,0,0,1-2.94,1h-17a3.5,3.5,0,0,1-4-4V809.93A4.05,4.05,0,0,1,601.92,807Zm21.27,23.28v1.19a1.92,1.92,0,0,1-2.18,2.17H605.82a1.92,1.92,0,0,1-2.18-2.17v-1.19a1.93,1.93,0,0,1,2.18-2.18H621A1.93,1.93,0,0,1,623.19,830.27Zm-2.71-18.76h-14.2v40.15h14.2Zm-4.36-11v6.07a1.87,1.87,0,0,1-2.11,2.12h-1.26a1.87,1.87,0,0,1-2.11-2.12v-6.07a1.86,1.86,0,0,1,2.11-2.11H614A1.86,1.86,0,0,1,616.12,800.55Zm20.28.07v3.56h16.31a3.7,3.7,0,0,1,4.09,4.1v45.23a4.06,4.06,0,0,1-1.06,3.07,4.18,4.18,0,0,1-3,1h-6.54a2,2,0,0,1-2.18-2.25v-1.25a2,2,0,0,1,2.18-2.25h5.08V810H634.94a3.61,3.61,0,0,1-4.09-4.09v-5.28a1.93,1.93,0,0,1,2.18-2.18h1.19A1.93,1.93,0,0,1,636.4,800.62Zm1.09,19.25a2.16,2.16,0,0,1,.89,1.42l5.35,17.17a1.88,1.88,0,0,1-1.59,2.5l-1.12.4a2.29,2.29,0,0,1-1.72-.1,2,2,0,0,1-.79-1.42l-5.42-17.17a1.94,1.94,0,0,1,1.59-2.51l1.12-.39A2.2,2.2,0,0,1,637.49,819.87Z"/><path d="M684.8,808.54a3.85,3.85,0,0,1,1,2.84V823.6a39.13,39.13,0,0,1-4.46,19.15A48.08,48.08,0,0,1,668,857.67a1.68,1.68,0,0,1-2.77-.46l-.73-1.06c-.75-1.1-.53-2.07.66-2.9a49.76,49.76,0,0,0,8.79-8.42,31.14,31.14,0,0,0,5.15-9.48,37.21,37.21,0,0,0,1.71-11.75V813.1H665.65a1.93,1.93,0,0,1-2.18-2.18v-1.19a1.93,1.93,0,0,1,2.18-2.18H682A3.85,3.85,0,0,1,684.8,808.54Zm-9.71-7.79-4.16,31.17,17.31,21.46a1.88,1.88,0,0,1-.14,2.91l-.92.79c-.93.92-1.83.86-2.71-.2L666.71,835a3.88,3.88,0,0,1-.86-2.9l4.29-32a1.65,1.65,0,0,1,2.18-1.65l1,.06A1.83,1.83,0,0,1,675.09,800.75Zm50,53.49v1.19a1.84,1.84,0,0,1-2,2.11h-31.7a1.87,1.87,0,0,1-2.11-2.11v-1.19a1.84,1.84,0,0,1,2.11-2H723A1.81,1.81,0,0,1,725.08,854.24Zm-30-50.85v5.41h27.28a1.81,1.81,0,0,1,2,2.05V812a1.83,1.83,0,0,1-2,2.11H693.72a3.46,3.46,0,0,1-3.83-3.83v-6.93a1.81,1.81,0,0,1,2-2h1.13A1.81,1.81,0,0,1,695.1,803.39Zm28.14,27.87v1.19a1.84,1.84,0,0,1-2,2.11H693.25a1.87,1.87,0,0,1-2.11-2.11v-1.19a1.84,1.84,0,0,1,2.11-2h27.94A1.81,1.81,0,0,1,723.24,831.26Zm-13-30.71v52.1c0,1.46-.7,2.18-2.11,2.18H707a1.93,1.93,0,0,1-2.18-2.18v-52.1a1.93,1.93,0,0,1,2.18-2.18h1.19A1.9,1.9,0,0,1,710.29,800.55Z"/><path d="M742,798.67a1.31,1.31,0,0,1,.5,1.22v1.78h39.16c2,0,3.43.51,4.22,1.52s.91,2.47.33,4.36a27.85,27.85,0,0,1-6.5,11.56A27.39,27.39,0,0,1,767.88,826a63,63,0,0,1-18.49,2.32H733.74a1.88,1.88,0,0,1-2.12-2.12V825a1.87,1.87,0,0,1,2.12-2.11h15.65a64,64,0,0,0,16.08-1.68,22.77,22.77,0,0,0,9.93-5.12,20.79,20.79,0,0,0,5.42-9H741a3.84,3.84,0,0,1-2.91-1,4,4,0,0,1-1-2.87V800c0-1.06.71-1.59,2.12-1.59h1.19A3.25,3.25,0,0,1,742,798.67Zm-5.35,35.56a4.07,4.07,0,0,1,2.94-1h42a4.05,4.05,0,0,1,2.94,1,4,4,0,0,1,1,3v16.64a3.57,3.57,0,0,1-4,4h-42a3.57,3.57,0,0,1-4-4V837.2A4,4,0,0,1,736.67,834.23ZM780,838.59H741.2v13.8H780Zm-26.88-28.27,4.42,6.28a1.86,1.86,0,0,1-.46,2.9l-1.05.79a1.87,1.87,0,0,1-2.91-.46l-4.42-6.27a1.87,1.87,0,0,1,.46-2.91l1-.79A1.87,1.87,0,0,1,753.15,810.32Z"/><rect class="cls-11" x="478.86" y="1788.53" width="196.5" height="92.82" rx="46.41"/><path class="cls-10" d="M607.24,1833.11l-18.19-16.91a2.5,2.5,0,0,0-3.53.12h0a2.5,2.5,0,0,0,.13,3.54l13.53,12.58H549a2.5,2.5,0,1,0,0,5h50.18L585.65,1850a2.5,2.5,0,1,0,3.4,3.66l18.19-16.91A2.49,2.49,0,0,0,607.24,1833.11Z"/><rect class="cls-12" x="295.17" y="1285.58" width="564.21" height="126.19" rx="63.09"/><path d="M511.07,1329.37a4,4,0,0,1,1,3,34.94,34.94,0,0,1-2,11.47,16.41,16.41,0,0,1,2.25,5.65,16.15,16.15,0,0,1,0,6,14.26,14.26,0,0,1-2.07,5.27,1.58,1.58,0,0,1-2.61.72l-1-.63A2,2,0,0,1,506,1358a13.94,13.94,0,0,0,1.46-4.3,8.35,8.35,0,0,0-2.14-7.13,2.78,2.78,0,0,1-.54-3,29.93,29.93,0,0,0,2.25-9.67h-4.36v32.8a1.75,1.75,0,0,1-2,2h-1.08a1.75,1.75,0,0,1-2-2v-34.51a3.38,3.38,0,0,1,3.78-3.78H508A4.19,4.19,0,0,1,511.07,1329.37Zm7.69,28.28a55.29,55.29,0,0,1-2.21,8.15A1.74,1.74,0,0,1,514,1367l-1.08-.36a1.85,1.85,0,0,1-1.21-2.65q.7-2.16,1.26-4.26a24.07,24.07,0,0,0,.62-2.9,1.87,1.87,0,0,1,2.39-1.71l1.08.18A1.81,1.81,0,0,1,518.76,1357.65Zm19.62-24.48v1.13a1.78,1.78,0,0,1-2,2H514.84a1.82,1.82,0,0,1-2.06-2.07v-1a1.82,1.82,0,0,1,2.06-2.07h21.52A1.78,1.78,0,0,1,538.38,1333.17Zm-12.78-2.92-6.21,16.2H535.5a1.79,1.79,0,0,1,2,2v1.13a1.79,1.79,0,0,1-2,2H517.28c-1.78,0-3-.43-3.56-1.28s-.59-2.12,0-3.8l7-18.18a1.77,1.77,0,0,1,2.61-1.17l1.08.45A1.77,1.77,0,0,1,525.6,1330.25Zm3.24,12.1v22.05a3.94,3.94,0,0,1-1,2.88,3.87,3.87,0,0,1-2.9,1h-3.06a1.91,1.91,0,0,1-2.16-2.16v-1.17a1.91,1.91,0,0,1,2.16-2.16h1.62v-20.43a1.83,1.83,0,0,1,2.07-2.07h1.17A1.83,1.83,0,0,1,528.84,1342.35Zm8.28,14.49A62,62,0,0,0,539,1364a1.79,1.79,0,0,1-1.17,2.61l-1.08.36a1.75,1.75,0,0,1-2.61-1.17q-.81-2.47-1.44-4.81a29.33,29.33,0,0,1-.76-3.38,1.8,1.8,0,0,1,1.71-2.34l1.08-.18A1.86,1.86,0,0,1,537.12,1356.84Z"/><path d="M546.43,1342.35v5q0,4.18-.15,7.94c-.11,2.51-.29,4.92-.57,7.23a1.35,1.35,0,0,1-1.75,1.39l-.9-.09a1.5,1.5,0,0,1-1.39-1.84q.39-3.29.56-6.93t.15-7.7v-5a1.39,1.39,0,0,1,1.58-1.57h.9A1.39,1.39,0,0,1,546.43,1342.35Zm8.82-7.06v1.17a1.86,1.86,0,0,1-2.11,2.11h-9.31a1.87,1.87,0,0,1-2.12-2.11v-1.17a1.87,1.87,0,0,1,2.12-2.12h9.31A1.87,1.87,0,0,1,555.25,1335.29Zm-2.25-6.12v37.08a1.7,1.7,0,0,1-1.93,1.93H550a1.71,1.71,0,0,1-1.94-1.93v-37.08a1.72,1.72,0,0,1,1.94-1.94h1.08A1.71,1.71,0,0,1,553,1329.17Zm2.57,19.08-.63,1a1.9,1.9,0,0,1-2.93.72l-1.12-.72a1.86,1.86,0,0,1-.77-2.88l.63-1a1.9,1.9,0,0,1,2.93-.72l1.12.72A1.85,1.85,0,0,1,555.57,1348.25Zm11.93-17a3.74,3.74,0,0,1,.94,2.77v10.48a34.3,34.3,0,0,1-2.3,13.1,28.73,28.73,0,0,1-6.93,10,1.61,1.61,0,0,1-2.7-.27l-.63-.9a2,2,0,0,1,.28-3,26.07,26.07,0,0,0,4.34-5.27,20.64,20.64,0,0,0,2.41-6,34.38,34.38,0,0,0,.76-7.65v-8.77h-5.58a1.88,1.88,0,0,1-2.12-2.12v-1.17a1.87,1.87,0,0,1,2.12-2.11h6.66A3.76,3.76,0,0,1,567.5,1331.26Zm-6.26,7.94v5.31a36,36,0,0,0,.74,7.7,21.07,21.07,0,0,0,2.32,6,26.85,26.85,0,0,0,4.09,5.26,2,2,0,0,1,.23,2.93l-.72.9a1.62,1.62,0,0,1-2.74.13,30.26,30.26,0,0,1-6.51-10,35.25,35.25,0,0,1-2.18-13v-5.31a1.67,1.67,0,0,1,1.89-1.89h1A1.67,1.67,0,0,1,561.24,1339.2Zm22.5-4.09v1.17a1.87,1.87,0,0,1-2.12,2.11h-9.94a1.86,1.86,0,0,1-2.11-2.11v-1.17a1.87,1.87,0,0,1,2.11-2.12h9.94A1.87,1.87,0,0,1,583.74,1335.11Zm-9.58,8.41,1.08,11.43a1.52,1.52,0,0,1-1.58,1.85l-.9.09a1.51,1.51,0,0,1-1.84-1.58l-1.09-11.43a1.52,1.52,0,0,1,1.58-1.84l.9-.09A1.52,1.52,0,0,1,574.16,1343.52Zm7.51-14.22v34.79q0,4-4,4.05h-3.15a2,2,0,0,1-2.3-2.3v-1.26a2,2,0,0,1,2.3-2.29h1.89v-33a1.83,1.83,0,0,1,2.07-2.07h1.17A1.83,1.83,0,0,1,581.67,1329.3Z"/><path d="M594.67,1353q-1.57,7.29-3.46,13.32a1.86,1.86,0,0,1-2.66,1.35l-1.08-.36a2,2,0,0,1-1.35-2.7q1-3.37,1.94-6.82c.6-2.29,1.06-4.25,1.4-5.87a1.86,1.86,0,0,1,2.51-1.62l1.08.18A1.87,1.87,0,0,1,594.67,1353Zm-2.88-24.66,2.08,4.68a1.81,1.81,0,0,1-1.13,2.66l-1.08.54a1.81,1.81,0,0,1-2.66-1.13l-2.07-4.68a1.8,1.8,0,0,1,1.13-2.65l1.08-.54A1.8,1.8,0,0,1,591.79,1328.31Zm0,11.7,2.08,4.68a1.81,1.81,0,0,1-1.13,2.66l-1.08.54a1.81,1.81,0,0,1-2.66-1.13l-2.07-4.68a1.8,1.8,0,0,1,1.13-2.65l1.08-.54A1.8,1.8,0,0,1,591.79,1340Zm34.54-11.18a3.78,3.78,0,0,1,1,2.81v33a3.4,3.4,0,0,1-3.78,3.78H620a1.83,1.83,0,0,1-2.07-2.07v-1.12a1.83,1.83,0,0,1,2.07-2.07h2.12v-30.06H602.55v33.43a1.83,1.83,0,0,1-2.07,2.07H599.4a1.83,1.83,0,0,1-2.07-2.07v-34.92a3.4,3.4,0,0,1,3.78-3.78h22.41A3.78,3.78,0,0,1,626.33,1328.83Zm-6.19,9.07V1339a1.78,1.78,0,0,1-2,2H606.51a1.78,1.78,0,0,1-2-2v-1.08a1.79,1.79,0,0,1,2-2h11.61A1.79,1.79,0,0,1,620.14,1337.9Zm-11.6,6.07h7.55q3.61,0,3.61,3.6v9.72q0,3.6-3.61,3.6h-7.55q-3.62,0-3.61-3.6v-9.72Q604.93,1344,608.54,1344Zm6.21,5h-4.87v6.84h4.87Z"/></svg>