<svg id="图层_1" data-name="图层 1" xmlns="http://www.w3.org/2000/svg" xmlns:xlink="http://www.w3.org/1999/xlink" viewBox="0 0 1125 2436"><defs><style>.cls-1{opacity:0.4;fill:url(#未命名的渐变_10);}.cls-2{fill:#1a1a1a;}.cls-3{fill:#7c5e45;stroke:#172c1d;}.cls-3,.cls-4{stroke-miterlimit:10;stroke-width:2.3px;}.cls-4{fill:#d3e98b;stroke:#37583d;}.cls-5{fill:#97b76c;}.cls-6{fill:#172c1d;}.cls-7{fill:#def0fd;}.cls-8{fill:#d2e2f2;}.cls-9{fill:#eb696a;}.cls-10{fill:#fff;}.cls-11,.cls-12{fill:#f93;}.cls-11{stroke:#f93;stroke-linecap:round;stroke-linejoin:round;stroke-width:1.23px;}.cls-12{opacity:0.1;}.cls-13{fill:#4d4d4d;}</style><linearGradient id="未命名的渐变_10" x1="562.5" y1="-65.19" x2="562.5" y2="2440.8" gradientUnits="userSpaceOnUse"><stop offset="0" stop-color="#f93"/><stop offset="0.98" stop-color="#fc9" stop-opacity="0"/></linearGradient></defs><rect class="cls-1" x="-17.4" y="-20.02" width="1159.81" height="2474.18"/><path class="cls-2" d="M115.36,486.8v7.3a32,32,0,0,1-1.57,10.46,25.79,25.79,0,0,1-4.35,8,42.1,42.1,0,0,1-6.77,6.49.88.88,0,0,1-1.44-.17l-.38-.6a.92.92,0,0,1,.25-1.44,39.9,39.9,0,0,0,6.28-6,22.59,22.59,0,0,0,3.93-7.2,29.64,29.64,0,0,0,1.38-9.48v-6.49H102.42a1,1,0,0,1-1.1-1.1V486c0-.77.36-1.15,1.1-1.15h11A1.76,1.76,0,0,1,115.36,486.8ZM105.05,494a28.73,28.73,0,0,0,1.51,9,25.38,25.38,0,0,0,3.73,7.09,30.43,30.43,0,0,0,5.45,5.49,1,1,0,0,1,.13,1.49l-.34.59a.9.9,0,0,1-1.44.09,33.38,33.38,0,0,1-8.47-10.23A29.32,29.32,0,0,1,102.38,494a.9.9,0,0,1,1-1.06H104A.94.94,0,0,1,105.05,494Zm24,1.14v4a24.69,24.69,0,0,1-10.77,21.13,1,1,0,0,1-1.49-.21l-.34-.56a1,1,0,0,1,.26-1.48,21.73,21.73,0,0,0,9.63-18.88v-4a.93.93,0,0,1,1.06-1.06H128A.93.93,0,0,1,129.06,495.12Zm-7-11.84v3.86h14.12a1.77,1.77,0,0,1,2,2v4.71c0,.71-.37,1.06-1.1,1.06h-.6a.93.93,0,0,1-1.06-1.06v-4H121.3a1.72,1.72,0,0,1-2-1.95v-4.63a.94.94,0,0,1,1.06-1.06h.64A.94.94,0,0,1,122.11,483.28Zm7,16.89a21.92,21.92,0,0,0,2.5,9.84,24,24,0,0,0,7.26,8,.94.94,0,0,1,.21,1.48l-.34.56a.9.9,0,0,1-1.44.21A27.82,27.82,0,0,1,129,511a23.5,23.5,0,0,1-2.65-10.74c0-.73.31-1.1,1-1.1H128A1,1,0,0,1,129.11,500.17Z"/><path class="cls-2" d="M149.22,514.59,145,519.43a.9.9,0,0,1-1.4.09l-.5-.43a.87.87,0,0,1,0-1.4l4.2-4.83a1,1,0,0,1,1.45-.09l.51.42A.88.88,0,0,1,149.22,514.59Zm.25-18.49a1.86,1.86,0,0,1,.51,1.44V511a7.44,7.44,0,0,0,.66,3.22,5.07,5.07,0,0,0,1.89,2.19,5.17,5.17,0,0,0,2.84.78H181a.9.9,0,0,1,1,1v.64a.9.9,0,0,1-1,1H155.37a7.41,7.41,0,0,1-4.09-1.19,8.07,8.07,0,0,1-2.89-3.23,9.66,9.66,0,0,1-1-4.45V498.26h-3.52a.9.9,0,0,1-1-1v-.59a.9.9,0,0,1,1-1h4.24A2,2,0,0,1,149.47,496.1ZM148,483.33l2.67,6.49a.9.9,0,0,1-.59,1.31l-.55.26a.86.86,0,0,1-1.28-.6l-2.67-6.49a.9.9,0,0,1,.6-1.31l.55-.26A.85.85,0,0,1,148,483.33Zm16.8-.47.09.51a1,1,0,0,1-.73,1.36l-6.53,1.65v21.55h5.77a.9.9,0,0,1,1,1v.6a.9.9,0,0,1-1,1h-6.49a2,2,0,0,1-1.4-.46,1.87,1.87,0,0,1-.51-1.45V485.83a1.84,1.84,0,0,1,.38-1.19,2.22,2.22,0,0,1,1-.68l7.09-1.86A.92.92,0,0,1,164.83,482.86Zm14.81,1.19a1.86,1.86,0,0,1,.51,1.44v23.16a1.7,1.7,0,0,1-1.91,1.91h-4a.9.9,0,0,1-1-1V509a.9.9,0,0,1,1-1h3.23V486.21h-7.47v27.28a.9.9,0,0,1-1,1h-.59a.9.9,0,0,1-1-1v-28a1.93,1.93,0,0,1,.47-1.42,1.89,1.89,0,0,1,1.44-.49h8.91A2,2,0,0,1,179.64,484.05Z"/><path class="cls-2" d="M199.58,502.76a1.08,1.08,0,0,1,0,.8,25.36,25.36,0,0,1-4.41,8.81,30.3,30.3,0,0,1-7.38,6.81.92.92,0,0,1-1.45-.26l-.34-.51a1,1,0,0,1,.3-1.48,31.27,31.27,0,0,0,6.85-6.41A20.86,20.86,0,0,0,197,503a1,1,0,0,1,1.32-.76l.59.08A1,1,0,0,1,199.58,502.76Zm24.14-.94v.6a.9.9,0,0,1-1,1H187a.9.9,0,0,1-1-1v-.6a.92.92,0,0,1,1-1.06H222.7A.92.92,0,0,1,223.72,501.82Zm-1.4-14.51v.6a.9.9,0,0,1-1,1H188.38a.9.9,0,0,1-1-1v-.6a.9.9,0,0,1,1-1H221.3A.9.9,0,0,1,222.32,487.31ZM194,491.9l1.57,5.26a.89.89,0,0,1-.72,1.23l-.6.12a.85.85,0,0,1-1.23-.67l-1.57-5.27a.93.93,0,0,1,.72-1.27l.56-.08A.89.89,0,0,1,194,491.9Zm12.22-8.79v36.41a1,1,0,0,1-1.06,1.1h-.6a1,1,0,0,1-1.06-1.1V483.11a.94.94,0,0,1,1.06-1.06h.6A.94.94,0,0,1,206.2,483.11ZM212.69,503a21.81,21.81,0,0,0,4,7.81,29.57,29.57,0,0,0,6.68,6.15,1,1,0,0,1,.3,1.48l-.34.51a.92.92,0,0,1-1.45.26,34.84,34.84,0,0,1-7.53-7.11,23.44,23.44,0,0,1-4.26-8.51,1.08,1.08,0,0,1,0-.8,1,1,0,0,1,.68-.47l.59-.08C212,502,212.46,502.26,212.69,503Zm5.52-10.4-1.57,5.27a.86.86,0,0,1-1.24.67l-.59-.12a.89.89,0,0,1-.72-1.23l1.57-5.26a.88.88,0,0,1,1.27-.68l.55.08A1,1,0,0,1,218.21,492.57Z"/><path class="cls-2" d="M250.83,518.12v.55a.94.94,0,0,1-1.06,1.06H229.36a.94.94,0,0,1-1.06-1.06v-.55a.94.94,0,0,1,1.06-1.06h20.41A.93.93,0,0,1,250.83,518.12Zm-.55-33.69V485c0,.68-.35,1-1.06,1H229.87a.9.9,0,0,1-1-1v-.59a.9.9,0,0,1,1-1h19.35C249.93,483.41,250.28,483.75,250.28,484.43ZM250,507.3v.55c0,.71-.36,1.06-1.1,1.06H230.21c-.73,0-1.1-.35-1.1-1.06v-.55c0-.71.37-1.06,1.1-1.06h18.67C249.62,506.24,250,506.59,250,507.3Zm-10.6-21-6.41,10H246.8v-3a.9.9,0,0,1,1-1h.64a.9.9,0,0,1,1,1V497a1.87,1.87,0,0,1-.48,1.4,1.93,1.93,0,0,1-1.38.46h-16q-1.7,0-2.1-.72c-.27-.48-.1-1.2.49-2.16l7.13-11.07a.88.88,0,0,1,1.4-.34l.51.34A.89.89,0,0,1,239.38,486.3Zm1.52,15.82v15.19a.93.93,0,0,1-1.06,1.06h-.63a.93.93,0,0,1-1.06-1.06V502.12a.93.93,0,0,1,1.06-1.06h.63A.93.93,0,0,1,240.9,502.12Zm16-15.91v24.65a.9.9,0,0,1-1,1h-.6a.92.92,0,0,1-1.06-1V486.21a.92.92,0,0,1,1.06-1h.6A.9.9,0,0,1,256.86,486.21Zm8.31-2.84v34.92a1.8,1.8,0,0,1-2,2h-4a1,1,0,0,1-1.11-1.14v-.6a1,1,0,0,1,1.11-1.1h3.35V483.37c0-.74.35-1.1,1.06-1.1h.55A1,1,0,0,1,265.17,483.37Z"/><path class="cls-2" d="M290.71,483.28v5.22q0,20-18,31.57a.91.91,0,0,1-1.48-.3l-.38-.51a1,1,0,0,1,.42-1.48A38.19,38.19,0,0,0,283.78,505a32.76,32.76,0,0,0,4.13-16.53v-5.22c0-.7.37-1.06,1.11-1.06h.59C290.35,482.22,290.71,482.58,290.71,483.28Zm17.7,9.63v.6a.94.94,0,0,1-1.06,1.06h-35.3a.93.93,0,0,1-1.06-1.06v-.6a.94.94,0,0,1,1.06-1.06h35.3A.94.94,0,0,1,308.41,492.91ZM291.9,494A30.25,30.25,0,0,0,297,507.23a39.2,39.2,0,0,0,11.18,10.5,1.05,1.05,0,0,1,.43,1.53l-.39.51a.93.93,0,0,1-1.48.34,42.61,42.61,0,0,1-12.24-11.62,31.41,31.41,0,0,1-5.37-14.18c-.11-.67.2-1.07.94-1.18l.59-.05A1,1,0,0,1,291.9,494Z"/><path class="cls-2" d="M351.17,508.15v.55c0,.7-.34,1.06-1,1.06H314.09a.92.92,0,0,1-1-1.06v-.55a.9.9,0,0,1,1-1h36.07A.9.9,0,0,1,351.17,508.15Zm-1.38-18.23a1.86,1.86,0,0,1,.49,1.38v5.56c0,.68-.35,1-1.06,1h-.51a.92.92,0,0,1-1.06-1V492h-31v4.88c0,.68-.36,1-1.07,1H315c-.71,0-1.07-.34-1.07-1V491.3a1.9,1.9,0,0,1,.49-1.38,2,2,0,0,1,1.42-.48h32.5A1.92,1.92,0,0,1,349.79,489.92ZM320.88,483l1.36,3.9a.92.92,0,0,1-.64,1.32l-.55.16a1,1,0,0,1-1.36-.63l-1.36-3.91a.91.91,0,0,1,.64-1.31l.59-.17A.92.92,0,0,1,320.88,483ZM344,497a.72.72,0,0,1,.36,1,4.58,4.58,0,0,1-1.34,1.57l-9.12,6.36v12.73a1.69,1.69,0,0,1-1.91,1.91H327.2a.9.9,0,0,1-1-1V519a.9.9,0,0,1,1-1h3.95V506a2,2,0,0,1,.63-1.48l7.68-5.22H321.05c-.68,0-1-.35-1-1.06v-.51c0-.71.34-1.06,1-1.06h20.87A4.49,4.49,0,0,1,344,497Zm-10.48-13.88v3.95a.93.93,0,0,1-1.06,1.06h-.59a.93.93,0,0,1-1.06-1.06v-3.95a.94.94,0,0,1,1.06-1.06h.59A.94.94,0,0,1,333.48,483.11Zm12.43.72-1.36,3.91a1,1,0,0,1-1.35.63l-.55-.16a.91.91,0,0,1-.64-1.32l1.36-3.9a.91.91,0,0,1,1.31-.64l.6.17A.91.91,0,0,1,345.91,483.83Z"/><path class="cls-2" d="M393.43,517.61v.59a.93.93,0,0,1-1.06,1.06H356.73a.93.93,0,0,1-1.06-1.06v-.59a.93.93,0,0,1,1.06-1.06h35.64A.93.93,0,0,1,393.43,517.61Zm-32.67-32.08v3.74h30.17a.94.94,0,0,1,1.06,1.06v.59a.94.94,0,0,1-1.06,1.06H360a2,2,0,0,1-1.48-.49,1.92,1.92,0,0,1-.51-1.46v-4.5c0-.7.36-1.06,1.1-1.06h.55A.94.94,0,0,1,360.76,485.53Zm29.79,18v.55a.94.94,0,0,1-1.06,1.06H359.62a.93.93,0,0,1-1.06-1.06v-.55c0-.73.35-1.1,1.06-1.1h29.87A1,1,0,0,1,390.55,503.52ZM376,483.2V517a.93.93,0,0,1-1.06,1.06h-.59a.93.93,0,0,1-1.06-1.06V483.2a.93.93,0,0,1,1.06-1.06h.59A.93.93,0,0,1,376,483.2Z"/><path class="cls-2" d="M402.94,490.88v8.87a45.83,45.83,0,0,1-2,13.74.83.83,0,0,1-1.23.68l-.6-.08a1,1,0,0,1-.72-1.36,43.08,43.08,0,0,0,1.91-13v-8.87a.9.9,0,0,1,1-1h.64A.9.9,0,0,1,402.94,490.88Zm8.23-3.69v29.4H425v-3.78a.94.94,0,0,1,1.06-1.06h.59a1,1,0,0,1,1.07,1.06v4.59a1.78,1.78,0,0,1-2,2H410.45a2,2,0,0,1-1.49-.51,2,2,0,0,1-.51-1.44V487.19c0-.71.37-1.06,1.1-1.06h.56A.94.94,0,0,1,411.17,487.19Zm8.78-4.08,1.95,15.24a.91.91,0,0,1-.85,1.18h-.63a.91.91,0,0,1-1.19-.85l-1.91-15.23a.91.91,0,0,1,.85-1.18l.63,0A.91.91,0,0,1,420,483.11Zm13.75,7.77v8.87a42.2,42.2,0,0,0,1.9,12.94,1,1,0,0,1-.72,1.35l-.59.17a.94.94,0,0,1-.81,0,1,1,0,0,1-.42-.72,45,45,0,0,1-2-13.74v-8.87a.9.9,0,0,1,1-1h.64A.9.9,0,0,1,433.7,490.88Z"/><path class="cls-2" d="M459.11,502.72h.59a.93.93,0,0,1,1.06,1.06v2.71a10,10,0,0,1-2.33,6.3,17.74,17.74,0,0,1-6.66,5,31.35,31.35,0,0,1-9.89,2.61.92.92,0,0,1-1.14-.94V519a1,1,0,0,1,.93-1.18,27.94,27.94,0,0,0,8.78-2.12,14.83,14.83,0,0,0,5.67-4.08,8,8,0,0,0,1.93-5.09v-2.71A.93.93,0,0,1,459.11,502.72Zm15.55-18.67a1.87,1.87,0,0,1,.49,1.4v13.87a1.7,1.7,0,0,1-1.87,1.87H444.05a.87.87,0,0,1-1-1v-.55a.87.87,0,0,1,1-1h28.38v-12.6H444.05a.88.88,0,0,1-1-1v-.51a.87.87,0,0,1,1-1h29.23A1.94,1.94,0,0,1,474.66,484.05Zm-28.13,20.19a1,1,0,0,1,.45.68l1.95,6.07a1,1,0,0,1-.72,1.31l-.6.09a1.28,1.28,0,0,1-.83,0,.9.9,0,0,1-.44-.66l-1.95-6.07a1,1,0,0,1,.72-1.31l.59-.09A1.07,1.07,0,0,1,446.53,504.24Zm27.26-12.13v.55a.82.82,0,0,1-.93.93H446.21a.82.82,0,0,1-.93-.93v-.55a.83.83,0,0,1,.93-.94h26.65A.83.83,0,0,1,473.79,492.11Zm-13.28,14.61a1.33,1.33,0,0,1,.42.79,8.93,8.93,0,0,0,2.47,4.65,16.13,16.13,0,0,0,5.64,3.73,26.6,26.6,0,0,0,8.1,1.89,1,1,0,0,1,.93,1.18v.51a.92.92,0,0,1-1.14.94,30.27,30.27,0,0,1-9.67-2.53,19.42,19.42,0,0,1-6.69-4.73,8.56,8.56,0,0,1-2.39-5.6.94.94,0,0,1,.14-.8,1,1,0,0,1,.79-.26h.59A1.32,1.32,0,0,1,460.51,506.72Zm13.92-1.08-2,6.07a.9.9,0,0,1-.44.66,1.27,1.27,0,0,1-.83,0l-.59-.09a1,1,0,0,1-.72-1.31l1.95-6.07a1,1,0,0,1,.44-.68,1.07,1.07,0,0,1,.83,0l.59.09A1,1,0,0,1,474.43,505.64Z"/><path class="cls-2" d="M494.83,489.77v.6a.93.93,0,0,1-1.06,1.06H483.55c-.74,0-1.11-.35-1.11-1.06v-.6c0-.7.37-1.06,1.11-1.06h10.22A.94.94,0,0,1,494.83,489.77Zm-8.82,6v5.56q0,4.27-.19,7.53a42,42,0,0,1-.83,6.26.78.78,0,0,1-1,.72l-.5-.13a.74.74,0,0,1-.68-1,39.49,39.49,0,0,0,.82-6.06c.13-2.1.2-4.54.2-7.34V495.8a.75.75,0,0,1,.84-.85h.47A.75.75,0,0,1,486,495.8Zm5.39-12.64v36.27c0,.68-.33,1-1,1h-.55c-.65,0-1-.34-1-1V483.16a.87.87,0,0,1,1-1h.55A.87.87,0,0,1,491.4,483.16ZM495,502l-.34.56a.91.91,0,0,1-1.4.33l-3-1.78a.89.89,0,0,1-.34-1.4l.34-.55a.88.88,0,0,1,1.4-.34l3,1.78A.88.88,0,0,1,495,502Zm11-16a1.87,1.87,0,0,1,.47,1.4v10.82a29.48,29.48,0,0,1-2.31,12.2,27.6,27.6,0,0,1-7,9.27.88.88,0,0,1-1.4-.13l-.34-.51c-.43-.48-.37-1,.17-1.44a27,27,0,0,0,4.79-5.33,19.83,19.83,0,0,0,2.76-6.21,31.58,31.58,0,0,0,.89-7.85v-10h-6.79a.94.94,0,0,1-1.06-1.07v-.55a.94.94,0,0,1,1.06-1.06h7.38A1.89,1.89,0,0,1,506,486Zm-6.61,6.11v6.11a32.11,32.11,0,0,0,.87,7.85,20.84,20.84,0,0,0,2.65,6.21,26.64,26.64,0,0,0,4.58,5.33,1,1,0,0,1,.13,1.44l-.38.51a.85.85,0,0,1-1.4,0,27.35,27.35,0,0,1-6.71-9.25,30.38,30.38,0,0,1-2.2-12.13v-6.11c0-.65.31-1,.93-1h.59A.85.85,0,0,1,499.42,492.11Zm22.36-2.76v.59c0,.71-.37,1.06-1.11,1.06H509.22a.93.93,0,0,1-1.06-1.06v-.59a.93.93,0,0,1,1.06-1.06h11.45C521.41,488.29,521.78,488.64,521.78,489.35Zm-9.93,7.26,1.82,12.21a.79.79,0,0,1-.76,1h-.51a.8.8,0,0,1-1-.76l-1.82-12.22a.84.84,0,0,1,.8-1h.51A.76.76,0,0,1,511.85,496.61Zm7.25-13.41v34.92a1.76,1.76,0,0,1-2,2h-3.65a1,1,0,0,1-1.1-1.1v-.64c0-.76.36-1.14,1.1-1.14h3v-34a.9.9,0,0,1,1-1h.59A.9.9,0,0,1,519.1,483.2Z"/><path class="cls-2" d="M531.49,504.92a108.5,108.5,0,0,1-4.07,13.92.93.93,0,0,1-1.36.63l-.55-.17a1,1,0,0,1-.64-1.4q1.27-3.3,2.27-6.81t1.72-6.68a.94.94,0,0,1,1.27-.8l.56.08A.89.89,0,0,1,531.49,504.92Zm-3.31-22,2.84,5.94a.9.9,0,0,1-.5,1.36l-.6.25a.86.86,0,0,1-1.31-.55l-2.85-5.9a.9.9,0,0,1,.51-1.35l.6-.26A.86.86,0,0,1,528.18,482.9Zm0,10.78,2.84,5.94a.9.9,0,0,1-.5,1.36l-.6.25a.86.86,0,0,1-1.31-.55l-2.85-5.9a.91.91,0,0,1,.51-1.36l.6-.25A.86.86,0,0,1,528.18,493.68Zm33.48-10a1.86,1.86,0,0,1,.51,1.44V518.5a2,2,0,0,1-.49,1.44,1.88,1.88,0,0,1-1.42.51h-3.82c-.68,0-1-.35-1-1.06v-.59a.9.9,0,0,1,1-1h3.1V485.83H537.86v33.69a.89.89,0,0,1-1,1h-.6a.89.89,0,0,1-1-1V485.11a1.94,1.94,0,0,1,.48-1.42,1.91,1.91,0,0,1,1.42-.49h23.13A2,2,0,0,1,561.66,483.67Zm-5.39,7.93v.51c0,.71-.34,1.06-1,1.06H542.14c-.68,0-1-.35-1-1.06v-.51c0-.71.34-1.06,1-1.06h13.11C555.93,490.54,556.27,490.89,556.27,491.6Zm-12.69,6.19h10.19a1.64,1.64,0,0,1,1.82,1.87V511a1.61,1.61,0,0,1-1.82,1.82H543.58a1.61,1.61,0,0,1-1.82-1.82V499.66A1.64,1.64,0,0,1,543.58,497.79Zm9.51,2.59H544.3v9.89h8.79Z"/><path class="cls-3" d="M122.13,367.72s-5.53,61.41-10.33,66.21S97,444.08,99,446.5s14.26-.56,16.77,0c0,0,92.21-1.25,100.65,0,0,0,6,.75,3.09-3.76s-11.08-6.49-12.78-9.58-8.11-15.34-9.73-41.83a5.56,5.56,0,0,1,2.85-5.2c4.68-2.62,12.93-8.5,10.83-16.6l-6-3.64s-5.22,10.33-7.75,9.83-1.34-17.12-1.34-17.12l-.45-26.8H126Z"/><path class="cls-4" d="M230.11,326.51a63.41,63.41,0,0,0-4.87-4.72,1.39,1.39,0,0,1-.34-1.68c2.32-4.55,2.84-9.13,1-13-3.89-8.33-17.2-10.53-31-5.67A1.41,1.41,0,0,1,193,300c.67-7.89-1.85-15.45-7.6-20.53-10.67-9.42-28.46-6.72-39.72,6a35.08,35.08,0,0,0-8,15.46,1.41,1.41,0,0,1-2.16.87,49.41,49.41,0,0,0-9.75-5c-15.89-6.09-31.75-3.27-35.41,6.29-2.68,7,1.91,15.67,10.8,22.2a1.41,1.41,0,0,1-.48,2.5,58.58,58.58,0,0,0-10.85,3.87c-15.42,7.2-25,19.21-21.48,26.82,3.13,6.7,15.43,7.74,28.85,3a1.42,1.42,0,0,1,1.9,1.32c0,5.37,1.57,9.55,4.86,11.45,6.35,3.67,16.89-2.38,25.13-13.77a1.42,1.42,0,0,1,2.46.3c1.48,3.55,3.71,5.93,6.55,6.57,4.88,1.1,10.35-3.25,14.47-10.66a1.42,1.42,0,0,1,2.32-.23,8.4,8.4,0,0,0,5.29,3.06c3.5.44,7-1.75,9.81-5.64a1.41,1.41,0,0,1,2.28,0c3.24,4.38,7.37,6.84,11.49,6.26a10.38,10.38,0,0,0,6.93-4.59,1.4,1.4,0,0,1,2.21-.07c.87,1.06,1.79,2.1,2.74,3.13,14.93,16,34.74,21.83,44.25,13S245,342.53,230.11,326.51Z"/><path class="cls-3" d="M121.64,435s-8.76,13.8-3.78,14.28,56.61-6.08,74.9-1.23,8-9.44,4.45-13.5a20.81,20.81,0,0,1-4.45-7.26"/><path class="cls-5" d="M150.74,309.76a30.25,30.25,0,0,1,13.51-22.17c1-.67.07-2.34-1-1.66a32.31,32.31,0,0,0-14.46,23.83c-.13,1.23,1.8,1.22,1.92,0Z"/><path class="cls-5" d="M179.52,288.41a46.65,46.65,0,0,1-10.33,40.19c-.81.93.55,2.29,1.36,1.36a48.69,48.69,0,0,0,10.82-42.06c-.26-1.2-2.12-.69-1.85.51Z"/><path class="cls-5" d="M107.18,369.12a12.25,12.25,0,0,1-.76-9.86c.41-1.17-1.45-1.67-1.85-.51a14.13,14.13,0,0,0,1,11.34c.59,1.08,2.24.11,1.65-1Z"/><path class="cls-5" d="M74.5,354.25a36.15,36.15,0,0,1,26.09-19.71c1.21-.21.7-2.06-.51-1.85a37.94,37.94,0,0,0-27.24,20.59c-.53,1.11,1.12,2.08,1.66,1Z"/><path class="cls-5" d="M200.07,351.45A41.34,41.34,0,0,0,224,367c1.2.27,1.72-1.58.51-1.85a39.34,39.34,0,0,1-22.79-14.68c-.73-1-2.4,0-1.66,1Z"/><path class="cls-5" d="M110.37,345.75a17.2,17.2,0,0,1,11.16-10.15,1,1,0,0,0-.51-1.85,19.21,19.21,0,0,0-12.5,11.49,1,1,0,0,0,.67,1.18,1,1,0,0,0,1.18-.67Z"/><path class="cls-5" d="M116.15,344.81a13.07,13.07,0,0,1,2.68-3.18,11.46,11.46,0,0,1,1.59-1.17,14.78,14.78,0,0,1,1.93-1,1,1,0,0,0,.35-1.31,1,1,0,0,0-1.31-.35,15.06,15.06,0,0,0-6.89,6,1,1,0,0,0,1.65,1Z"/><path class="cls-5" d="M101.37,306.69A43.52,43.52,0,0,1,129.83,314c1,.69,2-1,1-1.66a45.19,45.19,0,0,0-29.42-7.57c-1.22.12-1.23,2,0,1.92Z"/><path class="cls-5" d="M190,330.28a30.21,30.21,0,0,1,20.91-23.57,1,1,0,0,0-.51-1.85,32.12,32.12,0,0,0-22.26,24.91c-.2,1.2,1.65,1.72,1.86.51Z"/><path class="cls-5" d="M206.34,318.44a11.26,11.26,0,0,1,6.83-5.17,1,1,0,0,0-.51-1.85,13.18,13.18,0,0,0-8,6.05,1,1,0,0,0,1.66,1Z"/><path class="cls-5" d="M225.15,335.43c7.77,3.88,10.48,12.69,12.74,20.43a1,1,0,0,0,1.85-.51c-2.4-8.21-5.39-17.47-13.62-21.58-1.1-.55-2.08,1.1-1,1.66Z"/><path class="cls-6" d="M130.66,392.79c0,9-.53,18.5-4,26.91-.48,1.14,1.38,1.64,1.85.51,3.56-8.55,4.1-18.26,4.11-27.42a1,1,0,0,0-1.92,0Z"/><path class="cls-6" d="M183.67,365.23a34.13,34.13,0,0,0,.8,11.83,1,1,0,0,0,1.85-.51,32.44,32.44,0,0,1-.73-11.32,1,1,0,1,0-1.92,0Z"/><path class="cls-6" d="M143.1,372.21a114.56,114.56,0,0,1,.19,15.39c0,1.24,1.88,1.24,1.92,0a114.56,114.56,0,0,0-.19-15.39c-.12-1.21-2-1.23-1.92,0Z"/><polygon class="cls-7" points="175.3 417.34 143.52 414.01 144.85 396.04 176.97 398.78 175.3 417.34"/><path class="cls-8" d="M144.85,396c4.47,4.53,9,10.14,15.47,11.61-6.38-.38-12-6.72-15.47-11.61Z"/><path class="cls-8" d="M176.57,399.15c-4.2,4.25-9.94,8.9-16.25,8.53,6.28-.59,11.36-4.9,16.25-8.53Z"/><path class="cls-9" d="M166.1,408.68l-1.41,1.17h0a6.75,6.75,0,0,1-9.49-.89h0L154,407.54a3.08,3.08,0,0,1,.41-4.34h0a3.65,3.65,0,0,1,5.15.49h0a1.25,1.25,0,0,0,1.77.16h0a3.66,3.66,0,0,1,5.15.49h0A3.08,3.08,0,0,1,166.1,408.68Z"/><path d="M273,446.92a2,2,0,0,1-1.55.66h-1.31a2.25,2.25,0,0,1-2.27-2.27V361.13a2.15,2.15,0,0,1,.66-1.67,2.28,2.28,0,0,1,1.61-.6h1.31a2.09,2.09,0,0,1,1.55.6,2.26,2.26,0,0,1,.6,1.67v84.18A2.28,2.28,0,0,1,273,446.92Zm55.29-43.28H270.88v-5.49h57.43Zm2,43.28a2.15,2.15,0,0,1-1.67.66h-1.2a2.25,2.25,0,0,1-2.27-2.27V361.13a2.15,2.15,0,0,1,.66-1.67,2.3,2.3,0,0,1,1.61-.6h1.2a2.07,2.07,0,0,1,2.26,2.27v84.18A2.27,2.27,0,0,1,330.34,446.92Z"/><path d="M409.74,416.24a3.29,3.29,0,0,1-2.51.89h-1.91a33.15,33.15,0,0,0-3.58-15.88,24.54,24.54,0,0,0-9.61-10.09,26.38,26.38,0,0,0-13.2-3.4,29.45,29.45,0,0,0-14.5,3.46,24.25,24.25,0,0,0-9.74,9.85,32.91,32.91,0,0,0,0,29.38,24.48,24.48,0,0,0,9.8,9.91,29.64,29.64,0,0,0,14.68,3.52,28.81,28.81,0,0,0,15.11-4.12,27.32,27.32,0,0,0,10.44-11.05,2.61,2.61,0,0,1,1.26-.89,2.25,2.25,0,0,1,1.49.18l1.08.71a1.48,1.48,0,0,1,1.07,1.14,2,2,0,0,1-.36,1.49,33.16,33.16,0,0,1-12.54,12.78,34,34,0,0,1-17.55,4.77,34.39,34.39,0,0,1-17.25-4.29,30.54,30.54,0,0,1-11.82-11.88,36.16,36.16,0,0,1,0-34A30.35,30.35,0,0,1,361.86,387a34.2,34.2,0,0,1,17.07-4.24,31.23,31.23,0,0,1,14.87,3.65A30.15,30.15,0,0,1,405.14,397a35.15,35.15,0,0,1,5.2,16.66A3,3,0,0,1,409.74,416.24Zm-3.34.89h-57v-4.77h57Z"/><path d="M428.6,447a2.09,2.09,0,0,1-1.55.6h-1.31a2.06,2.06,0,0,1-2.15-2.15V359a2.1,2.1,0,0,1,.6-1.55,2.07,2.07,0,0,1,1.55-.6h1.31A2.06,2.06,0,0,1,429.2,359v86.45A2.07,2.07,0,0,1,428.6,447Z"/><path d="M450,447a2.11,2.11,0,0,1-1.56.6h-1.31a2.06,2.06,0,0,1-2.15-2.15V359a2.06,2.06,0,0,1,2.15-2.15h1.31a2.11,2.11,0,0,1,1.56.6,2.14,2.14,0,0,1,.59,1.55v86.45A2.1,2.1,0,0,1,450,447Z"/><path d="M480.12,444.42a33.83,33.83,0,0,1-12.06-12.06,33.06,33.06,0,0,1,0-33.2,33.35,33.35,0,0,1,12.06-12,33.27,33.27,0,0,1,33.14,0,32.78,32.78,0,0,1,16.48,28.66,32,32,0,0,1-4.48,16.54,33.83,33.83,0,0,1-12.06,12.06,32.84,32.84,0,0,1-33.08,0Zm30.45-4.36A27.11,27.11,0,0,0,520.48,430a28,28,0,0,0,3.64-14.15,28.66,28.66,0,0,0-3.58-14.27,26.22,26.22,0,0,0-9.85-10,28.63,28.63,0,0,0-27.94,0,26.66,26.66,0,0,0-9.91,10,29.56,29.56,0,0,0,0,28.42,27.11,27.11,0,0,0,9.91,10.09,28,28,0,0,0,27.82,0Z"/><path d="M551,438.33a4.16,4.16,0,0,1,3-1h2.15a3.59,3.59,0,0,1,4.06,4.06v2.15a4.21,4.21,0,0,1-1,3,4,4,0,0,1-3,1.07H554a3.73,3.73,0,0,1-4.06-4.06v-2.15A4,4,0,0,1,551,438.33ZM557.2,428a2.1,2.1,0,0,1-1.55.6h-1.2a2.06,2.06,0,0,1-2.15-2.15l-.95-64.6a3.15,3.15,0,0,1,.71-2.27,3.11,3.11,0,0,1,2.27-.72h1.44a3.07,3.07,0,0,1,2.26.72,3.11,3.11,0,0,1,.72,2.27l-1,64.6A2.1,2.1,0,0,1,557.2,428Z"/><path class="cls-10" d="M108.47,649.12h908.06a50,50,0,0,1,50,50v1755a0,0,0,0,1,0,0H58.47a0,0,0,0,1,0,0v-1755A50,50,0,0,1,108.47,649.12Z"/><path d="M344.38,822.67v29.12h3.23a1.93,1.93,0,0,1,2.18,2.18v1.26a1.93,1.93,0,0,1-2.18,2.18h-4.68q-3.9,0-3.9-4V824.32h-3.3c-1.46,0-2.18-.7-2.18-2.11v-1.32c0-1.41.72-2.11,2.18-2.11h4.69C343.06,818.78,344.38,820.07,344.38,822.67Zm-1.45-22.58,4.75,9.57a1.84,1.84,0,0,1-.92,2.84l-1.13.53c-1.32.66-2.27.35-2.84-.92L338,802.53c-.66-1.32-.35-2.27.92-2.84l1.13-.59A1.88,1.88,0,0,1,342.93,800.09Zm51.24,21.06v.93c0,1.23-.59,1.85-1.78,1.85H352.1a1.63,1.63,0,0,1-1.84-1.85v-.93a1.63,1.63,0,0,1,1.84-1.85h40.29C393.58,819.3,394.17,819.92,394.17,821.15ZM393.25,804v1a1.61,1.61,0,0,1-1.85,1.79H353.1a1.61,1.61,0,0,1-1.85-1.79v-1a1.63,1.63,0,0,1,1.85-1.85h38.3A1.64,1.64,0,0,1,393.25,804Zm-1,8.59v1a1.53,1.53,0,0,1-1.72,1.72H354.09a1.52,1.52,0,0,1-1.72-1.72v-1a1.52,1.52,0,0,1,1.72-1.72h36.45A1.52,1.52,0,0,1,392.26,812.57Zm-1.59,18.29v24c0,2.38-1.19,3.56-3.57,3.56h-6.34a1.57,1.57,0,0,1-1.78-1.78v-.92a1.58,1.58,0,0,1,1.78-1.79h4.56V831.85H359.17v24.77a1.87,1.87,0,0,1-2.11,2.11h-1.13a1.87,1.87,0,0,1-2.11-2.11V830.86q0-3.5,3.57-3.5H387.1Q390.67,827.36,390.67,830.86ZM388,838.19v.93a1.58,1.58,0,0,1-1.78,1.78H358.31a1.57,1.57,0,0,1-1.78-1.78v-.93a1.57,1.57,0,0,1,1.78-1.78h27.94A1.57,1.57,0,0,1,388,838.19Zm0,8.85V848a1.58,1.58,0,0,1-1.78,1.79H358.31a1.58,1.58,0,0,1-1.78-1.79V847a1.57,1.57,0,0,1,1.78-1.78h27.94A1.57,1.57,0,0,1,388,847Zm-13-46.82V819.5a1.87,1.87,0,0,1-2.11,2.12h-1.26a1.87,1.87,0,0,1-2.11-2.12V800.22a1.86,1.86,0,0,1,2.11-2.11h1.26A1.87,1.87,0,0,1,375,800.22Z"/><path d="M421.58,843.21v1.19a1.82,1.82,0,0,1-2.05,2.05H401.76a1.87,1.87,0,0,1-2.11-2.12v-1.05a1.87,1.87,0,0,1,2.11-2.12h17.77A1.82,1.82,0,0,1,421.58,843.21Zm-8.79-42-7.59,25h13.87a1.81,1.81,0,0,1,2,2v1.05a1.81,1.81,0,0,1-2,2H403.55c-1.59,0-2.67-.39-3.24-1.16a4,4,0,0,1-.26-3.46l8.19-26.88a1.56,1.56,0,0,1,2.24-1.19l1.06.26A1.65,1.65,0,0,1,412.79,801.21Zm8.65,6.54v1.19a1.78,1.78,0,0,1-2,2h-17a1.84,1.84,0,0,1-2.12-2v-1.06a1.87,1.87,0,0,1,2.12-2.11h16.9A1.84,1.84,0,0,1,421.44,807.75ZM414.91,831v25.49a1.78,1.78,0,0,1-2.05,2H411.8a1.78,1.78,0,0,1-2-2V831a1.8,1.8,0,0,1,2-2h1.06A1.81,1.81,0,0,1,414.91,831Zm-.14-12.48v8.39a1.57,1.57,0,0,1-1.78,1.78h-1c-1.15,0-1.72-.59-1.72-1.78v-8.39a1.52,1.52,0,0,1,1.72-1.72h1A1.55,1.55,0,0,1,414.77,818.51Zm32.69-18.22a36,36,0,0,0,5.29,6.83,53.56,53.56,0,0,0,6.93,6,1.72,1.72,0,0,1,.46,2.71l-.66,1a1.66,1.66,0,0,1-2.64.4,59.3,59.3,0,0,1-7.2-6.28,47.1,47.1,0,0,1-5.81-7.13h-5.48a55.89,55.89,0,0,1-13,13.41,1.66,1.66,0,0,1-2.64-.4l-.66-1a1.72,1.72,0,0,1,.46-2.71,48.9,48.9,0,0,0,7-6.2,40.56,40.56,0,0,0,5.19-6.74,3.85,3.85,0,0,1,1.09-1,2.8,2.8,0,0,1,1.48-.43H445A2.82,2.82,0,0,1,447.46,800.29Zm-6.73,21a3.5,3.5,0,0,1,.86,2.57v31a3,3,0,0,1-3.44,3.43h-3c-1.14,0-1.71-.64-1.71-1.91v-1q0-1.92,1.71-1.92H437V825.25h-9v31.56a1.63,1.63,0,0,1-1.85,1.85h-1a1.63,1.63,0,0,1-1.85-1.85V823.86a3.39,3.39,0,0,1,.89-2.57,3.47,3.47,0,0,1,2.54-.86h11.49A3.48,3.48,0,0,1,440.73,821.29Zm-1.52,12v1c0,1.11-.57,1.66-1.72,1.66h-10a1.49,1.49,0,0,1-1.71-1.66v-1q0-1.65,1.71-1.65h10C438.64,831.59,439.21,832.14,439.21,833.24Zm0,10.76v1.06c0,1.1-.57,1.65-1.72,1.65h-10q-1.71,0-1.71-1.65V844q0-1.65,1.71-1.65h10C438.64,842.35,439.21,842.9,439.21,844Zm9.9-30.64v1a1.63,1.63,0,0,1-1.85,1.85H434.92a1.63,1.63,0,0,1-1.85-1.85v-1a1.63,1.63,0,0,1,1.85-1.85h12.34A1.63,1.63,0,0,1,449.11,813.36Zm.8,10.9V847a1.46,1.46,0,0,1-1.65,1.65h-1a1.46,1.46,0,0,1-1.65-1.65V824.26a1.46,1.46,0,0,1,1.65-1.65h1A1.46,1.46,0,0,1,449.91,824.26Zm8.78-2.71v33.22a3.22,3.22,0,0,1-3.5,3.5h-4.1a1.75,1.75,0,0,1-2-2v-1.13a1.75,1.75,0,0,1,2-2h2.84V821.55a1.64,1.64,0,0,1,1.85-1.85h1.06A1.64,1.64,0,0,1,458.69,821.55Z"/><path d="M496.13,804.58A95.47,95.47,0,0,1,487.58,833a91.16,91.16,0,0,1-16.41,23.58,1.91,1.91,0,0,1-3.1,0l-.8-.79a2,2,0,0,1-.06-3.17A86.1,86.1,0,0,0,482.92,830a82.84,82.84,0,0,0,7.6-26.15A2.06,2.06,0,0,1,493,802l1.32.13A1.85,1.85,0,0,1,496.13,804.58Zm5.95-2.45a93.26,93.26,0,0,0,8.12,28.3,79.43,79.43,0,0,0,15.52,22.16,2,2,0,0,1-.07,3.17l-.79.79a1.92,1.92,0,0,1-3.11,0,92.23,92.23,0,0,1-16.31-23.48,97.91,97.91,0,0,1-8.65-28.23h-14.2a1.89,1.89,0,0,1-2.17-2.11v-1.32a1.9,1.9,0,0,1,2.17-2.12h16.18A3,3,0,0,1,502.08,802.13Z"/><path d="M548.73,800.25a2.12,2.12,0,0,1,0,1.55,209.41,209.41,0,0,1-13.27,31.44,1.58,1.58,0,0,1-1.25,1,1.48,1.48,0,0,1-1.46-.59l-.86-1.19a3.77,3.77,0,0,1-.79-1.68,3.63,3.63,0,0,1,.27-1.88q3.69-6.94,6.8-14.37t5.35-14.29a2.22,2.22,0,0,1,1-1.49,1.63,1.63,0,0,1,1.65,0l1.19.33A3.1,3.1,0,0,1,548.73,800.25ZM544.27,822v34.61a1.87,1.87,0,0,1-2.11,2.11h-1.25a1.87,1.87,0,0,1-2.12-2.11V822a1.87,1.87,0,0,1,2.12-2.11h1.25A1.86,1.86,0,0,1,544.27,822Zm15.26,3.7q-.4,7-1.22,13.27t-1.82,10.5a1.85,1.85,0,0,1-2.51,1.59l-1.12-.2a1.91,1.91,0,0,1-1.65-2.51,145.41,145.41,0,0,0,3-22.85c.08-1.41.79-2.09,2.11-2l1.12.07C558.93,823.57,559.62,824.3,559.53,825.71Zm1.39-25.16v4.36h26.94a4,4,0,0,1,2.81,1,3.64,3.64,0,0,1,1,2.8v7.4a1.87,1.87,0,0,1-2.11,2.11h-1.26a1.86,1.86,0,0,1-2.11-2.11v-6H559.33a3.92,3.92,0,0,1-2.84-1,3.73,3.73,0,0,1-1-2.81v-5.74a1.84,1.84,0,0,1,2.11-2h1.26A1.82,1.82,0,0,1,560.92,800.55Zm13.86,18.09v35.53a3.88,3.88,0,0,1-1,2.91,4.05,4.05,0,0,1-2.94,1h-5.94a1.84,1.84,0,0,1-2.12-2.05v-1.25a1.88,1.88,0,0,1,2.12-2.12h4.42v-34a1.87,1.87,0,0,1,2.12-2.11h1.25A1.87,1.87,0,0,1,574.78,818.64Zm14.73,6.94q.39,6.79,1.16,12.78a84,84,0,0,0,1.75,9.93,1.9,1.9,0,0,1-1.52,2.58l-1.19.2a1.82,1.82,0,0,1-2.45-1.59,148.9,148.9,0,0,1-3-23.84q-.13-2,2-2l1.12-.14A2,2,0,0,1,589.51,825.58Z"/><path d="M601.92,807a4,4,0,0,1,3-1h17a3.59,3.59,0,0,1,4,4v43.32a4,4,0,0,1-1,3,4.05,4.05,0,0,1-2.94,1h-17a3.5,3.5,0,0,1-4-4V809.93A4.05,4.05,0,0,1,601.92,807Zm21.27,23.28v1.19a1.92,1.92,0,0,1-2.18,2.17H605.82a1.92,1.92,0,0,1-2.18-2.17v-1.19a1.93,1.93,0,0,1,2.18-2.18H621A1.93,1.93,0,0,1,623.19,830.27Zm-2.71-18.76h-14.2v40.15h14.2Zm-4.36-11v6.07a1.87,1.87,0,0,1-2.11,2.12h-1.26a1.87,1.87,0,0,1-2.11-2.12v-6.07a1.86,1.86,0,0,1,2.11-2.11H614A1.86,1.86,0,0,1,616.12,800.55Zm20.28.07v3.56h16.31a3.7,3.7,0,0,1,4.09,4.1v45.23a4.06,4.06,0,0,1-1.06,3.07,4.18,4.18,0,0,1-3,1h-6.54a2,2,0,0,1-2.18-2.25v-1.25a2,2,0,0,1,2.18-2.25h5.08V810H634.94a3.61,3.61,0,0,1-4.09-4.09v-5.28a1.93,1.93,0,0,1,2.18-2.18h1.19A1.93,1.93,0,0,1,636.4,800.62Zm1.09,19.25a2.16,2.16,0,0,1,.89,1.42l5.35,17.17a1.88,1.88,0,0,1-1.59,2.5l-1.12.4a2.29,2.29,0,0,1-1.72-.1,2,2,0,0,1-.79-1.42l-5.42-17.17a1.94,1.94,0,0,1,1.59-2.51l1.12-.39A2.2,2.2,0,0,1,637.49,819.87Z"/><path d="M681.47,800.25a2.21,2.21,0,0,1,0,1.62,202.25,202.25,0,0,1-14.06,31.7c-.36.79-.79,1.22-1.32,1.29a1.34,1.34,0,0,1-1.32-.7l-.93-1.32a3.63,3.63,0,0,1-.13-3.89,196.32,196.32,0,0,0,12.61-28.66,2.27,2.27,0,0,1,1-1.49,1.84,1.84,0,0,1,1.68.1l1.06.33A2.79,2.79,0,0,1,681.47,800.25Zm-4.66,21.3v35a1.84,1.84,0,0,1-2,2.11h-1.25a1.86,1.86,0,0,1-2.11-2.11v-35a1.84,1.84,0,0,1,2.11-2h1.25A1.81,1.81,0,0,1,676.81,821.55Zm48.41-14.86v1.06a1.78,1.78,0,0,1-2,2H683.61a1.8,1.8,0,0,1-2-2v-1.06a1.81,1.81,0,0,1,2-2.05h39.63A1.78,1.78,0,0,1,725.22,806.69ZM688.17,836.8h30.51c2.46,0,3.7,1.24,3.7,3.7v13.61c0,2.51-1.24,3.76-3.7,3.76H688.17q-3.76,0-3.76-3.76V840.5C684.41,838,685.66,836.8,688.17,836.8Zm33.74-19.21v1a1.69,1.69,0,0,1-1.91,1.92H686.85a1.72,1.72,0,0,1-2-1.92v-1a1.75,1.75,0,0,1,2-2H720C721.28,815.61,721.91,816.27,721.91,817.59Zm0,10.76v1c0,1.32-.63,2-1.91,2H686.85a1.75,1.75,0,0,1-2-2v-1a1.75,1.75,0,0,1,2-2H720C721.28,826.37,721.91,827,721.91,828.35ZM717,841.76H689.82v11.16H717ZM706.2,800.29l-.07,4.82a1.86,1.86,0,0,1-2.11,2.11h-1.26a1.86,1.86,0,0,1-2.11-2.11l.07-4.82a1.87,1.87,0,0,1,2.11-2.12h1.25A1.88,1.88,0,0,1,706.2,800.29Z"/><path d="M740.27,843.34q-.79,3.24-1.75,6.18a30.46,30.46,0,0,1-1.75,4.45,1.84,1.84,0,0,1-2.77,1.19l-1.06-.53a2,2,0,0,1-1.25-1.12,2.56,2.56,0,0,1,.13-1.78,41.54,41.54,0,0,0,2.64-7.53,17.85,17.85,0,0,0,.53-1.91,1.92,1.92,0,0,1,2.58-1.66l1,.14A1.9,1.9,0,0,1,740.27,843.34Zm-3.36-40.08a3.74,3.74,0,0,1,2.77-.93h41.87a3.75,3.75,0,0,1,2.77.93,3.64,3.64,0,0,1,.92,2.7v26.55a3.66,3.66,0,0,1-.92,2.71,3.75,3.75,0,0,1-2.77.92H739.68a3.74,3.74,0,0,1-2.77-.92,3.67,3.67,0,0,1-.93-2.71V806A3.64,3.64,0,0,1,736.91,803.26Zm45.63,10.83v1a1.58,1.58,0,0,1-1.79,1.78H740.47a1.57,1.57,0,0,1-1.78-1.78v-1a1.58,1.58,0,0,1,1.78-1.79h40.28A1.58,1.58,0,0,1,782.54,814.09Zm0,9.31v1a1.58,1.58,0,0,1-1.79,1.78H740.47a1.57,1.57,0,0,1-1.78-1.78v-1a1.57,1.57,0,0,1,1.78-1.78h40.28A1.58,1.58,0,0,1,782.54,823.4Zm-2.71-16.31H741.4v24.3h38.43Zm-28.59,34.27v11.56h22.25v-3.3a1.84,1.84,0,0,1,2.11-2h1.26a1.81,1.81,0,0,1,2,2v4.62a4,4,0,0,1-.95,2.84,3.74,3.74,0,0,1-2.81,1H749.58a3.72,3.72,0,0,1-2.8-1,3.92,3.92,0,0,1-1-2.84V841.36a1.84,1.84,0,0,1,2-2.11h1.25A1.87,1.87,0,0,1,751.24,841.36Zm12.15-41.47v2.77a1.78,1.78,0,0,1-2,2.05h-1.58c-1.32,0-2-.68-2-2.05v-2.77c0-1.37.66-2,2-2h1.58A1.78,1.78,0,0,1,763.39,799.89Zm1.32,39.62,2.44,6a1.9,1.9,0,0,1-1.19,2.77l-1.06.33a1.85,1.85,0,0,1-2.77-1.12l-2.38-6a1.91,1.91,0,0,1,1.19-2.77l1.06-.4C763.28,837.75,764.18,838.15,764.71,839.51Zm21.79,2.78q.66,2.9,1.52,5.54a20,20,0,0,0,1.65,4,2,2,0,0,1-1.12,2.84l-1.06.53a1.84,1.84,0,0,1-2.77-1.19,61.17,61.17,0,0,1-3.5-10.69,1.86,1.86,0,0,1,1.65-2.51l1-.14A1.92,1.92,0,0,1,786.5,842.29Z"/><rect class="cls-11" x="478.86" y="1788.53" width="196.5" height="92.82" rx="46.41"/><path class="cls-10" d="M607.24,1833.11l-18.19-16.91a2.5,2.5,0,0,0-3.53.12h0a2.5,2.5,0,0,0,.13,3.54l13.53,12.58H549a2.5,2.5,0,1,0,0,5h50.18L585.65,1850a2.5,2.5,0,1,0,3.4,3.66l18.19-16.91A2.49,2.49,0,0,0,607.24,1833.11Z"/><rect class="cls-12" x="225.9" y="998.18" width="673.2" height="150.57" rx="75.28"/><path class="cls-13" d="M302.15,1068.67a46.66,46.66,0,0,1-2.52,5.68,33.94,33.94,0,0,1-3.15,4.87.67.67,0,0,1-1.08.14l-.34-.27a.76.76,0,0,1-.18-1.15,29.32,29.32,0,0,0,3.07-4.79,53.94,53.94,0,0,0,2.3-5.17.69.69,0,0,1,1-.45l.45.14A.68.68,0,0,1,302.15,1068.67Zm9.66-1.25v.49c0,.53-.28.8-.84.8H296.3a.7.7,0,0,1-.79-.8v-.49a.7.7,0,0,1,.79-.79H311C311.53,1066.63,311.81,1066.89,311.81,1067.42Zm-3.88-7v.49a.7.7,0,0,1-.8.79h-9.89a.7.7,0,0,1-.8-.79v-.49a.71.71,0,0,1,.8-.8h9.89A.71.71,0,0,1,307.93,1060.4Zm4.08,19.38v.45a.73.73,0,0,1-.83.83h-13a.72.72,0,0,1-.8-.83v-.45a.71.71,0,0,1,.8-.8h13C311.74,1079,312,1079.25,312,1079.78Zm-1.69-7.2c.2.37,0,.89-.49,1.56l-3.87,4.18v8.07a1.53,1.53,0,0,1-.37,1.09,1.45,1.45,0,0,1-1.12.4h-2.84a.7.7,0,0,1-.79-.8v-.42a.7.7,0,0,1,.79-.79h2.25v-7.65a1.6,1.6,0,0,1,.35-1l3-3.19h-6.16a.7.7,0,0,1-.8-.79v-.42a.7.7,0,0,1,.8-.79h7.61C309.57,1072,310.11,1072.21,310.32,1072.58Zm-6.3-15.47V1067a.74.74,0,0,1-.83.83h-.45c-.58,0-.87-.28-.87-.83v-9.87c0-.55.29-.83.87-.83h.45A.74.74,0,0,1,304,1057.11Zm7.82,2.94-4,7.41a.67.67,0,0,1-1,.28l-.45-.21a.69.69,0,0,1-.31-1l4-7.4a.67.67,0,0,1,1-.28l.45.21A.69.69,0,0,1,311.84,1060.05Zm13,1.94v7.06a20.45,20.45,0,0,1-2.74,10.36,23.36,23.36,0,0,1-7.85,8,.75.75,0,0,1-1.14-.28l-.28-.45a.74.74,0,0,1,.34-1.14,21.53,21.53,0,0,0,7.05-7.25,18.34,18.34,0,0,0,2.44-9.29V1062a.73.73,0,0,1,.83-.83H324C324.53,1061.16,324.82,1061.44,324.82,1062Zm-8.41-4.84v3h9.27a.78.78,0,0,1,.9.87v.45c0,.58-.3.86-.9.86h-9.86a1.69,1.69,0,0,1-1.21-.39,1.59,1.59,0,0,1-.42-1.2v-3.56a.78.78,0,0,1,.9-.87h.45A.77.77,0,0,1,316.41,1057.15Zm0,8.89v3a17.69,17.69,0,0,0,2.55,9.34,20.78,20.78,0,0,0,7.56,7.17.8.8,0,0,1,.34,1.17l-.27.45c-.24.49-.6.58-1.11.28a23.52,23.52,0,0,1-8.38-8,19.79,19.79,0,0,1-2.87-10.4v-3a.74.74,0,0,1,.83-.83h.52A.73.73,0,0,1,316.37,1066Z"/><path class="cls-13" d="M331.08,1059H360a.69.69,0,0,1,.76.79v.42a.69.69,0,0,1-.76.79H331.08c-.51,0-.76-.26-.76-.79v-.42C330.32,1059.21,330.57,1059,331.08,1059Zm11.14.83.28.34c.37.37.33.73-.11,1.08l-5.95,4.39h20v-2a.73.73,0,0,1,.83-.83h.48a.73.73,0,0,1,.83.83V1066a1.46,1.46,0,0,1-.38,1.12,1.54,1.54,0,0,1-1.11.36H334.19a3.6,3.6,0,0,1-1.52-.24.51.51,0,0,1-.29-.72,2.77,2.77,0,0,1,1-1.11l7.64-5.78A.77.77,0,0,1,342.22,1059.78ZM333.76,1071a1.47,1.47,0,0,1,1.12-.4H356.2a1.54,1.54,0,0,1,1.09.38,1.51,1.51,0,0,1,.4,1.11v14.15a1.51,1.51,0,0,1-.38,1.11,1.54,1.54,0,0,1-1.11.38h-3.43a.64.64,0,0,1-.72-.72v-.45a.64.64,0,0,1,.72-.73h2.7v-13.29H335.61v14.22c0,.6-.29.9-.86.9h-.49c-.57,0-.86-.3-.86-.9v-14.67A1.58,1.58,0,0,1,333.76,1071Zm1.54,4.79h20.48a.65.65,0,0,1,.73.73v.45a.65.65,0,0,1-.73.73H335.3a.65.65,0,0,1-.73-.73v-.45A.65.65,0,0,1,335.3,1075.76Zm0,5.13h20.48a.64.64,0,0,1,.73.72v.45c0,.51-.24.76-.73.76H335.3c-.48,0-.73-.25-.73-.76v-.45A.64.64,0,0,1,335.3,1080.89Zm10-24.54h.55a.76.76,0,0,1,.86.87v1.9c0,.55-.28.83-.86.83h-.55c-.58,0-.87-.28-.87-.83v-1.9A.77.77,0,0,1,345.27,1056.35Z"/><path class="cls-13" d="M375.13,1058a1.77,1.77,0,0,1,.41,1.26,22.77,22.77,0,0,1-1.94,9.34,10.66,10.66,0,0,1,1.91,4.21,11.38,11.38,0,0,1,0,4.65,11.08,11.08,0,0,1-1.85,4.32.68.68,0,0,1-.46.45.78.78,0,0,1-.61-.13l-.45-.28a.78.78,0,0,1-.24-1.18,12.06,12.06,0,0,0,1.57-4,8.23,8.23,0,0,0-.15-3.8,7.31,7.31,0,0,0-1.91-3.21,1,1,0,0,1-.1-1.1,21.1,21.1,0,0,0,2.11-8.72h-5.64v27.4a.73.73,0,0,1-.83.83h-.45a.73.73,0,0,1-.83-.83v-28.06a1.38,1.38,0,0,1,1.56-1.56h6.61A1.71,1.71,0,0,1,375.13,1058Zm14.18-.54q1.67,3.26,3.4,6.12a43.35,43.35,0,0,0,3.32,4.85.78.78,0,0,1-.14,1.21l-.62.45c-.28.25-.6.15-1-.31a68.64,68.64,0,0,1-6.75-11h-2.77a73,73,0,0,1-6.75,11c-.37.46-.76.51-1.17.14l-.42-.28a.78.78,0,0,1-.14-1.21,60.43,60.43,0,0,0,6.68-11,1.49,1.49,0,0,1,.56-.58,1.89,1.89,0,0,1,.83-.25H388A1.43,1.43,0,0,1,389.31,1057.46ZM382.36,1070v4.53a22.68,22.68,0,0,1-1,6.64,20.23,20.23,0,0,1-3,6c-.32.49-.69.53-1.1.14l-.45-.31a.94.94,0,0,1-.35-.57,1.11,1.11,0,0,1,.21-.68,18.21,18.21,0,0,0,2.58-5.32,21,21,0,0,0,.84-5.92V1070a.78.78,0,0,1,.9-.87h.45A.77.77,0,0,1,382.36,1070Zm9.76,0v16.81a.77.77,0,0,1-.87.87h-.45a.77.77,0,0,1-.86-.87V1070a.77.77,0,0,1,.86-.87h.45A.77.77,0,0,1,392.12,1070Z"/><path class="cls-13" d="M412.91,1080v.48a.73.73,0,0,1-.83.83H399.9a.74.74,0,0,1-.83-.83V1080a.73.73,0,0,1,.83-.83h12.18A.73.73,0,0,1,412.91,1080Zm.49-22.32v.52a.72.72,0,0,1-.73.9l-9,.86v26.89a.77.77,0,0,1-.87.86h-.48a.77.77,0,0,1-.87-.86v-27.37a1.45,1.45,0,0,1,1.46-1.63l9.58-.9A.76.76,0,0,1,413.4,1057.67Zm-1.53,14.88v.48c0,.55-.28.83-.86.83h-7.68a.73.73,0,0,1-.83-.83v-.48c0-.58.27-.87.83-.87H411A.76.76,0,0,1,411.87,1072.55Zm0-6.68v.48a.73.73,0,0,1-.83.83h-7.68a.73.73,0,0,1-.83-.83v-.48a.73.73,0,0,1,.83-.83H411A.73.73,0,0,1,411.87,1065.87Zm16.82,5.33a1.71,1.71,0,0,1,.07,1.73,19.5,19.5,0,0,1-3.24,6.16,23.22,23.22,0,0,1-5.24,4.93,28.42,28.42,0,0,1-6.54,3.34.78.78,0,0,1-1.07-.59l-.1-.45a.92.92,0,0,1,0-.69c.08-.17.28-.28.6-.35a24.83,24.83,0,0,0,8.43-5,17.91,17.91,0,0,0,5-7.49H414.75a.73.73,0,0,1-.83-.83v-.52a.73.73,0,0,1,.83-.83H427A2,2,0,0,1,428.69,1071.2ZM427,1057.7a1.63,1.63,0,0,1,.41,1.18V1066h1.73a.77.77,0,0,1,.87.87v.45a.77.77,0,0,1-.87.86h-2.35a1.4,1.4,0,0,1-1.56-1.56v-7.16h-7.58V1061a15.42,15.42,0,0,1-.45,3.9,11.21,11.21,0,0,1-1.52,3.34.71.71,0,0,1-.54.39.86.86,0,0,1-.6-.22l-.38-.35a.81.81,0,0,1-.35-.57,1,1,0,0,1,.21-.67,8.25,8.25,0,0,0,1.16-2.6,13.69,13.69,0,0,0,.33-3.22v-2.14a1.62,1.62,0,0,1,.4-1.18,1.5,1.5,0,0,1,1.15-.41h8.76A1.59,1.59,0,0,1,427,1057.7Zm-10.4,16.63a.77.77,0,0,1,.46.5,20.75,20.75,0,0,0,5.33,6.28,25.06,25.06,0,0,0,7.24,4.1,1,1,0,0,1,.6.42.92.92,0,0,1,0,.69l-.13.45a.74.74,0,0,1-1.08.52,29.07,29.07,0,0,1-8.22-4.74,22.39,22.39,0,0,1-5.69-6.75.75.75,0,0,1,.38-1.14l.42-.25A1.08,1.08,0,0,1,416.6,1074.33Z"/><path d="M644.51,1057.88v3.66q0,16.26-14.88,25.85a1.45,1.45,0,0,1-2.28-.52l-.49-.83a1.47,1.47,0,0,1,.55-2.28,29.62,29.62,0,0,0,9.68-9.71,24.61,24.61,0,0,0,3.13-12.51v-3.66a1.49,1.49,0,0,1,1.69-1.7h.9A1.5,1.5,0,0,1,644.51,1057.88Zm13.32,7v.9a1.46,1.46,0,0,1-1.66,1.66H628.56a1.46,1.46,0,0,1-1.66-1.66v-.9a1.47,1.47,0,0,1,1.66-1.66h27.61A1.47,1.47,0,0,1,657.83,1064.93ZM645,1066.7a22.61,22.61,0,0,0,4,9.39,30.88,30.88,0,0,0,8.32,7.63,1.51,1.51,0,0,1,.55,2.32l-.48.83a1.45,1.45,0,0,1-2.28.52,36.17,36.17,0,0,1-10-9.36,23.68,23.68,0,0,1-4.39-10.85,1.47,1.47,0,0,1,1.45-1.9l.9-.07A1.62,1.62,0,0,1,645,1066.7Z"/><path d="M692.85,1083.69v.9a1.47,1.47,0,0,1-1.66,1.66H662.74a1.47,1.47,0,0,1-1.66-1.66v-.9a1.47,1.47,0,0,1,1.66-1.66h28.45A1.47,1.47,0,0,1,692.85,1083.69Zm-1.59-23.77v.9a1.48,1.48,0,0,1-1.67,1.66H664.33a1.47,1.47,0,0,1-1.66-1.66v-.9a1.47,1.47,0,0,1,1.66-1.66h25.26A1.47,1.47,0,0,1,691.26,1059.92Zm-1.87,11.73v.9a1.44,1.44,0,0,1-1.63,1.62H666.17a1.44,1.44,0,0,1-1.63-1.62v-.9a1.44,1.44,0,0,1,1.63-1.63h21.59A1.44,1.44,0,0,1,689.39,1071.65Z"/><rect class="cls-12" x="225.9" y="1370.75" width="673.2" height="150.57" rx="75.28"/><path class="cls-13" d="M310.08,1431.07v.48a.74.74,0,0,1-.84.83h-9.55v11.87a46.09,46.09,0,0,1-.69,8,24.9,24.9,0,0,1-2.28,7.06.7.7,0,0,1-1.07.42l-.49-.32c-.48-.2-.6-.58-.34-1.14a25.69,25.69,0,0,0,2-6.54,42.45,42.45,0,0,0,.64-7.44V1431.8a1.51,1.51,0,0,1,.42-1.16,1.54,1.54,0,0,1,1.14-.4h10.2A.74.74,0,0,1,310.08,1431.07Zm-1.82,7.7a1.53,1.53,0,0,1,.4,1.12v8.86a1.57,1.57,0,0,1-.4,1.13,1.6,1.6,0,0,1-1.16.39h-7.68a.73.73,0,0,1-.83-.83V1449a.73.73,0,0,1,.83-.83h7.09v-7.61h-7.09a.73.73,0,0,1-.83-.83v-.49a.73.73,0,0,1,.83-.83h7.68A1.56,1.56,0,0,1,308.26,1438.77Zm16.45-9.19a.93.93,0,0,1,.69.05.83.83,0,0,1,.38.57l.07.49a.8.8,0,0,1-.05.66,1.07,1.07,0,0,1-.6.38,40.5,40.5,0,0,1-7.79.65h-3v12.08a32.27,32.27,0,0,1-1,7.94,23.58,23.58,0,0,1-3.15,7.22.76.76,0,0,1-1.17.27l-.42-.31a.78.78,0,0,1-.4-.52,1,1,0,0,1,.19-.69,21.67,21.67,0,0,0,2.86-6.54,29.94,29.94,0,0,0,.88-7.37v-12.7a1.57,1.57,0,0,1,.4-1.14,1.51,1.51,0,0,1,1.16-.42h3.63A36.88,36.88,0,0,0,324.71,1429.58Zm1.94,11.28v.52a.74.74,0,0,1-.83.83H314.37c-.58,0-.87-.28-.87-.83v-.52c0-.55.29-.83.87-.83h11.45A.74.74,0,0,1,326.65,1440.86Zm-3.53,1.14v17.34a.76.76,0,0,1-.87.86h-.44a.76.76,0,0,1-.87-.86V1442a.78.78,0,0,1,.87-.9h.44A.78.78,0,0,1,323.12,1442Z"/><path class="cls-13" d="M344,1430.38a54.76,54.76,0,0,1-5.31,9.65,51.64,51.64,0,0,1-7,8.24.76.76,0,0,1-1.24,0l-.35-.34a.75.75,0,0,1,.07-1.22A53.76,53.76,0,0,0,342,1429.51a.71.71,0,0,1,1.08-.48l.48.2A.79.79,0,0,1,344,1430.38Zm16.61,3.35v.49a.77.77,0,0,1-.87.86H331.32a.76.76,0,0,1-.86-.86v-.49a.76.76,0,0,1,.86-.86h28.44A.77.77,0,0,1,360.63,1433.73Zm-24.53,11.49v14.15a.77.77,0,0,1-.87.87h-.48a.77.77,0,0,1-.87-.87v-14.15a.78.78,0,0,1,.87-.9h.48A.78.78,0,0,1,336.1,1445.22ZM361,1458.06v.45a.79.79,0,0,1-.89.9H340.35c-.58,0-.86-.3-.86-.9v-.45a.76.76,0,0,1,.86-.87h19.73A.78.78,0,0,1,361,1458.06Zm-.83-13.08v.48a.78.78,0,0,1-.9.87H341.18a.77.77,0,0,1-.86-.87V1445a.77.77,0,0,1,.86-.87h18.06A.78.78,0,0,1,360.14,1445Zm-8.82-5.36v17.92c0,.58-.3.86-.9.86H350a.75.75,0,0,1-.86-.86v-17.92a.76.76,0,0,1,.86-.87h.45A.78.78,0,0,1,351.32,1439.62Z"/><path class="cls-13" d="M395.68,1450.13v.45c0,.58-.28.87-.83.87H365.44c-.56,0-.83-.29-.83-.87v-.45a.73.73,0,0,1,.83-.83h29.41A.74.74,0,0,1,395.68,1450.13Zm-1.12-14.86a1.55,1.55,0,0,1,.39,1.13v4.53c0,.55-.28.83-.86.83h-.42a.75.75,0,0,1-.86-.83v-4H367.48v4c0,.55-.29.83-.87.83h-.41c-.58,0-.87-.28-.87-.83v-4.53a1.56,1.56,0,0,1,.4-1.13,1.6,1.6,0,0,1,1.16-.39H393.4A1.61,1.61,0,0,1,394.56,1435.27ZM371,1429.62l1.11,3.18a.74.74,0,0,1-.52,1.07l-.45.14a.78.78,0,0,1-1.1-.52l-1.11-3.18a.75.75,0,0,1,.52-1.08l.48-.13A.74.74,0,0,1,371,1429.62ZM389.8,1441a.59.59,0,0,1,.29.83,3.74,3.74,0,0,1-1.09,1.29l-7.44,5.19v10.38a1.37,1.37,0,0,1-1.55,1.55h-3.88a.73.73,0,0,1-.83-.83V1459a.74.74,0,0,1,.83-.83h3.22v-9.79a1.64,1.64,0,0,1,.52-1.21l6.26-4.26h-15a.75.75,0,0,1-.83-.86v-.42a.75.75,0,0,1,.83-.86h17A3.81,3.81,0,0,1,389.8,1441Zm-8.55-11.31v3.22a.76.76,0,0,1-.86.86h-.49a.76.76,0,0,1-.86-.86v-3.22a.77.77,0,0,1,.86-.87h.49A.77.77,0,0,1,381.25,1429.72Zm10.14.59-1.11,3.18a.78.78,0,0,1-1.1.52l-.45-.14a.73.73,0,0,1-.52-1.07l1.1-3.18a.75.75,0,0,1,1.08-.52l.48.13A.76.76,0,0,1,391.39,1430.31Z"/><path class="cls-13" d="M409,1430.57a1.55,1.55,0,0,1,.41,1.26,25.07,25.07,0,0,1-1.87,9.34,10.39,10.39,0,0,1,1.84,4.21,12.32,12.32,0,0,1-1.73,9,.66.66,0,0,1-1.08.31l-.44-.28a.77.77,0,0,1-.28-1.18,12.06,12.06,0,0,0,1.5-4,9.06,9.06,0,0,0-.15-3.82,7.68,7.68,0,0,0-1.8-3.25,1,1,0,0,1-.14-1,22.54,22.54,0,0,0,2-8.72h-5.26v27.4a.73.73,0,0,1-.83.83h-.45a.73.73,0,0,1-.83-.83v-28.06a1.38,1.38,0,0,1,1.55-1.56h6.23A1.83,1.83,0,0,1,409,1430.57Zm9,16.49a17.71,17.71,0,0,1-1.82,7.3,14.9,14.9,0,0,1-4.93,5.53.68.68,0,0,1-1.11-.17l-.27-.49q-.45-.62.27-1.14a13.32,13.32,0,0,0,4.33-4.89,14,14,0,0,0,1.38-6.11q.07-.87.87-.87h.45C417.81,1446.22,418.09,1446.5,418.07,1447.06Zm12.07-1.08v.49a.73.73,0,0,1-.83.83H411.74c-.58,0-.87-.28-.87-.83V1446c0-.55.29-.83.87-.83h17.57A.73.73,0,0,1,430.14,1446Zm-.5-14a1.51,1.51,0,0,1,.4,1.13v3a.74.74,0,0,1-.83.83h-.48a.73.73,0,0,1-.83-.83v-2.39H413.19v2.39c0,.55-.29.83-.87.83h-.45a.74.74,0,0,1-.83-.83v-3a1.59,1.59,0,0,1,.38-1.13,1.56,1.56,0,0,1,1.15-.4h15.95A1.53,1.53,0,0,1,429.64,1432Zm-.74,7.32v.48a.73.73,0,0,1-.83.83H413a.73.73,0,0,1-.83-.83v-.48a.74.74,0,0,1,.83-.83h15.09A.74.74,0,0,1,428.9,1439.27Zm-7.27-9.48,0,1.9c0,.58-.28.87-.83.87h-.56a.74.74,0,0,1-.83-.83l0-1.91c0-.57.27-.86.83-.86h.55A.73.73,0,0,1,421.63,1429.79Zm2.77,17.33v10.7h4.19v-2.36a.73.73,0,0,1,.83-.83h.48a.73.73,0,0,1,.83.83v3a1.57,1.57,0,0,1-.4,1.14,1.5,1.5,0,0,1-1.15.42h-5.37a1.4,1.4,0,0,1-1.56-1.56v-11.32a.74.74,0,0,1,.84-.83h.48A.74.74,0,0,1,424.4,1447.12Z"/><path d="M523.37,1449.48v.83a1.32,1.32,0,0,1-1.49,1.49h-15a1.32,1.32,0,0,1-1.49-1.49v-.83a1.32,1.32,0,0,1,1.49-1.49h15A1.32,1.32,0,0,1,523.37,1449.48ZM523,1437.3v.83a1.32,1.32,0,0,1-1.49,1.49H507a1.32,1.32,0,0,1-1.49-1.49v-.83a1.32,1.32,0,0,1,1.49-1.49h14.53A1.32,1.32,0,0,1,523,1437.3Zm-5.59,13.06a1.78,1.78,0,0,1,1.23-.39h.83a1.52,1.52,0,0,1,1.18.39,1.49,1.49,0,0,1,.24,1.2,9.36,9.36,0,0,1-2.34,4.82,14.2,14.2,0,0,1-4.84,3.5,19.3,19.3,0,0,1-6.25,1.64,1.59,1.59,0,0,1-1.23-.24,1.52,1.52,0,0,1-.46-1.18l-.07-.83a1.5,1.5,0,0,1,1.45-1.76,16.34,16.34,0,0,0,6.58-2.15,6.65,6.65,0,0,0,3.08-3.8A2.2,2.2,0,0,1,517.43,1450.36ZM510.11,1431l.45,1.87a1.35,1.35,0,0,1-1.14,1.8l-.83.13a1.27,1.27,0,0,1-1.76-1.1l-.45-1.87a1.35,1.35,0,0,1,1.14-1.8l.83-.14A1.28,1.28,0,0,1,510.11,1431Zm.45,11.63-.45,2a1.26,1.26,0,0,1-1.76,1.1l-.83-.13a1.37,1.37,0,0,1-1.14-1.8l.45-2a1.27,1.27,0,0,1,1.76-1.1l.83.14A1.37,1.37,0,0,1,510.56,1442.6Zm3.5,5.91-2,4.5,9.83,4.22a1.38,1.38,0,0,1,.8,2l-.35.83a1.38,1.38,0,0,1-2,.8l-10.9-4.64a3,3,0,0,1-1.69-1.55,2.81,2.81,0,0,1,.24-2.29l2.42-5.57a1.39,1.39,0,0,1,2.08-.76l.83.35A1.38,1.38,0,0,1,514.06,1448.51Zm2.18-17.4V1444a1.41,1.41,0,0,1-1.59,1.6h-.83a1.41,1.41,0,0,1-1.6-1.6v-12.9a1.41,1.41,0,0,1,1.6-1.59h.83A1.41,1.41,0,0,1,516.24,1431.11Zm5.81.69-.45,1.87a1.28,1.28,0,0,1-1.76,1.1l-.83-.13a1.36,1.36,0,0,1-1.15-1.8l.45-1.87a1.29,1.29,0,0,1,1.77-1.11l.83.14A1.35,1.35,0,0,1,522.05,1431.8Zm-.45,10,.45,2a1.38,1.38,0,0,1-1.14,1.8l-.83.13a1.27,1.27,0,0,1-1.77-1.1l-.45-2a1.38,1.38,0,0,1,1.15-1.8l.83-.14A1.27,1.27,0,0,1,521.6,1441.76Zm14.22-5.43v5.47a24.41,24.41,0,0,1-2.37,10.71,22.35,22.35,0,0,1-7,8.35c-.81.63-1.52.49-2.15-.41l-.48-.76a1.45,1.45,0,0,1,.42-2.22,18.32,18.32,0,0,0,5.62-6.83,20.69,20.69,0,0,0,1.85-8.84v-5.47a1.41,1.41,0,0,1,1.59-1.59h.9A1.41,1.41,0,0,1,535.82,1436.33Zm-7.44-5.19v1.52h7.2a1.45,1.45,0,0,1,1.63,1.63v.9a1.45,1.45,0,0,1-1.63,1.63h-8.37a3,3,0,0,1-2.22-.75,3,3,0,0,1-.76-2.23v-2.7a1.44,1.44,0,0,1,1.63-1.62h.9A1.43,1.43,0,0,1,528.38,1431.14Zm0,8.93v1.73a19.23,19.23,0,0,0,2,8.84,18.18,18.18,0,0,0,6.1,6.76,1.57,1.57,0,0,1,.56,2.29l-.49.76a1.29,1.29,0,0,1-2.14.48,22.48,22.48,0,0,1-7.56-8.37,23.15,23.15,0,0,1-2.54-10.76v-1.73a1.41,1.41,0,0,1,1.59-1.59h.9A1.41,1.41,0,0,1,528.35,1440.07Z"/><path d="M571.39,1449.38v.9a1.41,1.41,0,0,1-1.59,1.59H541.91a1.41,1.41,0,0,1-1.59-1.59v-.9a1.41,1.41,0,0,1,1.59-1.59H569.8A1.41,1.41,0,0,1,571.39,1449.38Zm-.07-14.85v2.36a1.37,1.37,0,0,1-1.55,1.55h-.83a1.38,1.38,0,0,1-1.56-1.55v-1.25h-23v1.25a1.37,1.37,0,0,1-1.55,1.55H542a1.38,1.38,0,0,1-1.56-1.55v-2.36a2.5,2.5,0,0,1,2.84-2.83h25.26A2.5,2.5,0,0,1,571.32,1434.53Zm-5.62,4.93a1.24,1.24,0,0,1,.59,1.46,4.91,4.91,0,0,1-1.47,2.16l-5.92,5.71v9.69a3.06,3.06,0,0,1-.74,2.21,3,3,0,0,1-2.23.76h-3.71a1.41,1.41,0,0,1-1.59-1.59v-.9a1.41,1.41,0,0,1,1.59-1.59h2.46v-8.75a2.77,2.77,0,0,1,1-2.18l3.6-3.4H546.83a1.41,1.41,0,0,1-1.6-1.59v-.9a1.41,1.41,0,0,1,1.6-1.59H563.3A4.67,4.67,0,0,1,565.7,1439.46Zm-7.7-8.63V1432a1.5,1.5,0,0,1-1.69,1.7h-.9a1.51,1.51,0,0,1-1.7-1.7v-1.14a1.51,1.51,0,0,1,1.7-1.7h.9A1.5,1.5,0,0,1,558,1430.83Z"/><path d="M584.66,1434.6a2.87,2.87,0,0,1,.75,2.15v6.12a23.55,23.55,0,0,1-2,10.14,23.14,23.14,0,0,1-6,7.72,1.26,1.26,0,0,1-2.14-.28l-.49-.76a1.65,1.65,0,0,1-.36-1.2,1.86,1.86,0,0,1,.71-1.09,21.21,21.21,0,0,0,3.76-4,15.2,15.2,0,0,0,2.12-4.62,22.08,22.08,0,0,0,.7-5.87v-4.77h-6a1.47,1.47,0,0,1-1.66-1.66v-.9a1.46,1.46,0,0,1,1.66-1.66h6.89A2.91,2.91,0,0,1,584.66,1434.6Zm-4.55-3.29L578.59,1447l7,9a1.45,1.45,0,0,1-.21,2.21l-.69.55a1.26,1.26,0,0,1-2.08-.2l-7.23-9.24a2.83,2.83,0,0,1-.59-2l1.63-16.4a1.24,1.24,0,0,1,1.59-1.28l.83.07A1.34,1.34,0,0,1,580.11,1431.31Zm13.5,20.14a21.08,21.08,0,0,1-2,5.18,13.66,13.66,0,0,1-2.71,3.68,1.3,1.3,0,0,1-2.15,0l-.55-.62a1.44,1.44,0,0,1,0-2.22,16.41,16.41,0,0,0,2.16-3.13,15.44,15.44,0,0,0,1.37-3.48,1.44,1.44,0,0,1,1.83-1.21l.83.07C593.45,1449.91,593.84,1450.48,593.61,1451.45Zm12.84-18.34v.77a1.25,1.25,0,0,1-1.42,1.41H587.62a1.25,1.25,0,0,1-1.42-1.41v-.77a1.25,1.25,0,0,1,1.42-1.41H605A1.25,1.25,0,0,1,606.45,1433.11Zm0,16.2v.76a1.29,1.29,0,0,1-1.46,1.45h-17.3a1.28,1.28,0,0,1-1.45-1.45v-.76a1.29,1.29,0,0,1,1.45-1.46H605A1.29,1.29,0,0,1,606.45,1449.31Zm-14.64-18.13v11.21h9v-11.21a1.41,1.41,0,0,1,1.59-1.6h.83a1.41,1.41,0,0,1,1.59,1.6v12.07a2.81,2.81,0,0,1-.69,2,2.73,2.73,0,0,1-2,.71H590.53a2.77,2.77,0,0,1-2-.7,2.73,2.73,0,0,1-.71-2v-12.07a1.42,1.42,0,0,1,1.6-1.6h.83A1.41,1.41,0,0,1,591.81,1431.18Zm11,7.3v.76a1.19,1.19,0,0,1-1.35,1.35H591.22a1.19,1.19,0,0,1-1.35-1.35v-.76a1.19,1.19,0,0,1,1.35-1.35h10.21A1.19,1.19,0,0,1,602.78,1438.48Zm-4.5,7.26v14.12a1.38,1.38,0,0,1-1.56,1.56h-.83a1.38,1.38,0,0,1-1.56-1.56v-14.12a1.38,1.38,0,0,1,1.56-1.55h.83A1.38,1.38,0,0,1,598.28,1445.74Zm4.53,5.12a17,17,0,0,0,1.52,4,10.28,10.28,0,0,0,2,2.7,1.56,1.56,0,0,1,.54,1.07,1.6,1.6,0,0,1-.5,1.11l-.56.62a1.28,1.28,0,0,1-2.11,0,19.84,19.84,0,0,1-2.94-4.17,19.55,19.55,0,0,1-1.76-4.69,1.25,1.25,0,0,1,1.17-1.73l.83-.14A1.42,1.42,0,0,1,602.81,1450.86Z"/><path d="M618.64,1430.83a1.69,1.69,0,0,1,0,1.21q-1.45,4.26-3.22,8.39c-1.18,2.76-2.36,5.27-3.56,7.53a1.25,1.25,0,0,1-.9.73,1.31,1.31,0,0,1-1.14-.42l-.66-.76a2,2,0,0,1-.42-2.53,98.89,98.89,0,0,0,6-14.18,1.62,1.62,0,0,1,.75-1.09,1.32,1.32,0,0,1,1.26,0l.83.27A2,2,0,0,1,618.64,1430.83Zm-2.06,12.53v16.5a1.41,1.41,0,0,1-1.59,1.59h-.9a1.41,1.41,0,0,1-1.59-1.59v-16.5a1.41,1.41,0,0,1,1.59-1.6h.9A1.41,1.41,0,0,1,616.58,1443.36Zm8.52-2.18A86.94,86.94,0,0,1,621,1458a1.33,1.33,0,0,1-2,.94l-.84-.28a1.46,1.46,0,0,1-.93-2.11,73,73,0,0,0,2.39-8.08,68.06,68.06,0,0,0,1.38-7.77,1.43,1.43,0,0,1,1.8-1.38l.9.07A1.44,1.44,0,0,1,625.1,1441.18Zm15.81-5.54v.83a1.41,1.41,0,0,1-1.59,1.59H619.8a1.41,1.41,0,0,1-1.59-1.59v-.83a1.41,1.41,0,0,1,1.59-1.59h19.52A1.41,1.41,0,0,1,640.91,1435.64Zm-5.12,17.61v.83a1.38,1.38,0,0,1-1.56,1.56h-9.34a1.38,1.38,0,0,1-1.56-1.56v-.83a1.37,1.37,0,0,1,1.56-1.55h9.34A1.37,1.37,0,0,1,635.79,1453.25Zm-4.19-22.07v28.65a1.41,1.41,0,0,1-1.59,1.59h-.9a1.41,1.41,0,0,1-1.59-1.59v-28.65a1.41,1.41,0,0,1,1.59-1.6h.9A1.41,1.41,0,0,1,631.6,1431.18Zm6.51,9.51a82.83,82.83,0,0,0,3.8,15.85,1.52,1.52,0,0,1-1,2.11l-.83.28a1.33,1.33,0,0,1-2-.94,76.6,76.6,0,0,1-4.05-16.81q-.28-1.56,1.35-1.8l.9-.07A1.44,1.44,0,0,1,638.11,1440.69Z"/><path d="M666.58,1451.76v.84a1.41,1.41,0,0,1-1.59,1.59H645.68a1.41,1.41,0,0,1-1.59-1.59v-.84a1.41,1.41,0,0,1,1.59-1.59H665A1.41,1.41,0,0,1,666.58,1451.76Zm-13.53-20.2-1.24,10.1h19.55a3,3,0,0,1,2.21.74,3,3,0,0,1,.76,2.24v13.56a2.64,2.64,0,0,1-3,3H667a1.41,1.41,0,0,1-1.59-1.6v-.86a1.41,1.41,0,0,1,1.59-1.59h3v-11.42H650.36a3,3,0,0,1-2.39-.87,3.09,3.09,0,0,1-.59-2.49l1.38-11.28a1.54,1.54,0,0,1,1.91-1.49l.9.07A1.53,1.53,0,0,1,653.05,1431.56Zm21.28,2.77v.83a1.41,1.41,0,0,1-1.59,1.59H652.05a1.41,1.41,0,0,1-1.59-1.59v-.83a1.41,1.41,0,0,1,1.59-1.6h20.69A1.41,1.41,0,0,1,674.33,1434.33Z"/><path d="M683.78,1440.64a3.09,3.09,0,0,1,.8,2.3v13.77H685c1.06,0,1.59.57,1.59,1.7v.9a1.5,1.5,0,0,1-1.7,1.69h-1.42a3.12,3.12,0,0,1-2.28-.78,3.06,3.06,0,0,1-.8-2.3v-13.77h-.69a1.49,1.49,0,0,1-1.69-1.69v-.9a1.5,1.5,0,0,1,1.69-1.7h1.84A3.12,3.12,0,0,1,683.78,1440.64Zm.28-10.16,2.18,4.29a1.47,1.47,0,0,1-.76,2.22l-.83.41a1.46,1.46,0,0,1-2.22-.76l-2.18-4.29a1.46,1.46,0,0,1,.76-2.21l.83-.42A1.47,1.47,0,0,1,684.06,1430.48Zm22.07.47a3,3,0,0,1,.76,2.23v4.33h1.73a1.44,1.44,0,0,1,1.63,1.62v.9a1.44,1.44,0,0,1-1.63,1.63h-2.9a3.08,3.08,0,0,1-2.22-.74,3,3,0,0,1-.76-2.23v-4.33h-8.61v0a8.82,8.82,0,0,1-1.08,4.21,10.52,10.52,0,0,1-3.14,3.55,1.41,1.41,0,0,1-1.2.34,1.53,1.53,0,0,1-1-.79l-.48-.84a1.6,1.6,0,0,1,.55-2.31,5.4,5.4,0,0,0,1.64-1.89,5,5,0,0,0,.5-2.27v-1.21a3,3,0,0,1,.75-2.21,3,3,0,0,1,2.23-.76h11A3,3,0,0,1,706.13,1431Zm1.23,13.06a2.11,2.11,0,0,1,.92,1.61,5.08,5.08,0,0,1-.59,2.55,22.12,22.12,0,0,1-4.29,5.83,26.11,26.11,0,0,1-6.19,4.46,36.92,36.92,0,0,1-7.79,3,1.76,1.76,0,0,1-1.3-.07,1.66,1.66,0,0,1-.71-1.11l-.13-.83a1.49,1.49,0,0,1,1.17-2,34.61,34.61,0,0,0,6.49-2.37,22.64,22.64,0,0,0,4.95-3.23,17.82,17.82,0,0,0,3.51-4.19H689.8a1.44,1.44,0,0,1-1.63-1.62v-.9a1.44,1.44,0,0,1,1.63-1.63h15.43A3.78,3.78,0,0,1,707.36,1444ZM693,1447.66a1.85,1.85,0,0,1,1,.82,22.15,22.15,0,0,0,6.32,5.59,28.08,28.08,0,0,0,8.63,3.3,1.5,1.5,0,0,1,1.21,2l-.14.9a1.4,1.4,0,0,1-2,1.17,37.4,37.4,0,0,1-10.43-4.29,25.44,25.44,0,0,1-7.18-6.47,1.37,1.37,0,0,1,.48-2.21l.76-.49A1.71,1.71,0,0,1,693,1447.66Z"/><path d="M719.11,1440.64a3.09,3.09,0,0,1,.8,2.3v13.77h1.62a1.51,1.51,0,0,1,1.7,1.7v.9a1.5,1.5,0,0,1-1.7,1.69h-2.8a3.12,3.12,0,0,1-2.28-.78,3,3,0,0,1-.8-2.3v-13.77h-1.38a1.49,1.49,0,0,1-1.7-1.69v-.9a1.5,1.5,0,0,1,1.7-1.7h2.56A3.12,3.12,0,0,1,719.11,1440.64Zm-.07-10.19,2.18,4.29a1.47,1.47,0,0,1-.76,2.22l-.83.48a1.47,1.47,0,0,1-2.22-.76l-2.18-4.29a1.47,1.47,0,0,1,.77-2.22l.83-.48A1.46,1.46,0,0,1,719,1430.45ZM745,1443v.9a1.5,1.5,0,0,1-1.69,1.7H725.13a1.51,1.51,0,0,1-1.7-1.7v-.9a1.51,1.51,0,0,1,1.7-1.7H743.3A1.5,1.5,0,0,1,745,1443Zm-8.72-11.76v28.51a1.47,1.47,0,0,1-1.66,1.66h-.9a1.47,1.47,0,0,1-1.66-1.66v-28.51a1.47,1.47,0,0,1,1.66-1.67h.9A1.47,1.47,0,0,1,736.27,1431.25Z"/><path d="M779.21,1450.76v.83a1.41,1.41,0,0,1-1.59,1.59h-28.3a1.41,1.41,0,0,1-1.6-1.59v-.83a1.41,1.41,0,0,1,1.6-1.59h28.3A1.41,1.41,0,0,1,779.21,1450.76ZM778,1435.59a2.84,2.84,0,0,1,.71,2.09v4a1.38,1.38,0,0,1-1.56,1.56h-.83a1.38,1.38,0,0,1-1.56-1.56v-3H752.22v3a1.38,1.38,0,0,1-1.55,1.56h-.83a1.38,1.38,0,0,1-1.56-1.56v-4a2.8,2.8,0,0,1,.71-2.09,2.84,2.84,0,0,1,2.09-.71h24.78A2.84,2.84,0,0,1,778,1435.59Zm-22.51-4.83.49,1.39a1.45,1.45,0,0,1-1,2.07l-.83.28a1.46,1.46,0,0,1-2.08-1l-.48-1.38a1.45,1.45,0,0,1,1-2.08l.83-.28A1.45,1.45,0,0,1,755.44,1430.76Zm17,10.85a1.18,1.18,0,0,1,.59,1.45,5,5,0,0,1-1.58,2.16l-5.12,4.75v8.54a2.6,2.6,0,0,1-2.94,2.94h-4.46a1.38,1.38,0,0,1-1.56-1.55v-.83a1.38,1.38,0,0,1,1.56-1.56h3.18v-7.37A3,3,0,0,1,763,1448l3.15-3H755a1.38,1.38,0,0,1-1.56-1.56v-.83a1.38,1.38,0,0,1,1.56-1.55H769.8A5.34,5.34,0,0,1,772.45,1441.61Zm-6.91-10.88v1.66a1.43,1.43,0,0,1-1.62,1.62H763a1.44,1.44,0,0,1-1.63-1.62v-1.66a1.44,1.44,0,0,1,1.63-1.63h.9A1.44,1.44,0,0,1,765.54,1430.73Zm9.9,1.35-.48,1.38a1.46,1.46,0,0,1-2.08,1l-.83-.28a1.45,1.45,0,0,1-1-2.07l.49-1.39a1.45,1.45,0,0,1,2.07-1l.83.28A1.45,1.45,0,0,1,775.44,1432.08Z"/><path d="M793,1431.25a3.06,3.06,0,0,1,.78,2.35,29.14,29.14,0,0,1-1.49,8.79,12.63,12.63,0,0,1,1.66,4.37,12.89,12.89,0,0,1,0,4.55,11.51,11.51,0,0,1-1.51,4,1.24,1.24,0,0,1-2,.59l-.76-.49a1.57,1.57,0,0,1-.59-2.25,11.08,11.08,0,0,0,1.09-3.3A6.62,6.62,0,0,0,790,1447a7.17,7.17,0,0,0-1.45-2.6,2.15,2.15,0,0,1-.42-2.25,23.54,23.54,0,0,0,1.7-7.44h-3.05v25.19a1.38,1.38,0,0,1-1.56,1.56h-.83a1.38,1.38,0,0,1-1.55-1.56v-26.47a2.6,2.6,0,0,1,2.94-2.94h4.88A3.25,3.25,0,0,1,793,1431.25Zm9.74,17.57a17.27,17.27,0,0,1-1.94,6.87,16.05,16.05,0,0,1-4.78,5.42,1.29,1.29,0,0,1-2.11-.42l-.48-.76a1.49,1.49,0,0,1,.45-2.21,12.21,12.21,0,0,0,3.74-4.23,9.89,9.89,0,0,0,1.1-4.67,1.52,1.52,0,0,1,1.66-1.59h.83Q802.89,1447.23,802.78,1448.82Zm10.6-16.43a2.84,2.84,0,0,1,.75,2.14v1.91a1.41,1.41,0,0,1-1.59,1.59h-.83a1.41,1.41,0,0,1-1.6-1.59v-.8H798.45v.8a1.41,1.41,0,0,1-1.59,1.59H796a1.41,1.41,0,0,1-1.59-1.59v-1.91a2.91,2.91,0,0,1,.73-2.13,2.86,2.86,0,0,1,2.14-.74h13.94A2.88,2.88,0,0,1,813.38,1432.39Zm.5,14.39v.87a1.36,1.36,0,0,1-1.55,1.55H796.24a1.41,1.41,0,0,1-1.59-1.59v-.79a1.41,1.41,0,0,1,1.59-1.6h16.09A1.37,1.37,0,0,1,813.88,1446.78Zm-1.17-6.61v.87a1.38,1.38,0,0,1-1.56,1.56h-13.7a1.41,1.41,0,0,1-1.59-1.6v-.79a1.41,1.41,0,0,1,1.59-1.59h13.7A1.37,1.37,0,0,1,812.71,1440.17Zm-6.37-9,0,.83a1.47,1.47,0,0,1-1.6,1.63h-1c-1.07.05-1.6-.47-1.6-1.56l0-.83a1.46,1.46,0,0,1,1.59-1.63h1Q806.34,1429.52,806.34,1431.14Zm2.46,17.75v8.2h2v-1.21a1.41,1.41,0,0,1,1.59-1.59h.83a1.41,1.41,0,0,1,1.59,1.59v2.39a2.89,2.89,0,0,1-.74,2.16,2.92,2.92,0,0,1-2.16.75h-4.19a2.62,2.62,0,0,1-2.91-2.91v-9.38a1.41,1.41,0,0,1,1.6-1.59h.83A1.41,1.41,0,0,1,808.8,1448.89Z"/><rect class="cls-12" x="225.9" y="1184.47" width="673.2" height="150.57" rx="75.28"/><path class="cls-13" d="M310.08,1244.78v.49a.74.74,0,0,1-.84.83h-9.55V1258a46.17,46.17,0,0,1-.69,8,24.73,24.73,0,0,1-2.28,7,.7.7,0,0,1-1.07.42l-.49-.31c-.48-.21-.6-.59-.34-1.14a25.69,25.69,0,0,0,2-6.54,42.62,42.62,0,0,0,.64-7.44v-12.46a1.53,1.53,0,0,1,.42-1.16,1.58,1.58,0,0,1,1.14-.4h10.2A.74.74,0,0,1,310.08,1244.78Zm-1.82,7.7a1.56,1.56,0,0,1,.4,1.13v8.85a1.56,1.56,0,0,1-.4,1.13,1.6,1.6,0,0,1-1.16.4h-7.68a.73.73,0,0,1-.83-.83v-.49a.73.73,0,0,1,.83-.83h7.09v-7.61h-7.09a.73.73,0,0,1-.83-.83v-.48a.74.74,0,0,1,.83-.84h7.68A1.6,1.6,0,0,1,308.26,1252.48Zm16.45-9.18a.88.88,0,0,1,.69,0,.79.79,0,0,1,.38.57l.07.48a.8.8,0,0,1-.05.66,1,1,0,0,1-.6.38,40.44,40.44,0,0,1-7.79.66h-3v12.07a32.35,32.35,0,0,1-1,7.95,23.52,23.52,0,0,1-3.15,7.21.76.76,0,0,1-1.17.28l-.42-.31a.8.8,0,0,1-.4-.52,1.05,1.05,0,0,1,.19-.7,21.56,21.56,0,0,0,2.86-6.54,29.88,29.88,0,0,0,.88-7.37v-12.69a1.58,1.58,0,0,1,.4-1.15,1.55,1.55,0,0,1,1.16-.41h3.63A37.65,37.65,0,0,0,324.71,1243.3Zm1.94,11.28v.51a.74.74,0,0,1-.83.84H314.37a.76.76,0,0,1-.87-.84v-.51c0-.56.29-.83.87-.83h11.45A.73.73,0,0,1,326.65,1254.58Zm-3.53,1.14v17.33a.77.77,0,0,1-.87.87h-.44a.77.77,0,0,1-.87-.87v-17.33a.78.78,0,0,1,.87-.9h.44A.78.78,0,0,1,323.12,1255.72Z"/><path class="cls-13" d="M344,1244.09a54.84,54.84,0,0,1-5.31,9.66,51.56,51.56,0,0,1-7,8.23.76.76,0,0,1-1.24,0l-.35-.35a.74.74,0,0,1,.07-1.21A54.05,54.05,0,0,0,342,1243.23c.21-.56.57-.72,1.08-.49l.48.21A.78.78,0,0,1,344,1244.09Zm16.61,3.36v.48a.77.77,0,0,1-.87.87H331.32a.76.76,0,0,1-.86-.87v-.48a.76.76,0,0,1,.86-.87h28.44A.77.77,0,0,1,360.63,1247.45Zm-24.53,11.49v14.15a.77.77,0,0,1-.87.86h-.48a.77.77,0,0,1-.87-.86v-14.15a.78.78,0,0,1,.87-.9h.48A.78.78,0,0,1,336.1,1258.94ZM361,1271.77v.45a.79.79,0,0,1-.89.9H340.35c-.58,0-.86-.3-.86-.9v-.45a.76.76,0,0,1,.86-.86h19.73A.78.78,0,0,1,361,1271.77Zm-.83-13.08v.49c0,.57-.3.86-.9.86H341.18a.76.76,0,0,1-.86-.86v-.49a.76.76,0,0,1,.86-.86h18.06C359.84,1257.83,360.14,1258.12,360.14,1258.69Zm-8.82-5.36v17.92a.78.78,0,0,1-.9.87H350a.76.76,0,0,1-.86-.87v-17.92a.76.76,0,0,1,.86-.87h.45A.78.78,0,0,1,351.32,1253.33Z"/><path class="cls-13" d="M395.68,1263.85v.45c0,.58-.28.86-.83.86H365.44c-.56,0-.83-.28-.83-.86v-.45a.73.73,0,0,1,.83-.83h29.41A.74.74,0,0,1,395.68,1263.85ZM394.56,1249a1.53,1.53,0,0,1,.39,1.12v4.54c0,.55-.28.83-.86.83h-.42a.75.75,0,0,1-.86-.83v-4H367.48v4c0,.55-.29.83-.87.83h-.41c-.58,0-.87-.28-.87-.83v-4.54a1.53,1.53,0,0,1,.4-1.12,1.56,1.56,0,0,1,1.16-.4H393.4A1.57,1.57,0,0,1,394.56,1249ZM371,1243.33l1.11,3.18a.75.75,0,0,1-.52,1.08l-.45.13a.77.77,0,0,1-1.1-.51L368.9,1244a.74.74,0,0,1,.52-1.07l.48-.14A.74.74,0,0,1,371,1243.33Zm18.83,11.42a.59.59,0,0,1,.29.83,3.63,3.63,0,0,1-1.09,1.28l-7.44,5.19v10.38A1.38,1.38,0,0,1,380,1274h-3.88a.74.74,0,0,1-.83-.83v-.45a.73.73,0,0,1,.83-.83h3.22v-9.8a1.65,1.65,0,0,1,.52-1.21l6.26-4.25h-15c-.55,0-.83-.29-.83-.87v-.41c0-.58.28-.87.83-.87h17A3.65,3.65,0,0,1,389.8,1254.75Zm-8.55-11.32v3.22a.77.77,0,0,1-.86.87h-.49a.77.77,0,0,1-.86-.87v-3.22a.76.76,0,0,1,.86-.86h.49A.76.76,0,0,1,381.25,1243.43Zm10.14.59-1.11,3.19a.77.77,0,0,1-1.1.51l-.45-.13a.75.75,0,0,1-.52-1.08l1.1-3.18a.76.76,0,0,1,1.08-.52l.48.14A.74.74,0,0,1,391.39,1244Z"/><path class="cls-13" d="M402,1254.23v4.46a54.89,54.89,0,0,1-.94,10.8.66.66,0,0,1-.93.59h-.42a.74.74,0,0,1-.62-1,50.86,50.86,0,0,0,.94-10.42v-4.46a.67.67,0,0,1,.76-.76h.45A.67.67,0,0,1,402,1254.23Zm8.41-5v.48a.78.78,0,0,1-.9.87H400a.76.76,0,0,1-.86-.87v-.48a.76.76,0,0,1,.86-.87h9.45A.78.78,0,0,1,410.39,1249.18Zm-3.46-5.61v29.59a.74.74,0,0,1-.83.83h-.49a.74.74,0,0,1-.83-.83v-29.59a.74.74,0,0,1,.83-.83h.49A.74.74,0,0,1,406.93,1243.57Zm3.53,15.78-.28.45a.72.72,0,0,1-1.14.28l-3-1.77a.73.73,0,0,1-.28-1.14l.28-.48a.78.78,0,0,1,1.17-.28l3,1.8A.72.72,0,0,1,410.46,1259.35Zm16.6-1a28,28,0,0,1-3.89,6.74,28.84,28.84,0,0,1-5.22,5.25,29.87,29.87,0,0,1-5.59,3.44.81.81,0,0,1-1.18-.42l-.17-.48q-.37-.69.45-1.14a29.4,29.4,0,0,0,8-5.69,23.93,23.93,0,0,0,5.57-8.46.8.8,0,0,1,1.15-.49l.41.14A.74.74,0,0,1,427.06,1258.35Zm3.22-11.14v.48a.75.75,0,0,1-.86.83H412a.74.74,0,0,1-.83-.83v-.48a.73.73,0,0,1,.83-.83h17.41C430,1246.38,430.28,1246.65,430.28,1247.21Zm-12.87,4.42-.35.56q-1,1.51-2.07,2.82a20.34,20.34,0,0,1-1.94,2.13.72.72,0,0,1-1.18,0l-.38-.28a.77.77,0,0,1,0-1.21c.63-.69,1.24-1.41,1.86-2.15s1.21-1.52,1.81-2.35l.45-.69a.73.73,0,0,1,1.14-.24l.45.27A.73.73,0,0,1,417.41,1251.63Zm-1,6a26.65,26.65,0,0,0,13.6,14.15q.8.42.45,1.14l-.18.48a.78.78,0,0,1-.45.51,1.13,1.13,0,0,1-.72-.12,29.41,29.41,0,0,1-5.87-3.64,29.85,29.85,0,0,1-5.17-5.24,27.84,27.84,0,0,1-3.77-6.52.79.79,0,0,1,.52-1.11l.45-.14A.79.79,0,0,1,416.41,1257.59Zm5.4-14v3a.77.77,0,0,1-.87.87h-.45a.76.76,0,0,1-.86-.87v-3c0-.6.28-.9.86-.9h.45A.78.78,0,0,1,421.81,1243.54Zm4,6.92.11.14q1.14,1.65,2.16,2.94a22.37,22.37,0,0,0,1.89,2.11.77.77,0,0,1,0,1.21l-.38.28a.72.72,0,0,1-1.18,0c-.69-.74-1.37-1.51-2-2.3s-1.3-1.66-1.92-2.58l-.42-.63a.73.73,0,0,1,.24-1.14l.42-.27A.69.69,0,0,1,425.78,1250.46Z"/><path d="M588.52,1248.25v.9a1.49,1.49,0,0,1-1.69,1.69H564.3v8.62a31.42,31.42,0,0,1-.85,7.25,26.22,26.22,0,0,1-2.64,6.83,1.45,1.45,0,0,1-2.29.59l-.83-.48a1.63,1.63,0,0,1-.59-2.39,24.37,24.37,0,0,0,2.84-11.8v-9.79a2.8,2.8,0,0,1,3.11-3.12h23.78A1.5,1.5,0,0,1,588.52,1248.25Zm-12-3.29V1247a1.47,1.47,0,0,1-1.66,1.66H574a1.47,1.47,0,0,1-1.66-1.66V1245a1.46,1.46,0,0,1,1.66-1.66h.9A1.46,1.46,0,0,1,576.55,1245Z"/><path d="M623.33,1248.46v.89a1.41,1.41,0,0,1-1.59,1.6h-28a1.41,1.41,0,0,1-1.59-1.6v-.89a1.41,1.41,0,0,1,1.59-1.6h28A1.41,1.41,0,0,1,623.33,1248.46Zm-24,18.58c-.6,1.27-1.19,2.5-1.78,3.7a24.54,24.54,0,0,1-1.4,2.56,1.41,1.41,0,0,1-2.25.55l-.76-.48a1.5,1.5,0,0,1-.59-2.29,61.21,61.21,0,0,0,2.94-5.67,1.46,1.46,0,0,1,2.15-.9l.83.35A1.46,1.46,0,0,1,599.35,1267Zm7.93-20.87-8.07,12.29h20.63a1.41,1.41,0,0,1,1.59,1.59v.9a1.41,1.41,0,0,1-1.59,1.59H597c-1.8,0-2.91-.39-3.34-1.16s-.14-1.92.85-3.44l9.21-14a1.45,1.45,0,0,1,2.28-.52l.76.48A1.46,1.46,0,0,1,607.28,1246.17Zm3.28,8.89V1272a3.08,3.08,0,0,1-.74,2.22,3,3,0,0,1-2.23.76h-3.53a1.41,1.41,0,0,1-1.59-1.59v-.87a1.41,1.41,0,0,1,1.59-1.59h2.21v-15.85a1.5,1.5,0,0,1,1.7-1.69h.9A1.49,1.49,0,0,1,610.56,1255.06Zm9.45,10.35c.55,1.18,1.11,2.3,1.66,3.37s1,1.84,1.28,2.3a1.5,1.5,0,0,1-.59,2.29l-.76.48a1.41,1.41,0,0,1-2.25-.55,64.17,64.17,0,0,1-3.18-6.26,1.46,1.46,0,0,1,.86-2.18l.83-.35A1.46,1.46,0,0,1,620,1265.41Z"/><path d="M657.93,1248.46v.89a1.41,1.41,0,0,1-1.59,1.6h-28a1.41,1.41,0,0,1-1.59-1.6v-.89a1.41,1.41,0,0,1,1.59-1.6h28A1.41,1.41,0,0,1,657.93,1248.46ZM634,1267c-.6,1.27-1.19,2.5-1.78,3.7a22.77,22.77,0,0,1-1.4,2.56,1.41,1.41,0,0,1-2.25.55l-.76-.48a1.5,1.5,0,0,1-.59-2.29,61.21,61.21,0,0,0,2.94-5.67,1.46,1.46,0,0,1,2.15-.9l.83.35A1.46,1.46,0,0,1,634,1267Zm7.93-20.87-8.06,12.29h20.62a1.41,1.41,0,0,1,1.59,1.59v.9a1.41,1.41,0,0,1-1.59,1.59h-22.8c-1.8,0-2.92-.39-3.34-1.16s-.15-1.92.84-3.44l9.21-14a1.45,1.45,0,0,1,2.28-.52l.76.48A1.46,1.46,0,0,1,641.88,1246.17Zm3.29,8.89V1272a3,3,0,0,1-.75,2.22,3,3,0,0,1-2.23.76h-3.53a1.41,1.41,0,0,1-1.59-1.59v-.87a1.41,1.41,0,0,1,1.59-1.59h2.22v-15.85a1.49,1.49,0,0,1,1.69-1.69h.9A1.5,1.5,0,0,1,645.17,1255.06Zm9.44,10.35c.56,1.18,1.11,2.3,1.66,3.37s1,1.84,1.28,2.3a1.5,1.5,0,0,1-.59,2.29l-.76.48a1.41,1.41,0,0,1-2.25-.55,64.17,64.17,0,0,1-3.18-6.26,1.46,1.46,0,0,1,.87-2.18l.83-.35A1.45,1.45,0,0,1,654.61,1265.41Z"/><path d="M676.13,1266.73v.86a1.38,1.38,0,0,1-1.55,1.56H662.4a1.41,1.41,0,0,1-1.6-1.59v-.8a1.41,1.41,0,0,1,1.6-1.59h12.18A1.38,1.38,0,0,1,676.13,1266.73Zm-.76-18.31v.87a1.37,1.37,0,0,1-1.55,1.55H662.64a1.41,1.41,0,0,1-1.59-1.59v-.79a1.41,1.41,0,0,1,1.59-1.6h11.14A1.39,1.39,0,0,1,675.37,1248.42Zm-5.81-2.8-3.91,11.9h7.72a1.35,1.35,0,0,1,1.52,1.52v.83a1.35,1.35,0,0,1-1.52,1.53h-9.14a3,3,0,0,1-2.58-.92,2.93,2.93,0,0,1,0-2.72l4.36-13.32a1.33,1.33,0,0,1,1.87-1l.76.28A1.33,1.33,0,0,1,669.56,1245.62Zm1.63,15.53v12.36a1.44,1.44,0,0,1-1.63,1.62h-.9a1.44,1.44,0,0,1-1.63-1.62v-12.36a1.44,1.44,0,0,1,1.63-1.62h.9A1.44,1.44,0,0,1,671.19,1261.15Zm.13-7.05v3.77a1.28,1.28,0,0,1-1.45,1.45H669a1.28,1.28,0,0,1-1.45-1.45v-3.77a1.29,1.29,0,0,1,1.45-1.46h.83A1.29,1.29,0,0,1,671.32,1254.1Zm14.68.76v2.45a22.8,22.8,0,0,1-1.94,9.48,21.55,21.55,0,0,1-6.23,7.79,1.39,1.39,0,0,1-2.28-.28l-.56-.76a1.56,1.56,0,0,1,.31-2.35,16.75,16.75,0,0,0,5-6.19,19,19,0,0,0,1.45-7.69v-2.45a1.47,1.47,0,0,1,1.66-1.66h.9A1.47,1.47,0,0,1,686,1254.86Zm-5-9.9v1.59h8.48a2.66,2.66,0,0,1,3,3V1253a1.46,1.46,0,0,1-1.66,1.66h-.9a1.5,1.5,0,0,1-1.7-1.69v-2.29h-8.47q-3,0-3-3V1245a1.49,1.49,0,0,1,1.69-1.7h.9A1.46,1.46,0,0,1,681,1245Zm5,14a17,17,0,0,0,1.79,6.67,17.76,17.76,0,0,0,4.65,5.55,1.56,1.56,0,0,1,.31,2.35l-.55.76a1.4,1.4,0,0,1-2.29.28,23,23,0,0,1-6.21-7.53,17.7,17.7,0,0,1-1.92-8.08c-.07-1.1.46-1.66,1.59-1.66h.9A1.55,1.55,0,0,1,686.06,1259Z"/><path d="M727.31,1264.48v.83a1.41,1.41,0,0,1-1.59,1.59H697.41a1.41,1.41,0,0,1-1.59-1.59v-.83a1.41,1.41,0,0,1,1.59-1.6h28.31A1.41,1.41,0,0,1,727.31,1264.48Zm-1.26-15.18a2.87,2.87,0,0,1,.71,2.1v4a1.38,1.38,0,0,1-1.56,1.55h-.83a1.38,1.38,0,0,1-1.56-1.55v-3H700.32v3a1.38,1.38,0,0,1-1.56,1.55h-.83a1.37,1.37,0,0,1-1.55-1.55v-4a2.5,2.5,0,0,1,2.8-2.81H724A2.87,2.87,0,0,1,726.05,1249.3Zm-22.51-4.82.48,1.38a1.45,1.45,0,0,1-1,2.08l-.83.27a1.45,1.45,0,0,1-2.08-1l-.49-1.38a1.46,1.46,0,0,1,1-2.08l.83-.27A1.45,1.45,0,0,1,703.54,1244.48Zm17,10.84a1.18,1.18,0,0,1,.58,1.46,5,5,0,0,1-1.57,2.16l-5.12,4.74v8.55a2.6,2.6,0,0,1-2.94,2.94H707a1.38,1.38,0,0,1-1.55-1.56v-.83a1.38,1.38,0,0,1,1.55-1.56h3.19v-7.37a2.94,2.94,0,0,1,.86-2.11l3.15-3H703.05a1.38,1.38,0,0,1-1.55-1.56v-.83a1.38,1.38,0,0,1,1.55-1.56H717.9A5.45,5.45,0,0,1,720.55,1255.32Zm-6.91-10.88v1.66a1.44,1.44,0,0,1-1.62,1.63h-.9a1.44,1.44,0,0,1-1.63-1.63v-1.66a1.44,1.44,0,0,1,1.63-1.63h.9A1.44,1.44,0,0,1,713.64,1244.44Zm9.9,1.35-.49,1.38a1.44,1.44,0,0,1-2.07,1l-.83-.27a1.45,1.45,0,0,1-1-2.08l.48-1.38a1.45,1.45,0,0,1,2.08-1l.83.27A1.46,1.46,0,0,1,723.54,1245.79Z"/><path d="M741.13,1245a3,3,0,0,1,.78,2.35,28.83,28.83,0,0,1-1.49,8.79,12.41,12.41,0,0,1,1.66,4.38,12.66,12.66,0,0,1,0,4.55,11.45,11.45,0,0,1-1.5,4c-.49,1-1.17,1.17-2,.59l-.77-.48a1.57,1.57,0,0,1-.58-2.25,11.53,11.53,0,0,0,1.09-3.31,6.78,6.78,0,0,0-.19-2.92,7.28,7.28,0,0,0-1.46-2.6,2.15,2.15,0,0,1-.41-2.24,23.66,23.66,0,0,0,1.69-7.44h-3v25.19a1.38,1.38,0,0,1-1.56,1.55h-.83a1.38,1.38,0,0,1-1.56-1.55v-26.47a2.61,2.61,0,0,1,2.94-2.95h4.88A3.25,3.25,0,0,1,741.13,1245Zm9.74,17.58a17.26,17.26,0,0,1-1.93,6.87,16,16,0,0,1-4.78,5.41,1.29,1.29,0,0,1-2.11-.41l-.48-.76a1.5,1.5,0,0,1,.45-2.22,12.15,12.15,0,0,0,3.73-4.22,10.05,10.05,0,0,0,1.11-4.67,1.52,1.52,0,0,1,1.66-1.59h.83C750.44,1261,750.94,1261.48,750.87,1262.54Zm10.61-16.44a2.86,2.86,0,0,1,.74,2.15v1.9a1.41,1.41,0,0,1-1.59,1.59h-.83a1.41,1.41,0,0,1-1.59-1.59v-.8H746.55v.8a1.41,1.41,0,0,1-1.59,1.59h-.83a1.41,1.41,0,0,1-1.59-1.59v-1.9a3,3,0,0,1,.72-2.13,2.86,2.86,0,0,1,2.15-.74h13.94A3,3,0,0,1,761.48,1246.1Zm.5,14.4v.86a1.38,1.38,0,0,1-1.56,1.56H744.33a1.41,1.41,0,0,1-1.59-1.59v-.8a1.41,1.41,0,0,1,1.59-1.59h16.09A1.38,1.38,0,0,1,762,1260.5Zm-1.18-6.61v.86a1.37,1.37,0,0,1-1.55,1.56H745.54a1.41,1.41,0,0,1-1.59-1.59v-.8a1.41,1.41,0,0,1,1.59-1.59h13.71A1.37,1.37,0,0,1,760.8,1253.89Zm-6.36-9,0,.83a1.45,1.45,0,0,1-1.59,1.62h-1c-1.06,0-1.59-.47-1.59-1.55l0-.83a1.46,1.46,0,0,1,1.59-1.63h1Q754.44,1243.22,754.44,1244.86Zm2.45,17.75v8.2h2v-1.21a1.41,1.41,0,0,1,1.59-1.59h.83a1.41,1.41,0,0,1,1.59,1.59V1272a2.6,2.6,0,0,1-2.91,2.91h-4.18a2.6,2.6,0,0,1-2.91-2.91v-9.37a1.41,1.41,0,0,1,1.59-1.59h.83A1.41,1.41,0,0,1,756.89,1262.61Z"/><rect class="cls-12" x="225.9" y="1557.04" width="673.2" height="150.57" rx="75.28"/><path class="cls-13" d="M310.08,1617.35v.49a.74.74,0,0,1-.84.83h-9.55v11.87a46.17,46.17,0,0,1-.69,8,24.73,24.73,0,0,1-2.28,7,.7.7,0,0,1-1.07.42l-.49-.31c-.48-.21-.6-.59-.34-1.14a25.69,25.69,0,0,0,2-6.54,42.62,42.62,0,0,0,.64-7.44v-12.46a1.53,1.53,0,0,1,.42-1.16,1.58,1.58,0,0,1,1.14-.4h10.2A.74.74,0,0,1,310.08,1617.35Zm-1.82,7.7a1.56,1.56,0,0,1,.4,1.13V1635a1.53,1.53,0,0,1-.4,1.12,1.56,1.56,0,0,1-1.16.4h-7.68a.73.73,0,0,1-.83-.83v-.49a.73.73,0,0,1,.83-.83h7.09v-7.61h-7.09a.73.73,0,0,1-.83-.83v-.48a.74.74,0,0,1,.83-.84h7.68A1.6,1.6,0,0,1,308.26,1625.05Zm16.45-9.18a.88.88,0,0,1,.69.05.79.79,0,0,1,.38.57l.07.48a.8.8,0,0,1-.05.66,1,1,0,0,1-.6.38,40.44,40.44,0,0,1-7.79.66h-3v12.07a32.35,32.35,0,0,1-1,8,23.52,23.52,0,0,1-3.15,7.21.76.76,0,0,1-1.17.28l-.42-.31a.8.8,0,0,1-.4-.52,1.05,1.05,0,0,1,.19-.7,21.56,21.56,0,0,0,2.86-6.54,29.83,29.83,0,0,0,.88-7.37v-12.69a1.58,1.58,0,0,1,.4-1.15,1.55,1.55,0,0,1,1.16-.41h3.63A37.65,37.65,0,0,0,324.71,1615.87Zm1.94,11.28v.52a.74.74,0,0,1-.83.83H314.37c-.58,0-.87-.28-.87-.83v-.52c0-.56.29-.83.87-.83h11.45A.73.73,0,0,1,326.65,1627.15Zm-3.53,1.14v17.33a.77.77,0,0,1-.87.87h-.44a.77.77,0,0,1-.87-.87v-17.33a.78.78,0,0,1,.87-.9h.44A.78.78,0,0,1,323.12,1628.29Z"/><path class="cls-13" d="M361.08,1636.42v.45c0,.58-.28.86-.83.86H330.84c-.56,0-.83-.28-.83-.86v-.45a.73.73,0,0,1,.83-.83h29.41A.74.74,0,0,1,361.08,1636.42ZM360,1621.56a1.49,1.49,0,0,1,.4,1.12v4.54a.75.75,0,0,1-.86.83h-.42c-.58,0-.86-.28-.86-.83v-4H332.88v4c0,.55-.29.83-.87.83h-.41c-.58,0-.87-.28-.87-.83v-4.54a1.53,1.53,0,0,1,.4-1.12,1.56,1.56,0,0,1,1.16-.4h26.5A1.54,1.54,0,0,1,360,1621.56Zm-23.58-5.66,1.11,3.18a.76.76,0,0,1-.52,1.08l-.45.13a.78.78,0,0,1-1.11-.51l-1.1-3.19a.73.73,0,0,1,.52-1.07l.48-.14A.74.74,0,0,1,336.37,1615.9Zm18.83,11.42a.59.59,0,0,1,.29.83,3.63,3.63,0,0,1-1.09,1.28l-7.44,5.19V1645a1.38,1.38,0,0,1-1.56,1.56h-3.87a.73.73,0,0,1-.83-.83v-.45a.73.73,0,0,1,.83-.83h3.22v-9.8a1.65,1.65,0,0,1,.52-1.21l6.26-4.25h-15c-.55,0-.83-.29-.83-.87v-.41c0-.58.28-.87.83-.87h17A3.65,3.65,0,0,1,355.2,1627.32ZM346.65,1616v3.22a.77.77,0,0,1-.87.87h-.48a.76.76,0,0,1-.86-.87V1616a.76.76,0,0,1,.86-.86h.48A.77.77,0,0,1,346.65,1616Zm10.14.59-1.11,3.19a.78.78,0,0,1-1.11.51l-.45-.13a.76.76,0,0,1-.52-1.08l1.11-3.18a.75.75,0,0,1,1.07-.52l.49.14A.74.74,0,0,1,356.79,1616.59Z"/><path class="cls-13" d="M395.4,1627v.42c0,.57-.27.86-.83.86H365.72a.75.75,0,0,1-.84-.86V1627a.75.75,0,0,1,.84-.86h28.85C395.13,1626.18,395.4,1626.47,395.4,1627Zm-1.9-7.16v.41c0,.58-.28.87-.83.87H367.62c-.56,0-.83-.29-.83-.87v-.41c0-.58.27-.87.83-.87h25.05C393.22,1619,393.5,1619.3,393.5,1619.88Zm-13.87-3.46-7.41,16.78h18.13c1.11,0,1.77.22,2,.66s0,1.08-.76,1.94l-7.19,8.06a.83.83,0,0,1-1.25.1l-.38-.31a.7.7,0,0,1-.1-1.18l6.4-7.12H371.32c-.81,0-1.33-.19-1.57-.57a1.87,1.87,0,0,1,.05-1.68l7.71-17.51a.75.75,0,0,1,1.15-.45l.48.14A.82.82,0,0,1,379.63,1616.42Zm10.27,29.13-.07.49a.75.75,0,0,1-1,.59l-18.23-4.71a.77.77,0,0,1-.59-1l.07-.48a.75.75,0,0,1,1-.59l18.23,4.71A.76.76,0,0,1,389.9,1645.55Z"/><path class="cls-13" d="M430.35,1644v.48a.77.77,0,0,1-.86.87H400a.77.77,0,0,1-.87-.87V1644a.77.77,0,0,1,.87-.87h29.48A.77.77,0,0,1,430.35,1644Zm-27.82-22.67,1.77,14.47a.74.74,0,0,1-.73.93h-.48c-.58.09-.9-.14-1-.69l-1.77-14.46a.77.77,0,0,1,.73-1h.48A.77.77,0,0,1,402.53,1621.33Zm8.83-5v27a.77.77,0,0,1-.87.87H410a.77.77,0,0,1-.87-.87v-27a.78.78,0,0,1,.87-.9h.48A.78.78,0,0,1,411.36,1616.32Zm9,0v27a.77.77,0,0,1-.86.87H419a.77.77,0,0,1-.86-.87v-27c0-.6.29-.9.86-.9h.49C420.06,1615.42,420.35,1615.72,420.35,1616.32Zm8.79,5.26L427.38,1636a.73.73,0,0,1-1,.69h-.49a.74.74,0,0,1-.72-.93l1.76-14.47a.77.77,0,0,1,1-.72h.48A.77.77,0,0,1,429.14,1621.58Z"/><path d="M567.74,1623.45a3.11,3.11,0,0,1,.09,3,36.12,36.12,0,0,1-3.37,6.76,40.84,40.84,0,0,1-4.69,6.07,1.35,1.35,0,0,1-2.22,0l-.62-.62a1.49,1.49,0,0,1,0-2.32,37.84,37.84,0,0,0,3.88-4.83,31.4,31.4,0,0,0,2.76-5.07H559a1.43,1.43,0,0,1-1.62-1.62v-.9a1.44,1.44,0,0,1,1.62-1.63h5.82A3.51,3.51,0,0,1,567.74,1623.45Zm-3.37-6.26.93,1.8a1.42,1.42,0,0,1-.72,2.18l-.83.41a1.42,1.42,0,0,1-2.18-.72l-.94-1.8a1.43,1.43,0,0,1,.73-2.18l.83-.42A1.43,1.43,0,0,1,564.37,1617.19Zm1.07,16.09v13.63a1.44,1.44,0,0,1-1.62,1.63h-.9a1.44,1.44,0,0,1-1.63-1.63v-13.63a1.44,1.44,0,0,1,1.63-1.63h.9A1.44,1.44,0,0,1,565.44,1633.28Zm2.84.21,1.76,3.32a1.28,1.28,0,0,1-.58,2l-.77.42a1.29,1.29,0,0,1-2-.59l-1.76-3.32a1.29,1.29,0,0,1,.59-2l.76-.41A1.28,1.28,0,0,1,568.28,1633.49Zm12.63-8.45v4.26a24,24,0,0,1-2.46,11,18.57,18.57,0,0,1-7.89,7.91,1.35,1.35,0,0,1-2.11-.69l-.41-.83a1.5,1.5,0,0,1,.76-2.15,14.81,14.81,0,0,0,6.16-6.23,20,20,0,0,0,1.87-9V1625a1.41,1.41,0,0,1,1.59-1.59h.9A1.41,1.41,0,0,1,580.91,1625Zm7.16-4.67v16.4a1.41,1.41,0,0,1-1.59,1.6h-.9a1.41,1.41,0,0,1-1.59-1.6v-15.43H574v15.43a1.41,1.41,0,0,1-1.59,1.6h-.9a1.41,1.41,0,0,1-1.59-1.6v-16.4a2.51,2.51,0,0,1,2.84-2.83h12.52A2.5,2.5,0,0,1,588.07,1620.37Zm-4,18v5.74h3.7a1.44,1.44,0,0,1,1.63,1.63v.9a1.44,1.44,0,0,1-1.63,1.62H583a2.63,2.63,0,0,1-3-3v-6.92a1.42,1.42,0,0,1,1.6-1.6h.9A1.41,1.41,0,0,1,584.06,1638.37Z"/><path d="M622.69,1622.38a2.84,2.84,0,0,1,.75,2.14v3.26a1.41,1.41,0,0,1-1.6,1.59H621a1.41,1.41,0,0,1-1.59-1.59v-2.18H596.1v2.18a1.41,1.41,0,0,1-1.59,1.59h-.83a1.41,1.41,0,0,1-1.59-1.59v-3.26a2.91,2.91,0,0,1,.72-2.12,2.87,2.87,0,0,1,2.15-.75h25.6A2.92,2.92,0,0,1,622.69,1622.38Zm-15.38,10.93h.9c1.11,0,1.63.55,1.56,1.63a16,16,0,0,1-2,7.11,12,12,0,0,1-5.14,4.62,24.39,24.39,0,0,1-8.6,2.18,1.42,1.42,0,0,1-1.8-1.42l-.06-.9a1.46,1.46,0,0,1,1.41-1.83,24.42,24.42,0,0,0,7-1.72,8,8,0,0,0,3.7-3.07,11.1,11.1,0,0,0,1.37-5A1.52,1.52,0,0,1,607.31,1633.31Zm11.75-4.41a3,3,0,0,1,.74,2.16v8.79a1.44,1.44,0,0,1-1.62,1.63h-.9a1.44,1.44,0,0,1-1.63-1.63v-7.75H599.87v7.75a1.44,1.44,0,0,1-1.62,1.63h-.9a1.44,1.44,0,0,1-1.63-1.63v-8.79a2.6,2.6,0,0,1,2.91-2.9H616.9A3,3,0,0,1,619.06,1628.9Zm-19.19-11.23.31,1a1.46,1.46,0,0,1-1,2.11l-.83.27a1.46,1.46,0,0,1-2.11-1l-.31-1a1.46,1.46,0,0,1,1-2.11l.83-.28A1.46,1.46,0,0,1,599.87,1617.67Zm10,.18v1.45a1.45,1.45,0,0,1-1.63,1.63h-.9a1.45,1.45,0,0,1-1.63-1.63v-1.45a1.44,1.44,0,0,1,1.63-1.63h.9A1.44,1.44,0,0,1,609.84,1617.85Zm3.42,23.77v2.77h9a1.38,1.38,0,0,1,1.56,1.55v.87a1.38,1.38,0,0,1-1.56,1.56H612.09a2.61,2.61,0,0,1-2.91-2.91v-3.84a1.41,1.41,0,0,1,1.59-1.59h.9A1.41,1.41,0,0,1,613.26,1641.62Zm6.33-22.56-.31,1a1.46,1.46,0,0,1-2.11,1l-.83-.27a1.46,1.46,0,0,1-1-2.11l.31-1a1.46,1.46,0,0,1,2.11-1l.83.28A1.46,1.46,0,0,1,619.59,1619.06Z"/><path d="M636.71,1618a1.62,1.62,0,0,1-.06,1.23,102.91,102.91,0,0,1-7.51,16,1.29,1.29,0,0,1-1,.78,1.13,1.13,0,0,1-1-.61l-.56-.83a3.35,3.35,0,0,1-.62-1.33,2.16,2.16,0,0,1,.28-1.36q2-3.5,3.75-7.22t2.79-6.8a1.87,1.87,0,0,1,.83-1.09,1.39,1.39,0,0,1,1.24.09l.83.27A2.18,2.18,0,0,1,636.71,1618Zm-2.27,12.48V1647a1.42,1.42,0,0,1-1.59,1.62H632a1.44,1.44,0,0,1-1.63-1.62v-16.44a1.44,1.44,0,0,1,1.63-1.63h.9A1.41,1.41,0,0,1,634.44,1630.48Zm24-1.49v.86a1.38,1.38,0,0,1-1.56,1.56H637.38a1.39,1.39,0,0,1-1.56-1.59v-.8a1.41,1.41,0,0,1,1.59-1.59h19.45A1.38,1.38,0,0,1,658.42,1629Zm-.52-7.41v.87a1.38,1.38,0,0,1-1.56,1.56H638.21a1.41,1.41,0,0,1-1.59-1.6v-.79a1.41,1.41,0,0,1,1.59-1.59h18.13A1.38,1.38,0,0,1,657.9,1621.58ZM655.2,1647l-.28.83a1.38,1.38,0,0,1-1.93,1l-13.33-4a1.38,1.38,0,0,1-1-1.94l.27-.83a1.39,1.39,0,0,1,1.94-1l13.32,4A1.39,1.39,0,0,1,655.2,1647Zm-7.09-29.24a1.63,1.63,0,0,1,0,1.28l-4.15,15.6h9.45c1.68,0,2.72.37,3.13,1.09s.15,1.82-.75,3.27l-3.91,6.16a1.45,1.45,0,0,1-2.21.56l-.76-.42a1.36,1.36,0,0,1-.56-2.14l3-4.71h-9a2.5,2.5,0,0,1-2.77-3.63l4.5-16.75a1.45,1.45,0,0,1,2-1.14l.9.14A1.64,1.64,0,0,1,648.11,1617.71Z"/><path d="M666.69,1645.11l-2.6,2.6a1.35,1.35,0,0,1-2.18,0l-.62-.62a1.4,1.4,0,0,1,0-2.22l2.59-2.59a1.35,1.35,0,0,1,2.18,0l.62.62A1.4,1.4,0,0,1,666.69,1645.11Zm1-16.9a3,3,0,0,1,.74,2.23v10.11a3.43,3.43,0,0,0,.82,2.52,3.32,3.32,0,0,0,2.47.83h19.41a1.41,1.41,0,0,1,1.59,1.59v.9a1.41,1.41,0,0,1-1.59,1.59H671.74a7.34,7.34,0,0,1-3.77-1,7.25,7.25,0,0,1-2.68-2.68,7.35,7.35,0,0,1-1-3.77v-9h-1.59a1.41,1.41,0,0,1-1.59-1.59v-.9a1.41,1.41,0,0,1,1.59-1.59h2.77A3,3,0,0,1,667.71,1628.21Zm-1.16-10.12,1.8,4.43a1.44,1.44,0,0,1-.93,2.11l-.84.34a1.44,1.44,0,0,1-2.11-.93l-1.8-4.43a1.44,1.44,0,0,1,.94-2.11l.83-.35A1.44,1.44,0,0,1,666.55,1618.09Zm25.67,5.88v.9a1.41,1.41,0,0,1-1.59,1.59H671.39a1.41,1.41,0,0,1-1.59-1.59v-.9a1.41,1.41,0,0,1,1.59-1.59h19.24A1.41,1.41,0,0,1,692.22,1624Zm-9.17-5.64a46,46,0,0,1-1.17,9.64,24.54,24.54,0,0,1-3.2,7.61,21.06,21.06,0,0,1-5.66,5.8,1.37,1.37,0,0,1-2.25-.32l-.55-.76a1.5,1.5,0,0,1,.38-2.32,21.61,21.61,0,0,0,4.81-5.25,20.38,20.38,0,0,0,2.61-6.34,38.06,38.06,0,0,0,.88-8.06,1.48,1.48,0,0,1,1.66-1.63h.9A1.4,1.4,0,0,1,683.05,1618.33Zm.73,6.78a23.08,23.08,0,0,0,2.72,7.58,16.49,16.49,0,0,0,5,5.29,1.55,1.55,0,0,1,.35,2.32l-.55.76a1.35,1.35,0,0,1-2.22.32,24.88,24.88,0,0,1-6.19-7,27.12,27.12,0,0,1-3.15-8.69,1.39,1.39,0,0,1,1.31-1.87l.9-.07A1.49,1.49,0,0,1,683.78,1625.11Z"/><path d="M701.08,1627.76a3.09,3.09,0,0,1,.8,2.3v13.77h.38c1.06,0,1.59.57,1.59,1.7v.9a1.49,1.49,0,0,1-1.69,1.69h-1.42a3.13,3.13,0,0,1-2.29-.78,3.06,3.06,0,0,1-.79-2.3v-13.77H697a1.49,1.49,0,0,1-1.69-1.69v-.9A1.5,1.5,0,0,1,697,1627h1.84A3.12,3.12,0,0,1,701.08,1627.76Zm.28-10.16,2.18,4.3a1.46,1.46,0,0,1-.76,2.21l-.83.41a1.46,1.46,0,0,1-2.22-.76l-2.18-4.29a1.46,1.46,0,0,1,.76-2.21l.83-.42A1.47,1.47,0,0,1,701.36,1617.6Zm22.08.47a3,3,0,0,1,.76,2.23v4.33h1.73a1.43,1.43,0,0,1,1.62,1.62v.9a1.44,1.44,0,0,1-1.62,1.63H723a3,3,0,0,1-2.21-.74,3,3,0,0,1-.77-2.23v-4.33h-8.61v0a8.93,8.93,0,0,1-1.07,4.21,10.66,10.66,0,0,1-3.15,3.55,1.41,1.41,0,0,1-1.2.34,1.56,1.56,0,0,1-1-.79l-.48-.84a1.6,1.6,0,0,1,.55-2.31,5.4,5.4,0,0,0,1.64-1.89,5,5,0,0,0,.51-2.27v-1.21a3,3,0,0,1,.74-2.21,3,3,0,0,1,2.23-.76h11A3.08,3.08,0,0,1,723.44,1618.07Zm1.22,13.06a2.08,2.08,0,0,1,.92,1.61,5.08,5.08,0,0,1-.59,2.55,22,22,0,0,1-4.29,5.83,26.11,26.11,0,0,1-6.19,4.46,36.72,36.72,0,0,1-7.79,3,1.76,1.76,0,0,1-1.3-.07,1.61,1.61,0,0,1-.7-1.11l-.14-.83a1.49,1.49,0,0,1,1.17-2,34.35,34.35,0,0,0,6.49-2.37,22.64,22.64,0,0,0,5-3.23,17.59,17.59,0,0,0,3.51-4.19H707.1a1.43,1.43,0,0,1-1.62-1.62v-.9a1.44,1.44,0,0,1,1.62-1.63h15.44A3.77,3.77,0,0,1,724.66,1631.13Zm-14.39,3.65a1.85,1.85,0,0,1,1.05.82,22.15,22.15,0,0,0,6.32,5.59,28.18,28.18,0,0,0,8.63,3.3,1.5,1.5,0,0,1,1.21,2l-.13.9a1.41,1.41,0,0,1-2,1.17,37.4,37.4,0,0,1-10.43-4.29,25.58,25.58,0,0,1-7.18-6.47,1.37,1.37,0,0,1,.49-2.21l.76-.49A1.68,1.68,0,0,1,710.27,1634.78Z"/><path d="M736.41,1627.76a3.09,3.09,0,0,1,.8,2.3v13.77h1.62a1.51,1.51,0,0,1,1.7,1.7v.9a1.5,1.5,0,0,1-1.7,1.69H736a3.12,3.12,0,0,1-2.28-.78,3.06,3.06,0,0,1-.8-2.3v-13.77h-1.38a1.5,1.5,0,0,1-1.7-1.69v-.9a1.51,1.51,0,0,1,1.7-1.7h2.56A3.12,3.12,0,0,1,736.41,1627.76Zm-.07-10.19,2.18,4.29a1.47,1.47,0,0,1-.76,2.22l-.83.48a1.46,1.46,0,0,1-2.21-.76l-2.18-4.29a1.46,1.46,0,0,1,.76-2.22l.83-.48A1.46,1.46,0,0,1,736.34,1617.57Zm25.95,12.56v.9a1.5,1.5,0,0,1-1.69,1.7H742.43a1.5,1.5,0,0,1-1.69-1.7v-.9a1.49,1.49,0,0,1,1.69-1.69H760.6A1.49,1.49,0,0,1,762.29,1630.13Zm-8.72-11.76v28.51a1.47,1.47,0,0,1-1.66,1.66H751a1.47,1.47,0,0,1-1.66-1.66v-28.51a1.48,1.48,0,0,1,1.66-1.67h.9A1.47,1.47,0,0,1,753.57,1618.37Z"/></svg>