<svg id="图层_1" data-name="图层 1" xmlns="http://www.w3.org/2000/svg" xmlns:xlink="http://www.w3.org/1999/xlink" viewBox="0 0 1125 2436"><defs><style>.cls-1{opacity:0.4;fill:url(#未命名的渐变_10);}.cls-2{fill:#1a1a1a;}.cls-3{fill:#7c5e45;stroke:#172c1d;}.cls-3,.cls-4{stroke-miterlimit:10;stroke-width:2.3px;}.cls-4{fill:#d3e98b;stroke:#37583d;}.cls-5{fill:#97b76c;}.cls-6{fill:#172c1d;}.cls-7{fill:#def0fd;}.cls-8{fill:#d2e2f2;}.cls-9{fill:#eb696a;}.cls-10{fill:#fff;}.cls-11,.cls-12{fill:#f93;}.cls-11{stroke:#f93;stroke-linecap:round;stroke-linejoin:round;stroke-width:1.23px;}.cls-12{opacity:0.1;}</style><linearGradient id="未命名的渐变_10" x1="562.5" y1="-65.19" x2="562.5" y2="2440.8" gradientUnits="userSpaceOnUse"><stop offset="0" stop-color="#f93"/><stop offset="0.98" stop-color="#fc9" stop-opacity="0"/></linearGradient></defs><rect class="cls-1" x="-17.4" y="-20.02" width="1159.81" height="2474.18"/><path class="cls-2" d="M115.36,486.8v7.3a32,32,0,0,1-1.57,10.46,25.79,25.79,0,0,1-4.35,8,42.1,42.1,0,0,1-6.77,6.49.88.88,0,0,1-1.44-.17l-.38-.6a.92.92,0,0,1,.25-1.44,39.9,39.9,0,0,0,6.28-6,22.59,22.59,0,0,0,3.93-7.2,29.64,29.64,0,0,0,1.38-9.48v-6.49H102.42a1,1,0,0,1-1.1-1.1V486c0-.77.36-1.15,1.1-1.15h11A1.76,1.76,0,0,1,115.36,486.8ZM105.05,494a28.73,28.73,0,0,0,1.51,9,25.38,25.38,0,0,0,3.73,7.09,30.43,30.43,0,0,0,5.45,5.49,1,1,0,0,1,.13,1.49l-.34.59a.9.9,0,0,1-1.44.09,33.38,33.38,0,0,1-8.47-10.23A29.32,29.32,0,0,1,102.38,494a.9.9,0,0,1,1-1.06H104A.94.94,0,0,1,105.05,494Zm24,1.14v4a24.69,24.69,0,0,1-10.77,21.13,1,1,0,0,1-1.49-.21l-.34-.56a1,1,0,0,1,.26-1.48,21.73,21.73,0,0,0,9.63-18.88v-4a.93.93,0,0,1,1.06-1.06H128A.93.93,0,0,1,129.06,495.12Zm-7-11.84v3.86h14.12a1.77,1.77,0,0,1,2,2v4.71c0,.71-.37,1.06-1.1,1.06h-.6a.93.93,0,0,1-1.06-1.06v-4H121.3a1.72,1.72,0,0,1-2-1.95v-4.63a.94.94,0,0,1,1.06-1.06h.64A.94.94,0,0,1,122.11,483.28Zm7,16.89a21.92,21.92,0,0,0,2.5,9.84,24,24,0,0,0,7.26,8,.94.94,0,0,1,.21,1.48l-.34.56a.9.9,0,0,1-1.44.21A27.82,27.82,0,0,1,129,511a23.5,23.5,0,0,1-2.65-10.74c0-.73.31-1.1,1-1.1H128A1,1,0,0,1,129.11,500.17Z"/><path class="cls-2" d="M149.22,514.59,145,519.43a.9.9,0,0,1-1.4.09l-.5-.43a.87.87,0,0,1,0-1.4l4.2-4.83a1,1,0,0,1,1.45-.09l.51.42A.88.88,0,0,1,149.22,514.59Zm.25-18.49a1.86,1.86,0,0,1,.51,1.44V511a7.44,7.44,0,0,0,.66,3.22,5.07,5.07,0,0,0,1.89,2.19,5.17,5.17,0,0,0,2.84.78H181a.9.9,0,0,1,1,1v.64a.9.9,0,0,1-1,1H155.37a7.41,7.41,0,0,1-4.09-1.19,8.07,8.07,0,0,1-2.89-3.23,9.66,9.66,0,0,1-1-4.45V498.26h-3.52a.9.9,0,0,1-1-1v-.59a.9.9,0,0,1,1-1h4.24A2,2,0,0,1,149.47,496.1ZM148,483.33l2.67,6.49a.9.9,0,0,1-.59,1.31l-.55.26a.86.86,0,0,1-1.28-.6l-2.67-6.49a.9.9,0,0,1,.6-1.31l.55-.26A.85.85,0,0,1,148,483.33Zm16.8-.47.09.51a1,1,0,0,1-.73,1.36l-6.53,1.65v21.55h5.77a.9.9,0,0,1,1,1v.6a.9.9,0,0,1-1,1h-6.49a2,2,0,0,1-1.4-.46,1.87,1.87,0,0,1-.51-1.45V485.83a1.84,1.84,0,0,1,.38-1.19,2.22,2.22,0,0,1,1-.68l7.09-1.86A.92.92,0,0,1,164.83,482.86Zm14.81,1.19a1.86,1.86,0,0,1,.51,1.44v23.16a1.7,1.7,0,0,1-1.91,1.91h-4a.9.9,0,0,1-1-1V509a.9.9,0,0,1,1-1h3.23V486.21h-7.47v27.28a.9.9,0,0,1-1,1h-.59a.9.9,0,0,1-1-1v-28a1.93,1.93,0,0,1,.47-1.42,1.89,1.89,0,0,1,1.44-.49h8.91A2,2,0,0,1,179.64,484.05Z"/><path class="cls-2" d="M199.58,502.76a1.08,1.08,0,0,1,0,.8,25.36,25.36,0,0,1-4.41,8.81,30.3,30.3,0,0,1-7.38,6.81.92.92,0,0,1-1.45-.26l-.34-.51a1,1,0,0,1,.3-1.48,31.27,31.27,0,0,0,6.85-6.41A20.86,20.86,0,0,0,197,503a1,1,0,0,1,1.32-.76l.59.08A1,1,0,0,1,199.58,502.76Zm24.14-.94v.6a.9.9,0,0,1-1,1H187a.9.9,0,0,1-1-1v-.6a.92.92,0,0,1,1-1.06H222.7A.92.92,0,0,1,223.72,501.82Zm-1.4-14.51v.6a.9.9,0,0,1-1,1H188.38a.9.9,0,0,1-1-1v-.6a.9.9,0,0,1,1-1H221.3A.9.9,0,0,1,222.32,487.31ZM194,491.9l1.57,5.26a.89.89,0,0,1-.72,1.23l-.6.12a.85.85,0,0,1-1.23-.67l-1.57-5.27a.93.93,0,0,1,.72-1.27l.56-.08A.89.89,0,0,1,194,491.9Zm12.22-8.79v36.41a1,1,0,0,1-1.06,1.1h-.6a1,1,0,0,1-1.06-1.1V483.11a.94.94,0,0,1,1.06-1.06h.6A.94.94,0,0,1,206.2,483.11ZM212.69,503a21.81,21.81,0,0,0,4,7.81,29.57,29.57,0,0,0,6.68,6.15,1,1,0,0,1,.3,1.48l-.34.51a.92.92,0,0,1-1.45.26,34.84,34.84,0,0,1-7.53-7.11,23.44,23.44,0,0,1-4.26-8.51,1.08,1.08,0,0,1,0-.8,1,1,0,0,1,.68-.47l.59-.08C212,502,212.46,502.26,212.69,503Zm5.52-10.4-1.57,5.27a.86.86,0,0,1-1.24.67l-.59-.12a.89.89,0,0,1-.72-1.23l1.57-5.26a.88.88,0,0,1,1.27-.68l.55.08A1,1,0,0,1,218.21,492.57Z"/><path class="cls-2" d="M250.83,518.12v.55a.94.94,0,0,1-1.06,1.06H229.36a.94.94,0,0,1-1.06-1.06v-.55a.94.94,0,0,1,1.06-1.06h20.41A.93.93,0,0,1,250.83,518.12Zm-.55-33.69V485c0,.68-.35,1-1.06,1H229.87a.9.9,0,0,1-1-1v-.59a.9.9,0,0,1,1-1h19.35C249.93,483.41,250.28,483.75,250.28,484.43ZM250,507.3v.55c0,.71-.36,1.06-1.1,1.06H230.21c-.73,0-1.1-.35-1.1-1.06v-.55c0-.71.37-1.06,1.1-1.06h18.67C249.62,506.24,250,506.59,250,507.3Zm-10.6-21-6.41,10H246.8v-3a.9.9,0,0,1,1-1h.64a.9.9,0,0,1,1,1V497a1.87,1.87,0,0,1-.48,1.4,1.93,1.93,0,0,1-1.38.46h-16q-1.7,0-2.1-.72c-.27-.48-.1-1.2.49-2.16l7.13-11.07a.88.88,0,0,1,1.4-.34l.51.34A.89.89,0,0,1,239.38,486.3Zm1.52,15.82v15.19a.93.93,0,0,1-1.06,1.06h-.63a.93.93,0,0,1-1.06-1.06V502.12a.93.93,0,0,1,1.06-1.06h.63A.93.93,0,0,1,240.9,502.12Zm16-15.91v24.65a.9.9,0,0,1-1,1h-.6a.92.92,0,0,1-1.06-1V486.21a.92.92,0,0,1,1.06-1h.6A.9.9,0,0,1,256.86,486.21Zm8.31-2.84v34.92a1.8,1.8,0,0,1-2,2h-4a1,1,0,0,1-1.11-1.14v-.6a1,1,0,0,1,1.11-1.1h3.35V483.37c0-.74.35-1.1,1.06-1.1h.55A1,1,0,0,1,265.17,483.37Z"/><path class="cls-2" d="M290.71,483.28v5.22q0,20-18,31.57a.91.91,0,0,1-1.48-.3l-.38-.51a1,1,0,0,1,.42-1.48A38.19,38.19,0,0,0,283.78,505a32.76,32.76,0,0,0,4.13-16.53v-5.22c0-.7.37-1.06,1.11-1.06h.59C290.35,482.22,290.71,482.58,290.71,483.28Zm17.7,9.63v.6a.94.94,0,0,1-1.06,1.06h-35.3a.93.93,0,0,1-1.06-1.06v-.6a.94.94,0,0,1,1.06-1.06h35.3A.94.94,0,0,1,308.41,492.91ZM291.9,494A30.25,30.25,0,0,0,297,507.23a39.2,39.2,0,0,0,11.18,10.5,1.05,1.05,0,0,1,.43,1.53l-.39.51a.93.93,0,0,1-1.48.34,42.61,42.61,0,0,1-12.24-11.62,31.41,31.41,0,0,1-5.37-14.18c-.11-.67.2-1.07.94-1.18l.59-.05A1,1,0,0,1,291.9,494Z"/><path class="cls-2" d="M351.17,508.15v.55c0,.7-.34,1.06-1,1.06H314.09a.92.92,0,0,1-1-1.06v-.55a.9.9,0,0,1,1-1h36.07A.9.9,0,0,1,351.17,508.15Zm-1.38-18.23a1.86,1.86,0,0,1,.49,1.38v5.56c0,.68-.35,1-1.06,1h-.51a.92.92,0,0,1-1.06-1V492h-31v4.88c0,.68-.36,1-1.07,1H315c-.71,0-1.07-.34-1.07-1V491.3a1.9,1.9,0,0,1,.49-1.38,2,2,0,0,1,1.42-.48h32.5A1.92,1.92,0,0,1,349.79,489.92ZM320.88,483l1.36,3.9a.92.92,0,0,1-.64,1.32l-.55.16a1,1,0,0,1-1.36-.63l-1.36-3.91a.91.91,0,0,1,.64-1.31l.59-.17A.92.92,0,0,1,320.88,483ZM344,497a.72.72,0,0,1,.36,1,4.58,4.58,0,0,1-1.34,1.57l-9.12,6.36v12.73a1.69,1.69,0,0,1-1.91,1.91H327.2a.9.9,0,0,1-1-1V519a.9.9,0,0,1,1-1h3.95V506a2,2,0,0,1,.63-1.48l7.68-5.22H321.05c-.68,0-1-.35-1-1.06v-.51c0-.71.34-1.06,1-1.06h20.87A4.49,4.49,0,0,1,344,497Zm-10.48-13.88v3.95a.93.93,0,0,1-1.06,1.06h-.59a.93.93,0,0,1-1.06-1.06v-3.95a.94.94,0,0,1,1.06-1.06h.59A.94.94,0,0,1,333.48,483.11Zm12.43.72-1.36,3.91a1,1,0,0,1-1.35.63l-.55-.16a.91.91,0,0,1-.64-1.32l1.36-3.9a.91.91,0,0,1,1.31-.64l.6.17A.91.91,0,0,1,345.91,483.83Z"/><path class="cls-2" d="M393.43,517.61v.59a.93.93,0,0,1-1.06,1.06H356.73a.93.93,0,0,1-1.06-1.06v-.59a.93.93,0,0,1,1.06-1.06h35.64A.93.93,0,0,1,393.43,517.61Zm-32.67-32.08v3.74h30.17a.94.94,0,0,1,1.06,1.06v.59a.94.94,0,0,1-1.06,1.06H360a2,2,0,0,1-1.48-.49,1.92,1.92,0,0,1-.51-1.46v-4.5c0-.7.36-1.06,1.1-1.06h.55A.94.94,0,0,1,360.76,485.53Zm29.79,18v.55a.94.94,0,0,1-1.06,1.06H359.62a.93.93,0,0,1-1.06-1.06v-.55c0-.73.35-1.1,1.06-1.1h29.87A1,1,0,0,1,390.55,503.52ZM376,483.2V517a.93.93,0,0,1-1.06,1.06h-.59a.93.93,0,0,1-1.06-1.06V483.2a.93.93,0,0,1,1.06-1.06h.59A.93.93,0,0,1,376,483.2Z"/><path class="cls-2" d="M402.94,490.88v8.87a45.83,45.83,0,0,1-2,13.74.83.83,0,0,1-1.23.68l-.6-.08a1,1,0,0,1-.72-1.36,43.08,43.08,0,0,0,1.91-13v-8.87a.9.9,0,0,1,1-1h.64A.9.9,0,0,1,402.94,490.88Zm8.23-3.69v29.4H425v-3.78a.94.94,0,0,1,1.06-1.06h.59a1,1,0,0,1,1.07,1.06v4.59a1.78,1.78,0,0,1-2,2H410.45a2,2,0,0,1-1.49-.51,2,2,0,0,1-.51-1.44V487.19c0-.71.37-1.06,1.1-1.06h.56A.94.94,0,0,1,411.17,487.19Zm8.78-4.08,1.95,15.24a.91.91,0,0,1-.85,1.18h-.63a.91.91,0,0,1-1.19-.85l-1.91-15.23a.91.91,0,0,1,.85-1.18l.63,0A.91.91,0,0,1,420,483.11Zm13.75,7.77v8.87a42.2,42.2,0,0,0,1.9,12.94,1,1,0,0,1-.72,1.35l-.59.17a.94.94,0,0,1-.81,0,1,1,0,0,1-.42-.72,45,45,0,0,1-2-13.74v-8.87a.9.9,0,0,1,1-1h.64A.9.9,0,0,1,433.7,490.88Z"/><path class="cls-2" d="M459.11,502.72h.59a.93.93,0,0,1,1.06,1.06v2.71a10,10,0,0,1-2.33,6.3,17.74,17.74,0,0,1-6.66,5,31.35,31.35,0,0,1-9.89,2.61.92.92,0,0,1-1.14-.94V519a1,1,0,0,1,.93-1.18,27.94,27.94,0,0,0,8.78-2.12,14.83,14.83,0,0,0,5.67-4.08,8,8,0,0,0,1.93-5.09v-2.71A.93.93,0,0,1,459.11,502.72Zm15.55-18.67a1.87,1.87,0,0,1,.49,1.4v13.87a1.7,1.7,0,0,1-1.87,1.87H444.05a.87.87,0,0,1-1-1v-.55a.87.87,0,0,1,1-1h28.38v-12.6H444.05a.88.88,0,0,1-1-1v-.51a.87.87,0,0,1,1-1h29.23A1.94,1.94,0,0,1,474.66,484.05Zm-28.13,20.19a1,1,0,0,1,.45.68l1.95,6.07a1,1,0,0,1-.72,1.31l-.6.09a1.28,1.28,0,0,1-.83,0,.9.9,0,0,1-.44-.66l-1.95-6.07a1,1,0,0,1,.72-1.31l.59-.09A1.07,1.07,0,0,1,446.53,504.24Zm27.26-12.13v.55a.82.82,0,0,1-.93.93H446.21a.82.82,0,0,1-.93-.93v-.55a.83.83,0,0,1,.93-.94h26.65A.83.83,0,0,1,473.79,492.11Zm-13.28,14.61a1.33,1.33,0,0,1,.42.79,8.93,8.93,0,0,0,2.47,4.65,16.13,16.13,0,0,0,5.64,3.73,26.6,26.6,0,0,0,8.1,1.89,1,1,0,0,1,.93,1.18v.51a.92.92,0,0,1-1.14.94,30.27,30.27,0,0,1-9.67-2.53,19.42,19.42,0,0,1-6.69-4.73,8.56,8.56,0,0,1-2.39-5.6.94.94,0,0,1,.14-.8,1,1,0,0,1,.79-.26h.59A1.32,1.32,0,0,1,460.51,506.72Zm13.92-1.08-2,6.07a.9.9,0,0,1-.44.66,1.27,1.27,0,0,1-.83,0l-.59-.09a1,1,0,0,1-.72-1.31l1.95-6.07a1,1,0,0,1,.44-.68,1.07,1.07,0,0,1,.83,0l.59.09A1,1,0,0,1,474.43,505.64Z"/><path class="cls-2" d="M494.83,489.77v.6a.93.93,0,0,1-1.06,1.06H483.55c-.74,0-1.11-.35-1.11-1.06v-.6c0-.7.37-1.06,1.11-1.06h10.22A.94.94,0,0,1,494.83,489.77Zm-8.82,6v5.56q0,4.27-.19,7.53a42,42,0,0,1-.83,6.26.78.78,0,0,1-1,.72l-.5-.13a.74.74,0,0,1-.68-1,39.49,39.49,0,0,0,.82-6.06c.13-2.1.2-4.54.2-7.34V495.8a.75.75,0,0,1,.84-.85h.47A.75.75,0,0,1,486,495.8Zm5.39-12.64v36.27c0,.68-.33,1-1,1h-.55c-.65,0-1-.34-1-1V483.16a.87.87,0,0,1,1-1h.55A.87.87,0,0,1,491.4,483.16ZM495,502l-.34.56a.91.91,0,0,1-1.4.33l-3-1.78a.89.89,0,0,1-.34-1.4l.34-.55a.88.88,0,0,1,1.4-.34l3,1.78A.88.88,0,0,1,495,502Zm11-16a1.87,1.87,0,0,1,.47,1.4v10.82a29.48,29.48,0,0,1-2.31,12.2,27.6,27.6,0,0,1-7,9.27.88.88,0,0,1-1.4-.13l-.34-.51c-.43-.48-.37-1,.17-1.44a27,27,0,0,0,4.79-5.33,19.83,19.83,0,0,0,2.76-6.21,31.58,31.58,0,0,0,.89-7.85v-10h-6.79a.94.94,0,0,1-1.06-1.07v-.55a.94.94,0,0,1,1.06-1.06h7.38A1.89,1.89,0,0,1,506,486Zm-6.61,6.11v6.11a32.11,32.11,0,0,0,.87,7.85,20.84,20.84,0,0,0,2.65,6.21,26.64,26.64,0,0,0,4.58,5.33,1,1,0,0,1,.13,1.44l-.38.51a.85.85,0,0,1-1.4,0,27.35,27.35,0,0,1-6.71-9.25,30.38,30.38,0,0,1-2.2-12.13v-6.11c0-.65.31-1,.93-1h.59A.85.85,0,0,1,499.42,492.11Zm22.36-2.76v.59c0,.71-.37,1.06-1.11,1.06H509.22a.93.93,0,0,1-1.06-1.06v-.59a.93.93,0,0,1,1.06-1.06h11.45C521.41,488.29,521.78,488.64,521.78,489.35Zm-9.93,7.26,1.82,12.21a.79.79,0,0,1-.76,1h-.51a.8.8,0,0,1-1-.76l-1.82-12.22a.84.84,0,0,1,.8-1h.51A.76.76,0,0,1,511.85,496.61Zm7.25-13.41v34.92a1.76,1.76,0,0,1-2,2h-3.65a1,1,0,0,1-1.1-1.1v-.64c0-.76.36-1.14,1.1-1.14h3v-34a.9.9,0,0,1,1-1h.59A.9.9,0,0,1,519.1,483.2Z"/><path class="cls-2" d="M531.49,504.92a108.5,108.5,0,0,1-4.07,13.92.93.93,0,0,1-1.36.63l-.55-.17a1,1,0,0,1-.64-1.4q1.27-3.3,2.27-6.81t1.72-6.68a.94.94,0,0,1,1.27-.8l.56.08A.89.89,0,0,1,531.49,504.92Zm-3.31-22,2.84,5.94a.9.9,0,0,1-.5,1.36l-.6.25a.86.86,0,0,1-1.31-.55l-2.85-5.9a.9.9,0,0,1,.51-1.35l.6-.26A.86.86,0,0,1,528.18,482.9Zm0,10.78,2.84,5.94a.9.9,0,0,1-.5,1.36l-.6.25a.86.86,0,0,1-1.31-.55l-2.85-5.9a.91.91,0,0,1,.51-1.36l.6-.25A.86.86,0,0,1,528.18,493.68Zm33.48-10a1.86,1.86,0,0,1,.51,1.44V518.5a2,2,0,0,1-.49,1.44,1.88,1.88,0,0,1-1.42.51h-3.82c-.68,0-1-.35-1-1.06v-.59a.9.9,0,0,1,1-1h3.1V485.83H537.86v33.69a.89.89,0,0,1-1,1h-.6a.89.89,0,0,1-1-1V485.11a1.94,1.94,0,0,1,.48-1.42,1.91,1.91,0,0,1,1.42-.49h23.13A2,2,0,0,1,561.66,483.67Zm-5.39,7.93v.51c0,.71-.34,1.06-1,1.06H542.14c-.68,0-1-.35-1-1.06v-.51c0-.71.34-1.06,1-1.06h13.11C555.93,490.54,556.27,490.89,556.27,491.6Zm-12.69,6.19h10.19a1.64,1.64,0,0,1,1.82,1.87V511a1.61,1.61,0,0,1-1.82,1.82H543.58a1.61,1.61,0,0,1-1.82-1.82V499.66A1.64,1.64,0,0,1,543.58,497.79Zm9.51,2.59H544.3v9.89h8.79Z"/><path class="cls-3" d="M122.13,367.72s-5.53,61.41-10.33,66.21S97,444.08,99,446.5s14.26-.56,16.77,0c0,0,92.21-1.25,100.65,0,0,0,6,.75,3.09-3.76s-11.08-6.49-12.78-9.58-8.11-15.34-9.73-41.83a5.56,5.56,0,0,1,2.85-5.2c4.68-2.62,12.93-8.5,10.83-16.6l-6-3.64s-5.22,10.33-7.75,9.83-1.34-17.12-1.34-17.12l-.45-26.8H126Z"/><path class="cls-4" d="M230.11,326.51a63.41,63.41,0,0,0-4.87-4.72,1.39,1.39,0,0,1-.34-1.68c2.32-4.55,2.84-9.13,1-13-3.89-8.33-17.2-10.53-31-5.67A1.41,1.41,0,0,1,193,300c.67-7.89-1.85-15.45-7.6-20.53-10.67-9.42-28.46-6.72-39.72,6a35.08,35.08,0,0,0-8,15.46,1.41,1.41,0,0,1-2.16.87,49.41,49.41,0,0,0-9.75-5c-15.89-6.09-31.75-3.27-35.41,6.29-2.68,7,1.91,15.67,10.8,22.2a1.41,1.41,0,0,1-.48,2.5,58.58,58.58,0,0,0-10.85,3.87c-15.42,7.2-25,19.21-21.48,26.82,3.13,6.7,15.43,7.74,28.85,3a1.42,1.42,0,0,1,1.9,1.32c0,5.37,1.57,9.55,4.86,11.45,6.35,3.67,16.89-2.38,25.13-13.77a1.42,1.42,0,0,1,2.46.3c1.48,3.55,3.71,5.93,6.55,6.57,4.88,1.1,10.35-3.25,14.47-10.66a1.42,1.42,0,0,1,2.32-.23,8.4,8.4,0,0,0,5.29,3.06c3.5.44,7-1.75,9.81-5.64a1.41,1.41,0,0,1,2.28,0c3.24,4.38,7.37,6.84,11.49,6.26a10.38,10.38,0,0,0,6.93-4.59,1.4,1.4,0,0,1,2.21-.07c.87,1.06,1.79,2.1,2.74,3.13,14.93,16,34.74,21.83,44.25,13S245,342.53,230.11,326.51Z"/><path class="cls-3" d="M121.64,435s-8.76,13.8-3.78,14.28,56.61-6.08,74.9-1.23,8-9.44,4.45-13.5a20.81,20.81,0,0,1-4.45-7.26"/><path class="cls-5" d="M150.74,309.76a30.25,30.25,0,0,1,13.51-22.17c1-.67.07-2.34-1-1.66a32.31,32.31,0,0,0-14.46,23.83c-.13,1.23,1.8,1.22,1.92,0Z"/><path class="cls-5" d="M179.52,288.41a46.65,46.65,0,0,1-10.33,40.19c-.81.93.55,2.29,1.36,1.36a48.69,48.69,0,0,0,10.82-42.06c-.26-1.2-2.12-.69-1.85.51Z"/><path class="cls-5" d="M107.18,369.12a12.25,12.25,0,0,1-.76-9.86c.41-1.17-1.45-1.67-1.85-.51a14.13,14.13,0,0,0,1,11.34c.59,1.08,2.24.11,1.65-1Z"/><path class="cls-5" d="M74.5,354.25a36.15,36.15,0,0,1,26.09-19.71c1.21-.21.7-2.06-.51-1.85a37.94,37.94,0,0,0-27.24,20.59c-.53,1.11,1.12,2.08,1.66,1Z"/><path class="cls-5" d="M200.07,351.45A41.34,41.34,0,0,0,224,367c1.2.27,1.72-1.58.51-1.85a39.34,39.34,0,0,1-22.79-14.68c-.73-1-2.4,0-1.66,1Z"/><path class="cls-5" d="M110.37,345.75a17.2,17.2,0,0,1,11.16-10.15,1,1,0,0,0-.51-1.85,19.21,19.21,0,0,0-12.5,11.49,1,1,0,0,0,.67,1.18,1,1,0,0,0,1.18-.67Z"/><path class="cls-5" d="M116.15,344.81a13.07,13.07,0,0,1,2.68-3.18,11.46,11.46,0,0,1,1.59-1.17,14.78,14.78,0,0,1,1.93-1,1,1,0,0,0,.35-1.31,1,1,0,0,0-1.31-.35,15.06,15.06,0,0,0-6.89,6,1,1,0,0,0,1.65,1Z"/><path class="cls-5" d="M101.37,306.69A43.52,43.52,0,0,1,129.83,314c1,.69,2-1,1-1.66a45.19,45.19,0,0,0-29.42-7.57c-1.22.12-1.23,2,0,1.92Z"/><path class="cls-5" d="M190,330.28a30.21,30.21,0,0,1,20.91-23.57,1,1,0,0,0-.51-1.85,32.12,32.12,0,0,0-22.26,24.91c-.2,1.2,1.65,1.72,1.86.51Z"/><path class="cls-5" d="M206.34,318.44a11.26,11.26,0,0,1,6.83-5.17,1,1,0,0,0-.51-1.85,13.18,13.18,0,0,0-8,6.05,1,1,0,0,0,1.66,1Z"/><path class="cls-5" d="M225.15,335.43c7.77,3.88,10.48,12.69,12.74,20.43a1,1,0,0,0,1.85-.51c-2.4-8.21-5.39-17.47-13.62-21.58-1.1-.55-2.08,1.1-1,1.66Z"/><path class="cls-6" d="M130.66,392.79c0,9-.53,18.5-4,26.91-.48,1.14,1.38,1.64,1.85.51,3.56-8.55,4.1-18.26,4.11-27.42a1,1,0,0,0-1.92,0Z"/><path class="cls-6" d="M183.67,365.23a34.13,34.13,0,0,0,.8,11.83,1,1,0,0,0,1.85-.51,32.44,32.44,0,0,1-.73-11.32,1,1,0,1,0-1.92,0Z"/><path class="cls-6" d="M143.1,372.21a114.56,114.56,0,0,1,.19,15.39c0,1.24,1.88,1.24,1.92,0a114.56,114.56,0,0,0-.19-15.39c-.12-1.21-2-1.23-1.92,0Z"/><polygon class="cls-7" points="175.3 417.34 143.52 414.01 144.85 396.04 176.97 398.78 175.3 417.34"/><path class="cls-8" d="M144.85,396c4.47,4.53,9,10.14,15.47,11.61-6.38-.38-12-6.72-15.47-11.61Z"/><path class="cls-8" d="M176.57,399.15c-4.2,4.25-9.94,8.9-16.25,8.53,6.28-.59,11.36-4.9,16.25-8.53Z"/><path class="cls-9" d="M166.1,408.68l-1.41,1.17h0a6.75,6.75,0,0,1-9.49-.89h0L154,407.54a3.08,3.08,0,0,1,.41-4.34h0a3.65,3.65,0,0,1,5.15.49h0a1.25,1.25,0,0,0,1.77.16h0a3.66,3.66,0,0,1,5.15.49h0A3.08,3.08,0,0,1,166.1,408.68Z"/><path d="M273,446.92a2,2,0,0,1-1.55.66h-1.31a2.25,2.25,0,0,1-2.27-2.27V361.13a2.15,2.15,0,0,1,.66-1.67,2.28,2.28,0,0,1,1.61-.6h1.31a2.09,2.09,0,0,1,1.55.6,2.26,2.26,0,0,1,.6,1.67v84.18A2.28,2.28,0,0,1,273,446.92Zm55.29-43.28H270.88v-5.49h57.43Zm2,43.28a2.15,2.15,0,0,1-1.67.66h-1.2a2.25,2.25,0,0,1-2.27-2.27V361.13a2.15,2.15,0,0,1,.66-1.67,2.3,2.3,0,0,1,1.61-.6h1.2a2.07,2.07,0,0,1,2.26,2.27v84.18A2.27,2.27,0,0,1,330.34,446.92Z"/><path d="M409.74,416.24a3.29,3.29,0,0,1-2.51.89h-1.91a33.15,33.15,0,0,0-3.58-15.88,24.54,24.54,0,0,0-9.61-10.09,26.38,26.38,0,0,0-13.2-3.4,29.45,29.45,0,0,0-14.5,3.46,24.25,24.25,0,0,0-9.74,9.85,32.91,32.91,0,0,0,0,29.38,24.48,24.48,0,0,0,9.8,9.91,29.64,29.64,0,0,0,14.68,3.52,28.81,28.81,0,0,0,15.11-4.12,27.32,27.32,0,0,0,10.44-11.05,2.61,2.61,0,0,1,1.26-.89,2.25,2.25,0,0,1,1.49.18l1.08.71a1.48,1.48,0,0,1,1.07,1.14,2,2,0,0,1-.36,1.49,33.16,33.16,0,0,1-12.54,12.78,34,34,0,0,1-17.55,4.77,34.39,34.39,0,0,1-17.25-4.29,30.54,30.54,0,0,1-11.82-11.88,36.16,36.16,0,0,1,0-34A30.35,30.35,0,0,1,361.86,387a34.2,34.2,0,0,1,17.07-4.24,31.23,31.23,0,0,1,14.87,3.65A30.15,30.15,0,0,1,405.14,397a35.15,35.15,0,0,1,5.2,16.66A3,3,0,0,1,409.74,416.24Zm-3.34.89h-57v-4.77h57Z"/><path d="M428.6,447a2.09,2.09,0,0,1-1.55.6h-1.31a2.06,2.06,0,0,1-2.15-2.15V359a2.1,2.1,0,0,1,.6-1.55,2.07,2.07,0,0,1,1.55-.6h1.31A2.06,2.06,0,0,1,429.2,359v86.45A2.07,2.07,0,0,1,428.6,447Z"/><path d="M450,447a2.11,2.11,0,0,1-1.56.6h-1.31a2.06,2.06,0,0,1-2.15-2.15V359a2.06,2.06,0,0,1,2.15-2.15h1.31a2.11,2.11,0,0,1,1.56.6,2.14,2.14,0,0,1,.59,1.55v86.45A2.1,2.1,0,0,1,450,447Z"/><path d="M480.12,444.42a33.83,33.83,0,0,1-12.06-12.06,33.06,33.06,0,0,1,0-33.2,33.35,33.35,0,0,1,12.06-12,33.27,33.27,0,0,1,33.14,0,32.78,32.78,0,0,1,16.48,28.66,32,32,0,0,1-4.48,16.54,33.83,33.83,0,0,1-12.06,12.06,32.84,32.84,0,0,1-33.08,0Zm30.45-4.36A27.11,27.11,0,0,0,520.48,430a28,28,0,0,0,3.64-14.15,28.66,28.66,0,0,0-3.58-14.27,26.22,26.22,0,0,0-9.85-10,28.63,28.63,0,0,0-27.94,0,26.66,26.66,0,0,0-9.91,10,29.56,29.56,0,0,0,0,28.42,27.11,27.11,0,0,0,9.91,10.09,28,28,0,0,0,27.82,0Z"/><path d="M551,438.33a4.16,4.16,0,0,1,3-1h2.15a3.59,3.59,0,0,1,4.06,4.06v2.15a4.21,4.21,0,0,1-1,3,4,4,0,0,1-3,1.07H554a3.73,3.73,0,0,1-4.06-4.06v-2.15A4,4,0,0,1,551,438.33ZM557.2,428a2.1,2.1,0,0,1-1.55.6h-1.2a2.06,2.06,0,0,1-2.15-2.15l-.95-64.6a3.15,3.15,0,0,1,.71-2.27,3.11,3.11,0,0,1,2.27-.72h1.44a3.07,3.07,0,0,1,2.26.72,3.11,3.11,0,0,1,.72,2.27l-1,64.6A2.1,2.1,0,0,1,557.2,428Z"/><path class="cls-10" d="M108.47,649.12h908.06a50,50,0,0,1,50,50v1755a0,0,0,0,1,0,0H58.47a0,0,0,0,1,0,0v-1755A50,50,0,0,1,108.47,649.12Z"/><path d="M385.62,801.28a4,4,0,0,1,1,3,54.24,54.24,0,0,1-3.43,18.42,23.68,23.68,0,0,1,3.23,8.55,27.88,27.88,0,0,1,0,9.25,26.82,26.82,0,0,1-2.94,8.62,1.73,1.73,0,0,1-2.58,1l-.92-.59a1.7,1.7,0,0,1-.93-2.58,29.79,29.79,0,0,0,2.58-8.18,19.87,19.87,0,0,0-.27-7.63,16.75,16.75,0,0,0-3.1-6.57,2.45,2.45,0,0,1-.2-2.38,47,47,0,0,0,3.5-16.91H373.5V857a1.72,1.72,0,0,1-1.91,2h-1.06a1.75,1.75,0,0,1-2-2V803.92a3.24,3.24,0,0,1,3.63-3.63h10.57A4,4,0,0,1,385.62,801.28Zm10.27,48.93-5.81,7.33a1.66,1.66,0,0,1-2.71.33l-.93-.73a1.8,1.8,0,0,1-.26-2.77l5.74-7.4c.89-1,1.79-1.12,2.71-.33l1,.8A1.79,1.79,0,0,1,395.89,850.21Zm1.25-27.93v22.91q0,4.23,2.05,6a8,8,0,0,0,5.35,1.75H425.8a1.75,1.75,0,0,1,2,2V856a1.75,1.75,0,0,1-2,2H404.54a13.8,13.8,0,0,1-5.71-1.26,10.93,10.93,0,0,1-4.69-4.09,13.14,13.14,0,0,1-1.89-7.4V823.73h-3a1.75,1.75,0,0,1-2-2v-1.06a1.75,1.75,0,0,1,2-2h4.36Q397.14,818.71,397.14,822.28Zm-3-22a2.15,2.15,0,0,1,.73,1.42l1.91,9.51a2.4,2.4,0,0,1-.26,1.62,1.61,1.61,0,0,1-1.46.62l-1,.13a2.48,2.48,0,0,1-1.55-.29,1.86,1.86,0,0,1-.7-1.42l-1.91-9.51a2.4,2.4,0,0,1,.26-1.62,1.52,1.52,0,0,1,1.39-.63l1.06-.13A2.55,2.55,0,0,1,394.17,800.32Zm19.08-.3a2.11,2.11,0,0,1,.07,1.59,58.21,58.21,0,0,1-4.62,11.78,70.57,70.57,0,0,1-7.07,11,1.72,1.72,0,0,1-2.71.46l-.92-.66a1.79,1.79,0,0,1-.4-2.77,61.7,61.7,0,0,0,7-10.8,51.14,51.14,0,0,0,4-10.33A1.75,1.75,0,0,1,411,798.9l1,.26A1.94,1.94,0,0,1,413.25,800Zm14.14,5.55v1a1.7,1.7,0,0,1-1.92,1.92H400.91a1.7,1.7,0,0,1-1.92-1.92v-1a1.7,1.7,0,0,1,1.92-1.92h24.56A1.7,1.7,0,0,1,427.39,805.57Zm-2.55,9.21a3.52,3.52,0,0,1,.9,2.61v28.13a3.55,3.55,0,0,1-.9,2.58,3.38,3.38,0,0,1-2.54.92H419a1.66,1.66,0,0,1-1.85-1.91V846a1.64,1.64,0,0,1,1.85-1.85h2V818.78H407.91V847.3c0,1.24-.64,1.85-1.92,1.85h-1c-1.28,0-1.92-.61-1.92-1.85V817.39a3.45,3.45,0,0,1,.93-2.61,3.57,3.57,0,0,1,2.57-.89H422.3A3.44,3.44,0,0,1,424.84,814.78Zm-1.55,11.33v1a1.63,1.63,0,0,1-1.85,1.85H407.51a1.64,1.64,0,0,1-1.85-1.85v-1a1.63,1.63,0,0,1,1.85-1.85h13.93A1.63,1.63,0,0,1,423.29,826.11Zm0,10.17v.92a1.63,1.63,0,0,1-1.85,1.85H407.51a1.64,1.64,0,0,1-1.85-1.85v-.92a1.63,1.63,0,0,1,1.85-1.85h13.93A1.63,1.63,0,0,1,423.29,836.28Z"/><path d="M439.6,820.82v8.06q0,5.75-.39,10.86c-.27,3.41-.66,6.73-1.19,9.94a1.73,1.73,0,0,1-2.31,1.52l-1.13-.13a1.82,1.82,0,0,1-1.51-2.38,87.33,87.33,0,0,0,1.25-9.34c.26-3.24.4-6.73.4-10.47v-8c0-1.32.63-2,1.91-2h1.06A1.69,1.69,0,0,1,439.6,820.82Zm15.92-10.3v1.26a1.87,1.87,0,0,1-2.11,2.11h-18.1a1.86,1.86,0,0,1-2.11-2.11v-1.26a1.86,1.86,0,0,1,2.11-2.11h18.1A1.87,1.87,0,0,1,455.52,810.52Zm-5.94-10v55.93a1.88,1.88,0,0,1-2.12,2.12h-1.12a1.87,1.87,0,0,1-2.11-2.12V800.55a1.86,1.86,0,0,1,2.11-2.11h1.12A1.87,1.87,0,0,1,449.58,800.55Zm6.27,29.91-.66,1.06a1.91,1.91,0,0,1-2.91.73l-4.95-3a1.86,1.86,0,0,1-.73-2.91l.66-1.06a1.79,1.79,0,0,1,2.84-.72l5,3A1.89,1.89,0,0,1,455.85,830.46Zm30.38-29.15a3.91,3.91,0,0,1,1,2.94v47.48h5a1.9,1.9,0,0,1,2.11,2.18v1.25a1.9,1.9,0,0,1-2.11,2.18h-6.48a4.12,4.12,0,0,1-3-1,4,4,0,0,1-1.05-3V805.83H466.55v19a81.65,81.65,0,0,1-1.65,17.53,48.92,48.92,0,0,1-6.15,14.83,1.9,1.9,0,0,1-3,.79l-1-.72a2.11,2.11,0,0,1-.73-3.11,40.55,40.55,0,0,0,4.42-8.91A43.34,43.34,0,0,0,460.5,836a95.92,95.92,0,0,0,.57-11.19v-20.6a3.57,3.57,0,0,1,4-4h18.22A4.13,4.13,0,0,1,486.23,801.31Z"/><path d="M559,853.45v1.18a1.87,1.87,0,0,1-2.11,2.12H502.08a1.88,1.88,0,0,1-2.12-2.12v-1.18a1.88,1.88,0,0,1,2.12-2.12h54.81A1.87,1.87,0,0,1,559,853.45Zm-50.19-49.27v4.89h45.9a1.86,1.86,0,0,1,2.11,2.11v1.19a1.86,1.86,0,0,1-2.11,2.11H507.29a3.94,3.94,0,0,1-2.9-1,4,4,0,0,1-1-3v-6.34a1.83,1.83,0,0,1,2-2.11h1.26A1.86,1.86,0,0,1,508.81,804.18Zm45.7,27.34v1.26a1.87,1.87,0,0,1-2.11,2.11H506.57a1.87,1.87,0,0,1-2.12-2.11v-1.26a1.85,1.85,0,0,1,2.12-2H552.4A1.84,1.84,0,0,1,554.51,831.52Zm-22.06-30.9v51.5a1.92,1.92,0,0,1-2.18,2.18h-1.19a1.92,1.92,0,0,1-2.17-2.18v-51.5a1.92,1.92,0,0,1,2.17-2.18h1.19A1.92,1.92,0,0,1,532.45,800.62Z"/><path d="M620,800.29h1.13a1.87,1.87,0,0,1,2.11,2.11v5.08q0,3.9-3.9,3.9h-43v15A84.22,84.22,0,0,1,574.72,843a50.71,50.71,0,0,1-5,13.93,1.75,1.75,0,0,1-2.77.86l-1.06-.53a1.93,1.93,0,0,1-.85-2.91,44.84,44.84,0,0,0,4.42-12.58,80.64,80.64,0,0,0,1.32-15.35V809.86q0-3.83,3.9-3.83h43.12V802.4A1.86,1.86,0,0,1,620,800.29ZM593,825.54a3.78,3.78,0,0,1,1,2.88v22.19a3.46,3.46,0,0,1-3.83,3.83h-6.15a1.87,1.87,0,0,1-2.11-2.12v-1.05a1.87,1.87,0,0,1,2.11-2.12h4.56V829.87H576a1.87,1.87,0,0,1-2.12-2.11V826.7a1.87,1.87,0,0,1,2.12-2.11h14.2A4,4,0,0,1,593,825.54Zm28.23-1.48a93.93,93.93,0,0,1-8.94,19.05,64.45,64.45,0,0,1-12.06,14.63,1.86,1.86,0,0,1-3-.07l-.79-.92c-.93-1-.88-2,.13-3a68,68,0,0,0,11.53-14.13,86.15,86.15,0,0,0,8.08-17.24A1.88,1.88,0,0,1,618.9,821l1.18.39A1.86,1.86,0,0,1,621.27,824.06Zm-14.13-23.51V819q0,12.36,4.59,20.81a34.81,34.81,0,0,0,12.58,13.34,1.92,1.92,0,0,1,.86,2.9l-.59,1a1.88,1.88,0,0,1-1.16,1.16,2.4,2.4,0,0,1-1.62-.3,40.69,40.69,0,0,1-14.63-15.35q-5.45-9.81-5.44-23.55V800.55a1.84,1.84,0,0,1,2.11-2H605A1.84,1.84,0,0,1,607.14,800.55Z"/><path d="M637,801.87h11.62q3.76,0,3.77,3.76v42.6q0,3.76-3.77,3.76H637q-3.76,0-3.76-3.76v-42.6Q633.23,801.87,637,801.87Zm12.94,24.43v1.26a1.86,1.86,0,0,1-2.11,2.11h-10a1.86,1.86,0,0,1-2.11-2.11V826.3a1.83,1.83,0,0,1,2.11-2h10A1.83,1.83,0,0,1,649.93,826.3Zm-2.51-19h-9.24v39.29h9.24Zm42.93-3.17v13.27q0,3.76-3.77,3.76H662.41a1.8,1.8,0,0,1-2-2V818a1.8,1.8,0,0,1,2-2h22.66V805.57H663v22.78a84.12,84.12,0,0,1-1.26,15A60.88,60.88,0,0,1,657.59,857a1.73,1.73,0,0,1-2.57,1.18l-1.06-.46a1.91,1.91,0,0,1-1.25-2.71,56.7,56.7,0,0,0,3.86-12.61,79,79,0,0,0,1.16-14V804.12q0-3.76,3.76-3.77h25.09Q690.35,800.35,690.35,804.12ZM672.52,827v25.56h13.73V847.9a1.87,1.87,0,0,1,2.12-2.11h1.12a1.81,1.81,0,0,1,2,2v6.28a3.76,3.76,0,0,1-1,2.77,3.85,3.85,0,0,1-2.84,1H671.07a3.94,3.94,0,0,1-2.81-1,3.66,3.66,0,0,1-1-2.8V827a1.87,1.87,0,0,1,2.12-2.11h1.12A1.81,1.81,0,0,1,672.52,827Zm16.71,3.37.79.93c.79,1,.61,2-.53,2.84a62.3,62.3,0,0,1-6.54,4.29,51.08,51.08,0,0,1-5.94,3,1.76,1.76,0,0,1-2.71-.92l-.46-1.06a1.89,1.89,0,0,1,.92-2.77,67.19,67.19,0,0,0,11.56-6.67A1.89,1.89,0,0,1,689.23,830.33Z"/><path d="M704.22,827.16v6.28a93.22,93.22,0,0,1-1.92,19.61,1.62,1.62,0,0,1-2.18,1.39l-1-.14a1.78,1.78,0,0,1-1.39-2.31,85.19,85.19,0,0,0,1.85-18.55v-6.28a1.58,1.58,0,0,1,1.79-1.78h1C703.6,825.38,704.22,826,704.22,827.16Zm16.57-9.24V819a1.87,1.87,0,0,1-2.11,2.12H700.32a1.87,1.87,0,0,1-2.11-2.12v-1.05a1.87,1.87,0,0,1,2.11-2.12h18.36A1.87,1.87,0,0,1,720.79,817.92Zm-.53-15.52v1.12a1.86,1.86,0,0,1-2.11,2.11h-17a1.86,1.86,0,0,1-2.11-2.11V802.4a1.84,1.84,0,0,1,2.11-2h17A1.84,1.84,0,0,1,720.26,802.4Zm-6.2,2.57v51.58a1.82,1.82,0,0,1-2,2.05h-1.12a1.88,1.88,0,0,1-2.12-2.12V805a1.85,1.85,0,0,1,2.12-2H712A1.78,1.78,0,0,1,714.06,805Zm6.67,29.52-.73,1.06a1.92,1.92,0,0,1-2.91.33l-5.74-4.62a1.62,1.62,0,0,1-.33-2.71l.72-1.06a1.92,1.92,0,0,1,2.91-.33l5.75,4.63A1.61,1.61,0,0,1,720.73,834.49Zm8.51-8.91a180.32,180.32,0,0,1-2.24,23.9,1.76,1.76,0,0,1-2.38,1.59l-1.06-.13a1.89,1.89,0,0,1-1.65-2.45c.58-3.47,1-7.2,1.36-11.16s.58-7.9.76-11.82a1.84,1.84,0,0,1,2.11-2h1.12A1.81,1.81,0,0,1,729.24,825.58Zm1.59-24.9v4.23h23.11a3.92,3.92,0,0,1,2.84,1,3.7,3.7,0,0,1,1,2.8v7.4a1.86,1.86,0,0,1-2.11,2.11H754.6a1.86,1.86,0,0,1-2.11-2.11v-6H729.38a3.9,3.9,0,0,1-2.84-1,3.73,3.73,0,0,1-1-2.81v-5.61a1.86,1.86,0,0,1,2.11-2.11h1.12A1.84,1.84,0,0,1,730.83,800.68Zm11.95,18v35.53a3.88,3.88,0,0,1-1,2.91,4.05,4.05,0,0,1-2.94,1h-5.15a1.9,1.9,0,0,1-2.18-2.11v-1.19a1.93,1.93,0,0,1,2.18-2.18h3.76v-34a1.84,1.84,0,0,1,2.05-2.11h1.19A1.87,1.87,0,0,1,742.78,818.64Zm13.08,6.81a182.31,182.31,0,0,0,2.18,23,1.91,1.91,0,0,1-1.72,2.45l-1.06.13a1.77,1.77,0,0,1-2.37-1.65q-.93-5.49-1.49-11.66t-.76-12.12c0-1.4.62-2.11,2-2.11l1.12-.07A1.86,1.86,0,0,1,755.86,825.45Z"/><rect class="cls-11" x="478.86" y="1788.53" width="196.5" height="92.82" rx="46.41"/><path class="cls-10" d="M607.24,1833.11l-18.19-16.91a2.5,2.5,0,0,0-3.53.12h0a2.5,2.5,0,0,0,.13,3.54l13.53,12.58H549a2.5,2.5,0,1,0,0,5h50.18L585.65,1850a2.5,2.5,0,1,0,3.4,3.66l18.19-16.91A2.49,2.49,0,0,0,607.24,1833.11Z"/><rect class="cls-12" x="295.17" y="1285.58" width="564.21" height="126.19" rx="63.09"/><path d="M447.44,1346.35v5c0,2.79-.06,5.44-.16,8s-.29,4.91-.56,7.22a1.36,1.36,0,0,1-1.76,1.39l-.9-.09a1.5,1.5,0,0,1-1.39-1.84c.27-2.19.45-4.5.56-6.93s.16-5,.16-7.7v-5a1.39,1.39,0,0,1,1.57-1.57h.9A1.39,1.39,0,0,1,447.44,1346.35Zm8.82-7.06v1.17a1.87,1.87,0,0,1-2.12,2.11h-9.31a1.87,1.87,0,0,1-2.12-2.11v-1.17a1.88,1.88,0,0,1,2.12-2.12h9.31A1.88,1.88,0,0,1,456.26,1339.29Zm-2.25-6.12v37.08a1.71,1.71,0,0,1-1.94,1.93H451a1.7,1.7,0,0,1-1.93-1.93v-37.08a1.71,1.71,0,0,1,1.93-1.94h1.08A1.72,1.72,0,0,1,454,1333.17Zm2.56,19.08-.63,1a1.89,1.89,0,0,1-2.92.72l-1.13-.72a1.85,1.85,0,0,1-.76-2.88l.63-1a1.89,1.89,0,0,1,2.92-.72l1.13.72A1.85,1.85,0,0,1,456.57,1352.25Zm11.93-17a3.72,3.72,0,0,1,.94,2.77v10.48a34.31,34.31,0,0,1-2.29,13.1,28.86,28.86,0,0,1-6.93,10,1.61,1.61,0,0,1-2.7-.27l-.63-.9a2,2,0,0,1,.27-3,26.07,26.07,0,0,0,4.34-5.27,20.36,20.36,0,0,0,2.41-6,34.38,34.38,0,0,0,.76-7.65v-8.77h-5.58a1.87,1.87,0,0,1-2.11-2.12v-1.17a1.86,1.86,0,0,1,2.11-2.11h6.66A3.81,3.81,0,0,1,468.5,1335.26Zm-6.26,7.94v5.31a36,36,0,0,0,.74,7.7,21.07,21.07,0,0,0,2.32,6,26.92,26.92,0,0,0,4.1,5.26,2,2,0,0,1,.22,2.93l-.72.9a1.62,1.62,0,0,1-2.74.13,30.32,30.32,0,0,1-6.51-10,35.34,35.34,0,0,1-2.18-13v-5.31a1.67,1.67,0,0,1,1.89-1.89h1A1.67,1.67,0,0,1,462.24,1343.2Zm22.5-4.09v1.17a1.86,1.86,0,0,1-2.11,2.11h-9.95a1.86,1.86,0,0,1-2.11-2.11v-1.17a1.87,1.87,0,0,1,2.11-2.12h9.95A1.87,1.87,0,0,1,484.74,1339.11Zm-9.58,8.41,1.08,11.43a1.52,1.52,0,0,1-1.58,1.85l-.9.09a1.51,1.51,0,0,1-1.84-1.58l-1.08-11.43a1.51,1.51,0,0,1,1.57-1.84l.9-.09A1.52,1.52,0,0,1,475.16,1347.52Zm7.51-14.22v34.79q0,4-4.05,4.05h-3.15a2,2,0,0,1-2.29-2.3v-1.26a2,2,0,0,1,2.29-2.29h1.89v-33a1.83,1.83,0,0,1,2.07-2.07h1.17A1.83,1.83,0,0,1,482.67,1333.3Z"/><path d="M497.57,1341.67a125.65,125.65,0,0,1-4.19,19.76,1.78,1.78,0,0,1-2.61,1.39l-1.08-.36a2,2,0,0,1-1.39-2.74c.9-3,1.68-6.1,2.36-9.38s1.18-6.42,1.51-9.39a2.58,2.58,0,0,1,.78-1.53,2.09,2.09,0,0,1,1.65-.27l1.17.09A1.87,1.87,0,0,1,497.57,1341.67Zm13.86-8.28v34.92q0,3.92-3.92,3.92H502.7a1.88,1.88,0,0,1-2.12-2.12v-1.17a1.87,1.87,0,0,1,2.12-2.11h3.24v-33.44a1.91,1.91,0,0,1,2.16-2.16h1.17A1.91,1.91,0,0,1,511.43,1333.39Zm12.62,6a2.59,2.59,0,0,1,.79,1.53,116.33,116.33,0,0,0,3.87,18.77,2,2,0,0,1-1.4,2.74l-1.08.36a1.78,1.78,0,0,1-2.61-1.39q-1.44-4.68-2.52-9.86t-1.66-9.9a1.87,1.87,0,0,1,1.8-2.43l1.17-.09A2.06,2.06,0,0,1,524.05,1339.42Z"/><path d="M540.68,1357q-1.57,7.29-3.47,13.32a1.85,1.85,0,0,1-2.65,1.35l-1.08-.36a2,2,0,0,1-1.35-2.7q1-3.37,1.93-6.81t1.4-5.88a1.87,1.87,0,0,1,2.52-1.62l1.08.18A1.87,1.87,0,0,1,540.68,1357Zm-2.88-24.66,2.07,4.68a1.81,1.81,0,0,1-1.13,2.66l-1.08.54a1.8,1.8,0,0,1-2.65-1.13l-2.07-4.68a1.8,1.8,0,0,1,1.12-2.65l1.08-.54A1.8,1.8,0,0,1,537.8,1332.31Zm0,11.7,2.07,4.68a1.81,1.81,0,0,1-1.13,2.66l-1.08.54a1.8,1.8,0,0,1-2.65-1.13l-2.07-4.68a1.8,1.8,0,0,1,1.12-2.65l1.08-.54A1.8,1.8,0,0,1,537.8,1344Zm34.53-11.18a3.79,3.79,0,0,1,1,2.81v33a3.38,3.38,0,0,1-3.78,3.78H566a1.83,1.83,0,0,1-2.07-2.07v-1.12a1.83,1.83,0,0,1,2.07-2.07h2.11v-30.06H548.55v33.43a1.83,1.83,0,0,1-2.07,2.07H545.4a1.83,1.83,0,0,1-2.07-2.07v-34.92a3.4,3.4,0,0,1,3.78-3.78h22.41A3.82,3.82,0,0,1,572.33,1332.83Zm-6.18,9.07V1343a1.79,1.79,0,0,1-2,2H552.51a1.78,1.78,0,0,1-2-2v-1.08a1.79,1.79,0,0,1,2-2h11.61A1.8,1.8,0,0,1,566.15,1341.9ZM554.54,1348h7.56q3.6,0,3.6,3.6v9.72q0,3.6-3.6,3.6h-7.56q-3.6,0-3.6-3.6v-9.72Q550.94,1348,554.54,1348Zm6.21,5h-4.86v6.84h4.86Z"/><path d="M578.77,1343.68a1.72,1.72,0,0,1-.2-1.83,10.09,10.09,0,0,1,2.18-4,11.6,11.6,0,0,1,3.82-2.9,10.83,10.83,0,0,1,4.66-1.06,10.29,10.29,0,0,1,5.38,1.47,11,11,0,0,1,3.89,3.89,10,10,0,0,1,1.44,5.17,10.45,10.45,0,0,1-.94,4.35,19,19,0,0,1-3,4.47l-11.07,12v-3.38h13a2.11,2.11,0,0,1,2.29,2.3v1.26a2.1,2.1,0,0,1-2.29,2.29H581.36a2.69,2.69,0,0,1-1.8-.56,1.9,1.9,0,0,1-.68-1.55v-1a3.77,3.77,0,0,1,.34-1.6,7.1,7.1,0,0,1,1.06-1.6l11.11-12.06a12.44,12.44,0,0,0,2-2.67,5.08,5.08,0,0,0,.52-2.28,5.26,5.26,0,0,0-.56-2.49,3.85,3.85,0,0,0-1.6-1.62,5.16,5.16,0,0,0-2.52-.57,5.87,5.87,0,0,0-2,.34,4.63,4.63,0,0,0-1.58,1,4.29,4.29,0,0,0-1,1.41,5.31,5.31,0,0,1-1.21,1.49,2.48,2.48,0,0,1-1.58.49h-1.3A2.24,2.24,0,0,1,578.77,1343.68Z"/><path d="M610,1366a13.53,13.53,0,0,1-4.07-6.08,26.55,26.55,0,0,1-1.39-9,26,26,0,0,1,1.39-8.86,13.49,13.49,0,0,1,4.07-6,10.49,10.49,0,0,1,12.83,0,13.6,13.6,0,0,1,4.09,6,25.54,25.54,0,0,1,1.42,8.86,26,26,0,0,1-1.42,9,13.64,13.64,0,0,1-4.09,6.08,10.53,10.53,0,0,1-12.83,0Zm9.66-4.86a7.62,7.62,0,0,0,2-3.72,25.71,25.71,0,0,0,.67-6.48,25,25,0,0,0-.67-6.39,7.49,7.49,0,0,0-2-3.66,5,5,0,0,0-6.48,0,7.32,7.32,0,0,0-2,3.66,25.52,25.52,0,0,0-.65,6.39,26.3,26.3,0,0,0,.65,6.48,7.45,7.45,0,0,0,2,3.72,5,5,0,0,0,6.48,0Z"/><path d="M632.77,1343.68a1.7,1.7,0,0,1-.2-1.83,10,10,0,0,1,2.18-4,11.6,11.6,0,0,1,3.82-2.9,10.83,10.83,0,0,1,4.66-1.06,10.29,10.29,0,0,1,5.38,1.47,11,11,0,0,1,3.89,3.89,10,10,0,0,1,1.44,5.17,10.61,10.61,0,0,1-.94,4.35,19,19,0,0,1-3,4.47l-11.07,12v-3.38h13a2.11,2.11,0,0,1,2.29,2.3v1.26a2.1,2.1,0,0,1-2.29,2.29H635.36a2.7,2.7,0,0,1-1.81-.56,1.93,1.93,0,0,1-.67-1.55v-1a3.77,3.77,0,0,1,.34-1.6,6.77,6.77,0,0,1,1.06-1.6l11.11-12.06a12.44,12.44,0,0,0,2-2.67,5.08,5.08,0,0,0,.52-2.28,5.26,5.26,0,0,0-.56-2.49,3.85,3.85,0,0,0-1.6-1.62,5.16,5.16,0,0,0-2.52-.57,5.87,5.87,0,0,0-2,.34,4.63,4.63,0,0,0-1.58,1,4.29,4.29,0,0,0-1,1.41,5.32,5.32,0,0,1-1.22,1.49,2.45,2.45,0,0,1-1.57.49h-1.31A2.22,2.22,0,0,1,632.77,1343.68Z"/><path d="M659.16,1359a2.13,2.13,0,0,1,1.76-.72h1.25a2.66,2.66,0,0,1,1.58.45,6.84,6.84,0,0,1,1.39,1.49,2.88,2.88,0,0,0,1,1.21,4.6,4.6,0,0,0,1.68.72,8.3,8.3,0,0,0,2.16.18,5.18,5.18,0,0,0,2.66-.78,5.56,5.56,0,0,0,1.87-2,6.9,6.9,0,0,0,.79-2.92,6.45,6.45,0,0,0-1-4.21,4.74,4.74,0,0,0-3.42-1.89,11.66,11.66,0,0,0-5.24.74,4,4,0,0,1-1.46.23,2.65,2.65,0,0,1-1.24-.45l-.77-.5a2.19,2.19,0,0,1-1.08-2.47l1.71-10.49a3.39,3.39,0,0,1,3.74-3.19h9.85a2.11,2.11,0,0,1,2.3,2.29v1.26a2.11,2.11,0,0,1-2.3,2.3h-8l-.85,5.58a12.49,12.49,0,0,1,7.17.36,9.83,9.83,0,0,1,5,4,11.92,11.92,0,0,1-.07,12.08,12.61,12.61,0,0,1-4,4.14,10.5,10.5,0,0,1-5.33,1.73,11.93,11.93,0,0,1-4.91-.76,11.68,11.68,0,0,1-4.12-2.61,8.92,8.92,0,0,1-2.36-3.92A1.87,1.87,0,0,1,659.16,1359Z"/><path class="cls-10" d="M228.53,2406.85Z"/></svg>